<svg width="239" height="296" viewBox="0 0 239 296" fill="none" xmlns="http://www.w3.org/2000/svg">
<path fill-rule="evenodd" clip-rule="evenodd" d="M141.057 170.819C154.785 164.853 159.605 157.398 163.216 151.729C168.996 143.673 172.37 130.25 172.37 117.125L171.887 109.368L171.166 100.718L170.202 92.664L169.239 84.9075C168.997 82.5197 168.757 79.8354 168.997 77.4506C168.758 70.5894 170.204 64.0262 175.019 59.5529L172.61 55.6755C174.778 53.2891 175.741 50.9028 174.538 50.3054C175.26 49.7096 183.69 37.7778 175.742 43.1464C177.43 41.9532 178.634 38.3737 179.116 35.9873C175.985 36.5847 174.779 37.1805 171.648 38.3737L164.183 41.9532L159.126 33.601L156.956 30.0214C156.474 30.9167 155.996 31.5125 155.513 32.1083C152.622 35.3899 148.287 35.3899 144.433 34.7941L137.207 33.303L131.427 32.4078C126.129 31.2161 119.865 30.9167 114.326 31.5125L107.582 32.4078L99.3936 34.1983C94.3348 35.0936 87.3504 36.2852 84.2196 29.7235L76.2718 42.2526C75.3084 41.9547 73.8626 41.3574 72.1776 41.0595C71.9358 42.2526 72.9005 44.3411 74.1044 46.1301L72.8943 48.2185L66.1504 59.2566C72.4132 64.9245 72.4132 74.7678 71.6903 83.418L69.7635 98.0356L69.0406 105.792C68.5583 110.267 68.3178 115.039 68.5583 119.812C69.0406 144.273 80.8421 162.768 99.1469 170.525L103.001 172.315C109.023 175.597 115.044 178.577 120.101 184.843C120.343 184.543 120.582 184.543 120.582 184.245C126.606 177.383 133.831 174.101 141.057 170.819V170.819Z" fill="#219653"/>
<path fill-rule="evenodd" clip-rule="evenodd" d="M94.3298 35.9872L96.739 35.3914L107.577 33.3029L114.803 32.4077C121.786 31.5124 129.013 32.7056 135.518 33.9003L145.152 35.9872C149.248 36.2851 153.583 35.9872 156.472 32.4077L156.954 31.5124L163.459 42.251C162.495 42.5489 161.049 43.1462 160.085 43.7421H159.845L156.472 38.0741C153.1 40.4604 149.248 40.7599 145.152 40.4604L139.611 39.2673L132.627 37.7762L125.161 36.8809C120.827 36.2836 116.249 36.583 111.914 37.1788L105.893 38.372L95.5363 40.1625C91.6826 40.4604 87.829 39.8646 84.697 37.7762L80.8421 44.0415C79.6381 43.7436 78.4342 43.1462 77.229 42.5489L84.2134 31.2145C86.6226 35.3914 90.4762 35.6893 94.3298 35.9872Z" fill="white" stroke="#2D67A0" stroke-width="0.0129698" stroke-miterlimit="2.613"/>
<path fill-rule="evenodd" clip-rule="evenodd" d="M178.39 36.8826C176.705 41.6553 175.259 43.1464 172.851 44.0416L162.253 48.2185C160.566 48.8159 158.88 50.3054 156.953 51.2007C149.729 47.9191 144.188 50.6033 141.779 51.4986C138.407 52.9897 135.759 55.0781 132.869 57.7624C132.755 57.4884 132.582 57.2592 132.369 57.101C132.156 56.9427 131.911 56.8617 131.662 56.8671C132.145 57.4645 132.626 58.9556 132.869 59.5529C133.108 59.5529 134.312 58.6577 135.275 59.5529C136.239 60.7461 135.036 61.9393 134.554 63.1325C135.758 61.9393 136.721 61.3419 137.925 61.9393C139.129 63.1325 137.443 64.923 136.962 65.8167C137.925 65.8167 138.89 64.6235 140.092 65.5188C140.575 66.712 139.371 67.3093 138.407 67.9052C139.371 67.9052 140.575 68.5025 141.299 69.3963C140.092 70.2915 138.647 69.3963 137.203 69.0983C134.554 68.2031 133.83 67.0099 131.181 66.1162C130.46 65.8183 129.256 65.5188 128.532 65.8183C128.049 65.5204 127.328 65.5203 126.846 65.5203C130.699 64.0293 129.738 58.3613 131.423 54.7818C133.349 50.6049 137.203 49.7111 140.575 49.1138C145.151 48.2185 149.968 48.518 154.064 47.0253L157.677 45.8322L163.457 43.1464L171.646 39.5668C173.816 38.6731 175.983 37.4799 178.39 36.8826V36.8826Z" fill="white" stroke="#2D67A0" stroke-width="0.103758" stroke-miterlimit="2.613"/>
<path fill-rule="evenodd" clip-rule="evenodd" d="M178.631 42.549C177.907 44.3395 175.74 48.2169 174.055 49.4101C171.166 51.4985 167.553 52.3938 163.94 52.9896C161.53 53.587 161.048 52.9896 158.641 52.6917L157.196 52.3938C162.734 48.8143 167.554 47.3217 173.816 45.2348C176.944 43.7437 177.429 43.1463 178.631 42.549V42.549ZM120.103 49.4116C118.657 49.7095 117.212 49.4116 116.249 51.798C115.768 51.5001 116.249 50.3054 116.731 50.0075C117.693 49.1122 119.138 48.8158 120.103 49.4116V49.4116ZM174.055 52.0959C173.815 52.9912 172.851 54.7817 172.127 55.677C170.923 56.8701 170.442 57.4675 167.07 58.3612C164.421 58.6591 159.605 59.2565 159.123 58.0633C162.733 56.2728 162.733 54.7817 163.457 54.1859C166.346 53.888 169.238 53.2906 173.816 51.2037C174.297 50.9027 174.537 51.5001 174.055 52.0959V52.0959ZM154.303 51.5001C155.991 52.0959 157.195 52.6933 156.47 52.9912C150.451 54.4823 147.079 55.3775 136.721 60.4481C136.96 60.1502 136.239 58.9571 135.999 58.6591C135.758 58.3612 134.312 58.0618 133.83 58.0618C141.056 53.2891 144.188 50.6048 152.136 50.9027C152.618 50.9027 153.581 51.2006 154.303 51.5001V51.5001Z" fill="white" stroke="#2D67A0" stroke-width="0.103758" stroke-miterlimit="2.613"/>
<path fill-rule="evenodd" clip-rule="evenodd" d="M123.233 49.7096C121.788 49.1122 120.344 49.7096 119.38 50.0075C118.416 50.3054 117.212 51.2007 116.73 52.0944C118.416 52.6918 120.344 52.3939 122.029 52.6918C122.993 52.9897 123.714 54.1829 124.679 53.587C125.401 52.6918 125.401 52.3939 125.401 51.7965C125.16 51.5001 124.679 50.3054 123.233 49.7096V49.7096ZM126.364 52.6933C126.364 52.9912 126.364 53.2891 126.125 53.5886C125.883 53.5886 125.883 54.1844 125.161 53.8865C125.161 53.2907 125.401 52.6948 125.883 52.3954C126.125 52.3954 126.364 52.3954 126.364 52.6933V52.6933ZM161.529 54.7802C161.529 55.6755 159.604 56.2713 159.362 56.8687C156.953 58.3597 156.712 59.255 154.064 59.8508L146.838 62.2372C144.909 62.8345 142.261 63.7283 139.129 64.3241C139.853 62.833 140.092 61.6398 138.89 60.7446L151.655 55.6739C155.749 54.1844 159.123 52.9912 161.529 54.7802V54.7802Z" fill="white" stroke="#2D67A0" stroke-width="0.103758" stroke-miterlimit="2.613"/>
<path fill-rule="evenodd" clip-rule="evenodd" d="M122.512 53.587C123.233 53.8849 124.679 55.6754 125.161 56.8686C125.401 57.4659 125.161 58.3597 124.679 58.6591C124.197 58.9586 123.957 59.5544 123.716 59.8523C123.957 59.2565 123.716 58.957 123.476 58.6591C123.235 58.3612 122.752 57.7639 122.513 57.168C121.067 57.168 118.418 57.168 118.418 55.6769C118.658 55.379 120.585 55.6769 121.067 55.6769C121.789 55.6769 122.513 55.6769 123.235 56.2728H122.751C122.993 56.8701 123.475 57.168 123.957 56.8701C124.197 56.8701 124.197 56.2728 124.197 55.9749C123.957 55.379 123.233 55.379 122.512 55.0796H117.935C117.453 54.7817 116.489 53.2891 116.007 52.9911C116.007 52.6932 116.248 52.6932 116.489 52.6932C118.176 53.2891 120.584 53.2891 122.512 53.587V53.587Z" fill="white"/>
<path d="M122.512 53.587C123.233 53.8849 124.679 55.6754 125.161 56.8686C125.401 57.4659 125.161 58.3597 124.679 58.6591C124.197 58.9586 123.957 59.5544 123.716 59.8523C123.957 59.2565 123.716 58.957 123.476 58.6591C123.235 58.3612 122.752 57.7639 122.513 57.168C121.067 57.168 118.418 57.168 118.418 55.6769C118.658 55.379 120.585 55.6769 121.067 55.6769C121.789 55.6769 122.513 55.6769 123.235 56.2728H122.751C122.993 56.8701 123.475 57.168 123.957 56.8701C124.197 56.8701 124.197 56.2728 124.197 55.9749C123.957 55.379 123.233 55.379 122.512 55.0796H117.935C117.453 54.7817 116.489 53.2891 116.007 52.9911C116.007 52.6932 116.248 52.6932 116.489 52.6932C118.176 53.2891 120.584 53.2891 122.512 53.587V53.587Z" stroke="#2D67A0" stroke-width="0.103758" stroke-miterlimit="2.613"/>
<path fill-rule="evenodd" clip-rule="evenodd" d="M127.568 53.8849C127.568 54.1829 127.568 54.1829 127.81 54.4823C127.81 55.0797 127.568 55.3776 127.086 55.6755C126.846 55.9734 126.364 56.2713 125.882 55.6755C125.642 55.6755 125.16 55.3776 125.16 55.3776C125.16 54.4823 126.124 53.8849 126.845 53.587C127.086 53.587 127.568 53.587 127.568 53.8849V53.8849ZM88.7899 54.7802C92.6435 56.2713 92.8853 57.7624 93.8487 61.0455L87.1048 60.4482C78.9165 59.2565 76.025 51.2022 74.5805 47.3232C80.1192 52.3954 86.6225 54.4823 88.7899 54.7802V54.7802ZM171.646 57.7639C169.72 61.0455 167.793 62.8361 165.144 63.7298C163.698 64.0277 162.494 64.923 160.809 63.7298C157.678 61.3435 156.232 59.8524 157.917 59.255C163.457 60.7476 169.238 58.9571 171.646 57.7639Z" fill="white" stroke="#2D67A0" stroke-width="0.103758" stroke-miterlimit="2.613"/>
<path fill-rule="evenodd" clip-rule="evenodd" d="M126.846 56.5707C126.846 56.5707 127.086 56.2728 127.329 56.2728C127.568 57.168 126.607 57.466 126.125 57.7639C126 57.7538 125.882 57.6878 125.793 57.5782C125.705 57.4686 125.651 57.3229 125.643 57.168C125.643 56.5707 125.16 56.2728 125.643 55.9749C125.882 56.2728 126.364 56.5707 126.846 56.5707V56.5707Z" fill="white"/>
<path d="M126.846 56.5707L127.329 56.2728C127.568 57.168 126.607 57.466 126.125 57.7639C126 57.7538 125.882 57.6878 125.793 57.5782C125.705 57.4686 125.651 57.3229 125.643 57.168C125.643 56.5707 125.16 56.2728 125.643 55.9749C125.882 56.2728 126.364 56.5707 126.846 56.5707V56.5707Z" stroke="#2D67A0" stroke-width="0.103758" stroke-miterlimit="2.613"/>
<path fill-rule="evenodd" clip-rule="evenodd" d="M95.0527 64.3256L96.0161 65.5188H88.7899C86.6226 65.5188 83.0095 62.2372 81.8055 60.4467C85.1781 61.6398 88.0683 61.9393 89.0317 61.9393C91.4408 62.2387 93.3664 61.6414 95.0527 64.3256V64.3256ZM103.483 65.5203C103.242 66.1177 104.206 67.3109 103.001 66.7135C99.8697 66.7135 96.0161 65.5203 94.3298 61.9408C95.535 61.9408 96.4984 61.9408 97.2213 62.2387C99.6292 63.4319 101.314 64.0277 103.483 65.5203V65.5203Z" fill="white" stroke="#2D67A0" stroke-width="0.103758" stroke-miterlimit="2.613"/>
<path fill-rule="evenodd" clip-rule="evenodd" d="M160.808 65.5202C160.325 67.0113 159.122 67.0113 158.158 67.3107C158.158 67.0113 157.916 66.4155 156.951 66.4155C156.23 66.4155 155.747 66.7134 155.266 66.7134C155.508 66.4155 155.749 65.5202 155.508 64.9229C155.508 64.9229 155.266 64.6249 155.026 64.6249C154.784 64.6249 154.544 65.2208 154.062 65.2208C153.099 65.8181 151.653 66.116 150.689 67.6071L145.15 68.5024C143.946 68.5024 141.537 68.5024 140.573 67.6071C140.573 67.6071 142.019 66.7119 141.298 65.2208L151.171 62.2386C157.193 59.8522 156.23 60.4481 158.397 63.4318L160.808 65.5202Z" fill="white"/>
<path d="M160.808 65.5202C160.325 67.0113 159.122 67.0113 158.158 67.3107C158.158 67.0113 157.916 66.4155 156.951 66.4155C156.23 66.4155 155.747 66.7134 155.266 66.7134C155.508 66.4155 155.749 65.5202 155.508 64.9229L155.026 64.6249C154.784 64.6249 154.544 65.2208 154.062 65.2208C153.099 65.8181 151.653 66.116 150.689 67.6071L145.15 68.5024C143.946 68.5024 141.537 68.5024 140.573 67.6071C140.573 67.6071 142.019 66.7119 141.298 65.2208L151.171 62.2386C157.193 59.8522 156.23 60.4481 158.397 63.4318L160.808 65.5202Z" stroke="#2D67A0" stroke-width="0.103758" stroke-miterlimit="2.613"/>
<path fill-rule="evenodd" clip-rule="evenodd" d="M155.027 65.8182C155.027 67.0114 153.821 67.3108 153.342 68.2045L152.86 68.8019C153.342 68.8019 153.821 68.504 154.303 67.9066C155.027 67.6087 157.677 67.0114 157.677 67.6087C157.677 68.2045 157.195 69.0998 156.713 69.3993C155.268 70.2945 153.342 71.4877 151.415 70.8903C150.211 70.8903 149.248 71.4877 148.285 71.7856L142.986 73.5761C141.058 74.1735 138.891 74.7693 136.964 73.874C134.075 73.2767 131.184 72.3814 128.052 72.3814C127.569 72.6793 127.088 72.9788 126.848 73.2767C127.33 73.2767 127.811 72.9788 128.052 73.2767C127.812 74.4699 127.812 75.961 127.088 76.8562C126.849 76.8562 126.849 76.5583 126.849 76.2589C126.367 73.2767 125.164 69.0998 127.812 66.7134C129.016 66.4155 130.462 67.0114 131.665 67.6087C133.832 69.3992 136.724 69.6972 139.373 70.8903C140.337 70.5924 141.541 70.2945 142.504 69.9951L150.213 68.8019C151.417 69.0998 151.656 67.0114 152.862 66.715C153.584 66.715 154.066 66.1176 154.788 65.5218C154.785 65.5203 155.027 65.5203 155.027 65.8182V65.8182Z" fill="white"/>
<path d="M155.027 65.8182C155.027 67.0114 153.821 67.3108 153.342 68.2046L152.86 68.8019C153.342 68.8019 153.821 68.504 154.303 67.9067C155.027 67.6088 157.677 67.0114 157.677 67.6088C157.677 68.2046 157.195 69.0998 156.713 69.3993C155.268 70.2946 153.342 71.4877 151.415 70.8904C150.211 70.8904 149.248 71.4877 148.285 71.7856L142.986 73.5762C141.058 74.1735 138.891 74.7693 136.964 73.8741C134.075 73.2767 131.184 72.3815 128.052 72.3815C127.569 72.6794 127.088 72.9788 126.848 73.2767C127.33 73.2767 127.811 72.9788 128.052 73.2767C127.812 74.4699 127.812 75.961 127.088 76.8563C127.088 76.8563 126.849 76.5583 126.849 76.2589C126.367 73.2767 125.164 69.0998 127.812 66.7135C129.016 66.4156 130.462 67.0114 131.665 67.6088C133.832 69.3993 136.724 69.6972 139.373 70.8904C140.337 70.5925 141.541 70.2946 142.504 69.9951L150.213 68.8019C151.417 69.0998 151.656 67.0114 152.862 66.715C153.584 66.715 154.066 66.1177 154.788 65.5219L155.027 65.8182V65.8182Z" stroke="#2D67A0" stroke-width="0.103758" stroke-miterlimit="2.613"/>
<path fill-rule="evenodd" clip-rule="evenodd" d="M167.311 63.4319C165.626 69.9936 161.772 68.8004 160.085 67.6072C162.013 66.712 162.013 65.5188 162.013 65.5188C164.661 65.5203 165.864 64.6251 167.311 63.4319ZM102.037 68.2046C101.314 68.504 101.314 68.8019 101.555 69.3978C101.555 69.6957 102.037 69.9951 102.037 69.9951C101.555 70.293 101.555 72.082 100.833 71.4862C98.6658 69.9951 96.9795 69.0999 94.3298 69.0999C92.8853 68.8019 89.7546 67.6088 88.5494 66.7135C91.1991 66.7135 92.1625 67.0114 93.3664 67.0114C95.0527 67.0114 96.2567 66.4156 96.2567 66.4156C98.424 66.7135 99.8697 67.3109 102.037 68.2046Z" fill="white" stroke="#2D67A0" stroke-width="0.103758" stroke-miterlimit="2.613"/>
<path fill-rule="evenodd" clip-rule="evenodd" d="M92.403 69.9951C92.6436 69.6972 93.607 69.3977 94.5716 69.6972C96.2567 69.9951 97.2213 70.2945 98.6658 71.4877C101.074 72.383 103.242 74.7693 105.892 75.6646C106.133 75.3652 105.651 75.0672 105.41 75.0672C107.096 73.5762 108.782 72.0835 110.708 71.1898C111.913 69.3993 113.598 67.6103 115.525 67.9082L115.765 68.5055C116.006 69.9966 114.802 71.1898 114.802 72.9803L112.394 74.1704L106.131 78.6452C104.445 80.4358 103.723 78.6452 102.037 77.1542C100.11 75.961 98.1835 74.7678 96.4972 72.6794C96.4972 72.6794 96.9795 72.6794 96.7378 72.3814C96.0149 72.3814 95.292 72.9788 94.3286 73.2767C94.0881 73.2767 93.3652 73.5746 93.1247 73.2767L93.3652 72.9788C93.8475 72.6809 93.8475 71.7856 94.8109 71.4877C94.0881 70.5925 92.8841 70.2945 92.1613 70.2945L92.403 69.9951V69.9951ZM162.253 70.5909C161.29 72.9773 157.434 71.4862 156.953 72.3799C156.713 72.9773 158.64 72.6778 159.362 74.1704C157.434 75.9594 152.618 73.2752 151.896 74.1704C151.172 74.7663 153.342 74.7663 153.822 75.9594C150.933 77.75 149.487 76.2574 146.598 75.0642C146.116 74.7663 146.116 75.0642 145.635 74.7663C145.874 76.2574 146.839 75.6615 147.32 76.8547C145.392 77.4521 143.949 75.9594 142.503 74.7663C145.392 73.871 148.041 72.0805 150.933 71.4846C153.583 72.0805 156.713 70.8873 157.917 69.0983C158.4 68.203 158.881 68.5025 159.124 68.5025C159.123 68.5025 162.012 69.3977 162.253 70.5909V70.5909ZM138.407 75.6615C139.853 75.6615 140.817 75.0642 142.02 74.7663C142.742 75.3621 142.26 77.1526 141.538 77.1526C141.777 78.0479 142.502 79.2395 142.26 80.4342C141.777 80.1363 139.61 78.9432 139.61 78.9432C140.092 80.1363 140.817 81.9253 140.574 83.1185C139.852 82.2232 138.167 82.2232 137.443 81.6274C137.685 83.1185 138.647 85.2069 137.443 86.6996C136.479 85.8043 135.999 84.6111 135.036 83.4179C135.275 84.9106 135.518 87.2954 134.794 88.4901C134.312 87.5948 131.905 86.6996 132.145 85.8043C131.905 85.5064 131.181 88.788 130.46 89.0859C129.738 87.8927 129.014 86.1022 127.81 85.2085C128.049 84.9106 128.532 84.9106 128.532 84.3132C127.81 83.12 126.846 83.12 125.882 82.2248C124.678 81.6274 126.124 80.7337 126.124 80.7337C127.809 79.8384 128.049 77.4521 128.291 75.3636C129.013 73.5746 130.941 74.172 132.386 74.172C134.312 74.4684 136.479 75.0657 138.407 75.6615V75.6615ZM113.358 75.3636C113.358 75.961 112.875 76.2589 112.635 76.8562C112.154 78.3473 112.635 79.8384 113.839 80.7337C114.321 81.331 114.802 81.6289 115.284 82.2248C113.598 83.7159 112.635 86.4001 112.393 86.9975C111.912 86.1022 111.67 84.6111 111.67 83.4179C111.188 84.0153 110.224 84.6111 109.742 84.6111C109.501 84.0138 110.224 82.5227 110.224 81.9253C110.224 81.9253 108.538 81.9253 108.056 82.2232C107.815 81.0301 108.538 80.4327 109.019 79.8369C108.779 79.2395 107.092 79.539 106.85 79.2395C108.537 78.0464 111.186 76.2574 112.871 75.3621H113.358V75.3636V75.3636Z" fill="white" stroke="#2D67A0" stroke-width="0.103758" stroke-miterlimit="2.613"/>
<path fill-rule="evenodd" clip-rule="evenodd" d="M123.957 82.8221C123.233 82.2248 121.308 81.9268 120.584 82.2248C118.899 82.2248 116.971 81.9268 115.526 82.8221H115.767L115.286 83.12C114.803 83.7174 115.044 83.7174 114.563 84.3132C114.563 84.6111 113.359 86.4001 113.599 86.6996C113.359 87.2954 113.118 87.8927 113.118 88.1906C113.599 89.0859 114.082 88.788 114.563 89.0859C114.082 88.4901 114.082 88.1906 114.082 87.8927C113.841 86.9975 115.045 84.9106 115.527 84.0153C115.768 83.7174 116.008 83.4179 116.25 83.4179H116.491C115.768 84.6111 115.287 85.8043 114.806 86.9975C114.806 87.5948 114.806 87.8927 115.046 88.4901C115.288 88.788 116.492 88.788 116.973 88.788C116.733 87.5948 117.455 86.9975 116.973 85.5064C117.214 85.5064 117.455 85.5064 117.696 85.8043C117.938 87.2954 117.215 88.1906 118.178 89.3838C119.382 89.9796 119.865 88.788 120.829 88.1906C121.068 86.4001 120.829 84.6111 120.587 83.12C121.312 83.4179 121.551 86.1022 122.033 86.7011C122.515 86.999 122.755 86.7011 122.997 86.4016C123.96 85.2085 122.997 83.7174 122.272 82.5242C122.514 82.5242 123.236 82.5242 123.718 84.0168C124.442 85.8074 123.718 85.5079 124.201 86.4032C124.442 86.1053 125.646 86.1053 125.886 86.1053C127.089 84.9136 126.61 84.6142 127.331 84.3163C126.364 83.7158 124.918 83.1185 123.957 82.8221V82.8221Z" fill="white"/>
<path d="M123.957 82.8221C123.233 82.2248 121.308 81.9268 120.584 82.2248C118.899 82.2248 116.971 81.9268 115.526 82.8221H115.767L115.286 83.12C114.803 83.7174 115.044 83.7174 114.563 84.3132C114.563 84.6111 113.359 86.4001 113.599 86.6996C113.359 87.2954 113.118 87.8927 113.118 88.1906C113.599 89.0859 114.082 88.788 114.563 89.0859C114.082 88.4901 114.082 88.1906 114.082 87.8927C113.841 86.9975 115.045 84.9106 115.527 84.0153C115.768 83.7174 116.25 83.4179 116.25 83.4179H116.491C115.768 84.6111 115.287 85.8043 114.806 86.9975C114.806 87.5948 114.806 87.8927 115.046 88.4901C115.288 88.788 116.492 88.788 116.973 88.788C116.733 87.5948 117.455 86.9975 116.973 85.5064C117.214 85.5064 117.455 85.5064 117.696 85.8043C117.938 87.2954 117.215 88.1906 118.178 89.3838C119.382 89.9796 119.865 88.788 120.829 88.1906C121.068 86.4001 120.829 84.6111 120.587 83.12C121.312 83.4179 121.551 86.1022 122.033 86.7011C122.515 86.999 122.755 86.7011 122.997 86.4016C123.96 85.2085 122.997 83.7174 122.272 82.5242C122.514 82.5242 123.236 82.5242 123.718 84.0168C124.442 85.8074 123.718 85.5079 124.201 86.4032C124.442 86.1053 125.646 86.1053 125.886 86.1053C127.089 84.9136 126.61 84.6142 127.331 84.3163C126.364 83.7158 124.918 83.1185 123.957 82.8221V82.8221Z" stroke="#2D67A0" stroke-width="0.103758" stroke-miterlimit="2.613"/>
<path fill-rule="evenodd" clip-rule="evenodd" d="M113.84 112.652L117.212 118.618C118.658 122.197 120.584 125.777 122.27 129.058C123.233 131.445 124.44 133.235 125.644 135.919C127.087 137.71 127.569 138.008 128.293 139.5C126.126 141.289 126.608 144.273 124.441 145.764C124.441 145.764 118.419 148.149 116.25 144.571C114.564 141.289 113.601 135.324 114.323 130.849C115.527 133.533 117.454 136.815 118.659 137.71L118.9 137.412C117.454 134.13 115.769 131.148 113.841 128.164C112.156 125.182 112.878 120.708 112.395 117.128C112.395 117.128 112.636 117.128 112.636 116.83C113.118 117.128 113.118 118.023 113.359 118.321C113.841 119.514 114.563 120.112 115.287 120.41L114.323 118.023L112.397 112.057C112.156 111.162 111.193 109.075 111.915 108.776L113.84 112.652V112.652ZM130.941 110.565C130.941 110.861 130.941 110.265 130.941 110.565V110.565ZM149.486 115.336C149.486 116.829 148.282 117.126 147.319 117.722H147.079C147.079 116.529 147.079 115.038 148.04 114.442C148.764 114.143 149.247 114.74 149.486 115.336ZM146.838 151.73C147.32 152.624 147.559 153.221 147.559 154.414C147.32 155.012 147.32 155.308 146.838 155.608C145.153 154.714 142.742 154.714 142.985 151.73C142.984 151.73 144.909 147.851 146.838 151.73Z" fill="white" stroke="#2D67A0" stroke-width="0.103758" stroke-miterlimit="2.613"/>
<path fill-rule="evenodd" clip-rule="evenodd" d="M137.444 104.895C138.89 107.281 140.335 109.37 140.335 109.37C139.853 108.773 137.926 108.177 135.037 104C134.313 102.807 133.109 101.016 132.87 101.314C132.628 101.911 133.592 102.807 133.831 103.105C133.831 103.105 137.444 109.07 136.722 109.07C136.24 109.07 134.313 106.684 133.109 104.298C131.664 101.613 129.257 97.1387 128.775 93.8571C128.775 93.8571 132.87 100.42 133.831 101.016C133.831 101.016 130.942 95.3497 130.46 93.5592C129.977 91.7702 128.292 86.9975 127.086 85.5048C127.086 85.5048 127.328 86.1007 125.882 86.9959C124.678 87.5933 124.439 86.698 122.993 87.2938C121.786 87.8912 122.029 88.1891 121.308 89.0844C120.344 89.9796 118.416 91.7702 117.212 89.3823C117.212 89.3823 115.526 90.8734 114.082 89.9781C114.082 89.9781 111.432 100.419 111.914 102.807C111.914 102.807 112.876 101.613 113.841 102.209C114.564 102.807 115.287 101.016 116.491 101.612C117.454 102.209 116.008 105.489 116.491 105.789C116.973 106.386 117.454 104.894 118.418 105.491C119.381 106.088 118.658 107.877 119.622 107.877C120.344 107.877 119.381 102.507 120.585 102.507C120.585 102.507 120.585 106.087 121.789 106.982C121.789 106.982 120.346 98.9277 122.513 92.366C122.513 92.366 122.031 101.911 122.752 105.789C122.752 105.789 123.959 102.209 125.644 103.7C127.087 104.894 125.644 107.578 126.365 107.877C127.329 108.175 128.775 106.386 129.257 105.789C129.978 105.191 130.7 104.894 131.182 105.789C131.907 107.877 130.219 107.28 130.461 108.475C130.943 109.668 131.665 109.07 132.628 109.668C134.074 110.563 130.219 111.457 131.907 112.65C133.11 113.843 135.759 114.141 137.926 113.843C137.926 113.843 142.022 115.932 143.467 117.125C143.226 116.23 142.504 115.632 142.504 114.441C144.189 115.334 144.911 116.827 145.154 118.616C145.393 118.616 145.875 118.616 146.117 117.721C146.356 116.23 145.635 115.036 146.599 114.141C147.321 113.545 148.285 113.545 149.006 113.545C146.838 111.756 138.647 105.492 137.444 104.895V104.895ZM96.0161 74.7662C95.535 75.3621 95.0527 75.0642 93.3664 75.6615C93.607 75.0642 95.0527 73.871 95.7743 73.871C96.0161 74.1704 96.0161 74.4683 96.0161 74.7662V74.7662ZM98.1847 76.5568V77.75C97.2213 77.1526 96.4984 75.6615 96.739 74.4683C97.4619 74.7662 98.1847 75.6615 98.1847 76.5568ZM97.2213 80.1363C96.9808 79.241 96.0161 78.9431 96.0161 78.0479C96.0161 77.75 96.2567 77.1526 96.2567 76.8547C97.2213 77.1541 97.9429 79.241 97.2213 80.1363V80.1363ZM96.2567 80.1363C96.4972 81.0316 96.0161 82.5227 95.7743 82.8221C95.7743 82.2247 94.5704 81.0316 95.292 79.8384L95.5338 78.9431C96.0161 79.241 96.2567 79.8384 96.2567 80.1363V80.1363ZM94.5716 78.9431C94.0893 79.5389 93.6082 80.4342 92.8853 80.4342C92.403 80.4342 91.1991 80.4342 90.9585 80.1363C91.6814 80.1363 92.6436 79.241 93.1259 79.241L94.5716 78.9431V78.9431ZM94.0893 83.7158C93.607 84.909 93.3664 84.909 92.403 85.2069C93.607 84.0137 92.8853 81.6274 94.3298 81.3295C94.5716 81.9268 94.5716 83.1185 94.0893 83.7158ZM83.0107 76.8547C82.5284 78.3458 82.7702 78.6452 83.4918 79.539C83.2512 77.452 84.9375 76.8547 84.2147 75.0642C83.7323 75.3636 83.0107 76.2589 83.0107 76.8547V76.8547ZM92.6436 81.6274C92.6436 81.9253 91.4396 82.5227 91.1991 82.5227C90.4762 82.8221 89.0305 82.8221 89.0305 82.5227C90.9585 81.9268 90.2357 80.7337 92.6436 81.6274ZM95.535 76.2589C95.535 76.8562 94.5716 77.452 94.0893 77.7515C93.607 78.0494 92.1625 78.6468 92.1625 78.0494C94.0893 77.1541 92.8853 75.9594 95.535 76.2589V76.2589ZM83.7323 73.5746C83.4918 73.2767 82.5284 73.8725 82.0473 74.172C81.565 74.4699 80.361 75.663 80.6016 76.2589C82.5284 74.7662 82.5284 76.2589 83.7323 73.5746V73.5746ZM87.3454 68.2045C88.3088 68.504 88.7912 69.3977 89.2722 69.3977C89.9951 69.3977 90.2357 69.0998 90.2357 68.8004C89.9951 67.9066 88.3088 67.9066 87.3454 68.2045ZM91.4409 73.2752C91.4409 72.082 91.6814 71.4846 91.6814 70.5909C91.4409 69.9935 91.2003 69.6956 90.9585 69.6956C90.2357 70.293 90.718 72.3799 91.4409 73.2752V73.2752ZM87.3454 69.0998C86.6226 68.8019 85.1781 69.3977 84.9375 69.9951C85.9009 69.6972 86.3833 71.1882 87.5872 70.5924L88.3101 69.9951C88.0683 69.6956 87.586 69.3977 87.3454 69.0998ZM88.7899 71.4862C88.5494 72.3814 89.0305 73.8725 89.2722 74.4683C89.2722 73.2752 90.2357 72.6778 89.7546 71.1867L89.514 70.2914C89.0317 70.5909 88.7899 70.8888 88.7899 71.4862V71.4862ZM91.6802 84.909C91.1991 85.5048 89.7533 85.8043 89.2722 85.8043C89.9951 85.2069 89.9951 83.7158 91.1991 83.7158L92.1625 83.4179C92.1625 84.0137 91.9219 84.6111 91.6802 84.909V84.909ZM84.2134 70.8888C83.0095 71.4862 83.0095 71.7841 82.7689 72.9772C83.7311 71.4862 85.4174 72.9772 85.8997 71.4862C85.6592 70.8888 84.6957 70.8888 84.2134 70.8888ZM86.6226 73.8725C86.6226 75.0657 87.1036 75.3636 87.586 75.9594C87.1036 74.1704 88.5494 72.6778 87.3454 71.4846C86.8631 72.082 86.6226 72.9772 86.6226 73.8725ZM85.8997 74.7662C86.382 75.6615 86.1415 76.2573 85.8997 78.0479C85.1768 77.1526 85.1768 75.3621 85.1768 73.5731C85.6591 73.5746 85.8997 74.1704 85.8997 74.7662Z" fill="white" stroke="#2D67A0" stroke-width="0.103758" stroke-miterlimit="2.613"/>
<path fill-rule="evenodd" clip-rule="evenodd" d="M125.16 65.5203C122.993 64.6251 123.714 61.6429 123.475 59.5544C123.475 59.2565 122.993 58.9571 122.751 59.2565C122.029 59.2565 121.308 60.4482 120.825 59.5544C121.065 59.5544 121.547 59.5544 121.786 59.2565C122.028 58.9586 122.269 58.6592 122.269 58.0634C122.029 57.7654 121.786 57.7654 121.547 57.7654C121.547 58.0634 121.308 58.0634 121.308 58.3628C120.584 58.3628 120.103 57.4675 119.138 57.7654C118.657 57.7654 118.415 57.1696 118.175 56.8702C117.934 55.677 116.729 54.7817 116.006 53.8865C115.525 54.7817 115.284 55.3791 115.284 56.2728C115.284 56.8702 116.246 56.5707 116.488 56.8702C117.211 57.1681 116.006 57.7654 116.006 58.0634C115.765 58.0634 115.765 57.7654 116.006 57.4675C116.246 57.1696 115.765 57.1696 115.525 56.8702C115.525 58.0634 115.043 58.9586 115.043 59.8524L115.765 60.1503C116.006 60.4482 115.765 60.7476 115.765 61.0455C116.006 61.3434 116.246 61.3434 116.246 61.3434H116.487C116.487 61.6413 116.246 61.6413 116.246 61.6413H116.006C116.006 61.9393 116.006 62.2387 116.488 62.2387C116.729 62.5366 116.248 63.4319 116.729 63.7298C118.415 63.7298 119.379 62.2387 120.582 61.0455C120.343 61.9408 119.379 62.5366 119.137 63.4319C118.896 64.3256 119.137 65.5188 118.656 66.4141C118.415 67.6072 116.969 67.0099 116.729 68.203C116.729 69.3962 116.246 70.8888 117.211 71.7841C118.657 71.7841 119.861 71.4862 121.065 70.5909C122.993 69.6957 124.439 67.3093 126.124 65.8182C125.643 65.8182 125.401 65.8182 125.16 65.5203V65.5203Z" fill="white"/>
<path d="M125.16 65.5203C122.993 64.6251 123.714 61.6429 123.475 59.5544C123.475 59.2565 122.993 58.9571 122.751 59.2565C122.029 59.2565 121.308 60.4482 120.825 59.5544C121.065 59.5544 121.547 59.5544 121.786 59.2565C122.028 58.9586 122.269 58.6592 122.269 58.0634C122.029 57.7654 121.547 57.7654 121.547 57.7654C121.547 58.0634 121.308 58.3628 121.308 58.3628C120.584 58.3628 120.103 57.4675 119.138 57.7654C118.657 57.7654 118.415 57.1696 118.175 56.8702C117.934 55.677 116.729 54.7817 116.006 53.8865C115.525 54.7817 115.284 55.3791 115.284 56.2728C115.284 56.8702 116.246 56.5707 116.488 56.8702C117.211 57.1681 116.006 57.7654 116.006 58.0634C115.765 58.0634 115.765 57.7654 116.006 57.4675C116.246 57.1696 115.765 57.1696 115.525 56.8702C115.525 58.0634 115.043 58.9586 115.043 59.8524L115.765 60.1503C116.006 60.4482 115.765 60.7476 115.765 61.0455L116.246 61.3434H116.487L116.246 61.6413H116.006C116.006 61.6413 116.006 62.2387 116.488 62.2387C116.729 62.5366 116.248 63.4319 116.729 63.7298C118.415 63.7298 119.379 62.2387 120.582 61.0455C120.343 61.9408 119.379 62.5366 119.137 63.4319C118.896 64.3256 119.137 65.5188 118.656 66.4141C118.415 67.6072 116.969 67.0099 116.729 68.203C116.729 69.3962 116.246 70.8888 117.211 71.7841C118.657 71.7841 119.861 71.4862 121.065 70.5909C122.993 69.6957 124.439 67.3093 126.124 65.8182C125.643 65.8182 125.401 65.8182 125.16 65.5203V65.5203Z" stroke="#2D67A0" stroke-width="0.103758" stroke-miterlimit="2.613"/>
<path fill-rule="evenodd" clip-rule="evenodd" d="M136.001 167.539C130.46 169.927 124.918 173.207 120.103 177.682C115.286 173.207 109.986 169.926 104.446 167.241C83.4918 159.485 71.9296 135.621 72.8943 117.126V109.37L73.8577 101.316L75.7845 86.6995L76.2668 81.6273C76.5074 73.573 76.2668 64.625 71.6903 58.6575L75.7845 52.0943C75.7845 52.0943 74.5805 50.6032 73.8577 47.9189C71.6903 51.2006 69.0406 55.6754 67.1138 58.957C69.0406 61.0454 70.4864 63.4318 71.208 66.116C72.8943 71.784 72.8943 78.9431 72.1714 85.2069L70.7257 96.2449L69.7622 104.597C69.2799 109.967 69.0394 115.932 69.2799 121.302C69.7622 137.708 77.4695 160.974 100.11 169.926C107.095 173.207 114.08 176.785 120.101 183.35C124.439 178.576 129.254 175.594 134.311 172.906L140.333 170.222C164.659 160.081 171.885 135.322 171.643 116.827L171.404 108.773L170.682 101.911L168.754 86.3985C168.033 81.3279 168.033 75.6599 168.754 70.5893C168.993 68.7988 170.2 63.1323 174.052 59.5513C172.124 55.6738 173.813 58.0586 168.754 62.8329C168.754 62.8329 168.272 66.4124 165.383 69.0967C164.419 74.1688 164.176 81.03 165.141 86.3985L166.345 95.9439L167.308 103.7C167.791 109.07 168.033 114.738 167.791 120.405C167.553 135.621 160.083 158.889 136.001 167.539V167.539Z" fill="white" stroke="#2D67A0" stroke-width="0.0129698" stroke-miterlimit="2.613"/>
<path fill-rule="evenodd" clip-rule="evenodd" d="M26.4076 216.163V221.235C26.6481 221.833 26.6481 222.428 27.1305 222.428H28.0939V222.725H23.5174C23.5174 222.725 23.5174 222.428 23.7579 222.428H24.2402C24.4808 222.428 24.7213 221.831 24.7213 221.235C24.9619 220.339 24.9619 218.551 24.9619 216.163V206.616H22.0716C20.8677 206.616 20.6259 206.916 20.1448 207.214C20.1448 207.811 19.9043 207.811 19.9043 208.11C19.9043 208.11 19.9043 208.407 19.6637 208.407V208.11C19.6637 207.811 20.1461 206.023 20.1461 205.722V205.125C20.3866 205.125 20.6284 205.421 21.1095 205.421C21.5918 205.721 22.3134 205.721 22.5552 205.721H29.5396C30.503 205.721 30.9853 205.421 31.2259 205.421V208.405C30.9853 208.405 30.9853 208.405 30.9853 208.109V207.809C30.9853 207.212 30.503 206.616 28.8167 206.616H26.4088V216.163H26.4076V216.163ZM45.1947 216.163C45.1947 218.551 45.1947 220.339 45.4352 221.235C45.4352 221.833 45.4352 222.428 46.1581 222.428H46.881L47.1215 222.725H44.4718H42.3045C42.3045 222.725 42.3045 222.428 42.545 222.428H43.0273C43.5084 222.428 43.5084 221.831 43.5084 221.235C43.749 220.339 43.749 218.551 43.749 216.163V213.775H35.5606V216.163C35.5606 218.551 35.5606 220.339 35.8012 221.235C35.8012 221.833 35.8012 222.428 36.524 222.428H37.2469C37.4874 222.428 37.4874 222.725 37.4874 222.725H34.839H32.6716L32.9122 222.428H33.3932C33.8743 222.428 33.8743 221.831 34.1161 221.235V212.286V207.214C34.1161 206.616 33.8756 206.023 33.3932 206.023H32.6704L32.4298 205.724H37.0063C37.0063 205.724 37.0063 206.023 36.7658 206.023H36.2847C35.8024 206.023 35.8024 206.618 35.8024 207.214C35.5618 208.11 35.5618 208.708 35.5618 212.286V212.585C35.5618 212.882 35.8024 212.882 35.8024 212.882H43.5097C43.7502 212.882 43.7502 212.882 43.7502 212.585V212.286V207.214C43.5097 206.616 43.5097 206.023 42.7868 206.023H42.3057C42.0652 206.023 42.0652 205.724 42.0652 205.724H46.6417L46.4011 206.023H45.9188C45.4377 206.023 45.1959 206.618 45.1959 207.214V216.163H45.1947V216.163ZM50.7346 212.284V207.212C50.7346 206.615 50.4941 206.022 49.7712 206.022H49.2889C49.0483 206.022 49.0483 205.722 49.0483 205.722H55.7922C56.0328 205.722 56.2733 205.423 56.5151 205.423H56.7556V206.616C56.7556 206.916 56.5151 207.809 56.5151 208.11V208.407C56.2745 208.407 56.2745 208.407 56.2745 208.11V207.214C56.034 206.917 55.7935 206.616 54.8288 206.616H52.1804V212.882C52.1804 213.178 52.1804 213.178 52.4209 213.178H55.3111C55.7935 213.178 56.034 213.178 56.034 212.882C56.2745 212.585 56.2745 212.585 56.5151 212.585V212.882C56.5151 212.882 56.5151 213.178 56.2745 214.075V215.865H56.034V214.968C55.7935 214.672 55.7935 214.371 55.0706 214.075H52.1804V220.039C52.1804 221.83 52.6627 222.126 54.349 222.126C54.83 222.126 55.5529 222.126 56.0352 221.83C56.5163 221.53 56.7581 220.933 56.9986 220.039C56.9986 219.743 56.9986 219.743 57.2392 219.743V220.039C57.2392 220.335 56.9986 221.83 56.9986 222.427C56.9986 223.024 56.7569 223.024 56.0352 223.024C53.1438 223.024 51.9398 222.725 51.4587 222.725H49.2914C49.2914 222.725 49.2914 222.428 49.5319 222.428H50.0142C50.4966 222.428 50.4966 221.831 50.4966 221.235C50.7371 220.339 50.7371 218.551 50.7371 216.163V212.284H50.7346V212.284ZM66.872 212.284V207.212C66.872 206.615 66.6315 206.022 65.9086 206.022H65.4276L65.1858 205.722H69.7623C69.7623 205.722 69.7623 206.022 69.5217 206.022H69.2812C68.5583 206.022 68.5583 206.616 68.5583 207.212V215.268C68.5583 218.55 69.0406 220.039 69.7623 220.933C70.7257 222.126 71.6891 222.427 72.6525 222.427C73.8565 222.427 74.8211 221.53 75.5427 220.636C76.2656 219.443 76.5061 217.355 76.5061 214.968V212.284V207.212C76.5061 206.615 76.2656 206.022 75.7833 206.022H75.0604V205.722H79.1558L78.9153 206.022H78.433C77.9519 206.022 77.7101 206.616 77.7101 207.212V214.672C77.7101 217.057 77.4696 219.744 76.0251 221.532C74.8211 223.026 73.3754 223.026 72.1714 223.026C71.6891 223.026 69.7623 223.026 68.5583 221.532C67.5949 220.339 66.872 218.847 66.872 215.566V212.284V212.284ZM83.7323 219.744C83.7323 221.532 83.9729 222.129 84.4552 222.428H85.4186V222.725H81.0839C81.0839 222.428 81.3244 222.428 81.3244 222.428H82.0473C82.5296 222.129 82.5296 221.532 82.5296 219.445V206.32C82.5296 205.423 82.7702 205.127 82.7702 205.127C83.0107 205.127 83.2512 205.724 83.493 206.023C83.7336 206.32 86.3833 210.199 89.2735 213.777C91.2003 216.165 93.1271 219.148 93.85 219.746L93.6095 208.112C93.6095 206.618 93.3689 206.321 92.8866 206.025H91.9232L91.6826 205.726H96.0186L95.7781 206.025H95.2957C94.8147 206.025 94.5741 206.619 94.5741 208.112V221.533C94.5741 223.027 94.5741 223.027 94.3323 223.027L93.1284 221.533C92.8878 221.237 90.2381 217.955 88.3113 215.271C86.144 212.587 83.9754 209.603 83.4943 208.709L83.7323 219.744V219.744ZM101.797 216.163C101.797 218.551 101.797 220.339 102.037 221.235C102.037 221.833 102.037 222.428 102.76 222.428H103.483L103.723 222.725H101.074H98.9063C98.9063 222.725 98.9063 222.428 99.1469 222.428H99.6292C100.112 222.428 100.112 221.831 100.112 221.235C100.352 220.339 100.352 218.551 100.352 216.163V212.286V207.214C100.112 206.616 100.112 206.023 99.6292 206.023H99.1469C98.9063 206.023 98.9063 205.724 98.9063 205.724H103.242L103.001 206.023H102.519C102.037 206.023 102.037 206.618 101.797 207.214V216.163ZM112.394 220.041C113.358 217.057 116.007 209.003 116.248 207.513C116.488 206.916 116.488 206.616 116.488 206.616C116.488 206.32 116.488 206.022 116.248 206.022H115.525C115.525 206.022 115.284 206.022 115.284 205.722H119.378L119.138 206.022C118.897 206.022 118.657 206.022 118.175 206.318C117.934 206.318 117.692 206.916 117.211 208.405C116.971 209.003 116.006 211.687 115.043 214.371C114.079 217.952 113.116 220.337 112.874 221.53C112.152 222.723 112.152 223.024 111.912 223.024C111.671 223.024 111.671 222.725 111.429 221.831L106.853 207.809C106.371 206.616 106.13 206.318 105.407 206.022H104.684V205.722H109.501C109.501 205.722 109.501 206.022 109.261 206.022H108.538C108.296 206.022 108.297 206.318 108.297 206.616C108.297 206.916 108.538 207.513 108.78 208.407L112.394 220.041V220.041ZM122.029 212.284V207.212C122.029 206.615 121.788 206.022 121.308 206.022H120.584V205.722H127.086C127.328 205.722 127.81 205.423 127.81 205.423H128.049C128.291 205.423 128.291 205.423 128.291 205.722C128.291 205.722 128.049 206.022 128.049 206.616V208.11C128.049 208.407 127.81 208.407 127.81 208.407C127.81 208.407 127.568 208.407 127.568 208.11V207.214C127.329 206.917 127.329 206.616 126.364 206.616H123.714V213.178H126.606C127.086 213.178 127.328 213.178 127.567 212.882C127.567 212.585 127.809 212.585 127.809 212.585V214.075C127.809 214.371 127.567 215.268 127.567 215.566V215.865H127.328V214.968C127.328 214.672 127.086 214.371 126.364 214.075H123.714V220.039C123.714 221.83 123.956 222.126 125.643 222.126C126.125 222.126 127.086 222.126 127.568 221.83C128.05 221.53 128.292 220.933 128.292 220.039C128.292 219.743 128.532 219.743 128.532 219.743V220.039C128.532 220.335 128.532 221.83 128.292 222.427C128.292 223.024 128.05 223.024 127.329 223.024C124.679 223.024 123.476 222.725 122.752 222.725H120.828V222.428H121.55C121.789 222.428 122.032 221.831 122.032 221.235V212.284H122.029V212.284ZM134.312 206.616C134.312 206.616 134.554 206.616 134.554 206.32H135.758C137.686 206.32 138.888 208.11 138.888 210.795C138.888 212.585 138.406 213.775 137.925 214.373C137.443 214.672 136.962 214.97 136.479 214.97C135.758 214.97 134.794 214.674 134.554 214.373C134.554 214.373 134.312 214.373 134.312 214.076V206.616V206.616ZM132.869 216.163V221.235C132.869 221.833 132.627 222.428 132.386 222.428H131.662V222.725H136.238C136.238 222.725 136.238 222.428 135.998 222.428H135.274C134.792 222.428 134.553 221.831 134.553 221.235C134.311 220.339 134.311 218.551 134.311 216.163V215.566H136.959C137.442 216.163 138.405 217.653 139.127 219.147C140.09 220.638 140.814 221.831 141.536 222.428C142.018 222.725 142.499 222.725 143.464 222.725H145.389L145.15 222.428H144.428C143.946 222.428 143.222 222.129 142.259 220.934C141.055 219.443 139.852 217.356 138.406 214.968C139.852 213.178 140.574 211.39 140.574 209.6C140.574 208.109 139.61 206.916 139.37 206.616C138.406 205.722 136.96 205.722 135.998 205.722H131.422V206.022H132.143C132.626 206.022 132.867 206.616 132.867 207.212V216.163H132.869V216.163ZM146.116 222.428C145.874 222.428 145.874 222.428 145.874 221.831C145.874 220.638 146.116 219.744 146.116 219.147V218.847C146.355 218.847 146.355 218.847 146.355 219.147V220.041C146.597 221.831 147.801 222.428 149.005 222.428C150.933 222.428 151.655 220.638 151.655 219.147C151.655 217.653 151.172 216.759 149.487 215.269L148.766 214.373C146.838 212.286 146.356 210.795 146.356 209.3C146.356 206.916 147.802 205.125 150.211 205.125C150.933 205.125 151.415 205.421 151.896 205.421C152.379 205.721 152.379 205.721 152.618 205.721V208.706C152.379 208.706 152.379 208.706 152.379 208.407C152.379 208.11 152.379 207.513 152.137 207.214C152.137 206.917 151.655 206.023 149.73 206.023C148.524 206.023 147.56 206.917 147.56 208.708C147.56 209.898 148.043 210.795 149.73 212.585L150.452 213.179C152.619 215.269 153.102 216.464 153.102 218.551C153.102 219.445 152.619 221.235 151.417 222.129C150.692 223.026 149.731 223.026 148.767 223.026C147.802 223.026 147.079 223.024 146.116 222.428V222.428ZM159.123 216.163V221.235C159.123 221.833 159.362 222.428 159.844 222.428H160.808V222.725H156.231V222.428H156.953C157.195 222.428 157.435 221.831 157.435 221.235V212.286V207.214C157.435 206.616 157.196 206.023 156.953 206.023H156.231V205.724H160.325V206.023H159.843C159.361 206.023 159.121 206.618 159.121 207.214V216.163H159.123ZM169.238 216.163V221.235C169.238 221.833 169.477 222.428 169.959 222.428H170.923V222.725H166.346V222.428H167.07C167.31 222.428 167.553 221.831 167.553 221.235V206.616H164.903C163.697 206.616 163.215 206.916 162.975 207.214C162.733 207.811 162.733 207.811 162.733 208.11C162.733 208.11 162.733 208.407 162.494 208.407V208.11C162.494 207.811 162.733 206.023 162.976 205.722V205.125C163.216 205.125 163.459 205.421 163.94 205.421C164.422 205.721 165.144 205.721 165.385 205.721H172.128C173.334 205.721 173.815 205.421 174.056 205.421V208.405C173.817 208.405 173.817 208.405 173.817 208.109V207.809C173.817 207.212 173.334 206.616 171.408 206.616H169.24V216.163H169.238V216.163ZM180.799 217.057C180.799 215.566 180.557 215.269 180.316 214.672C180.316 214.075 177.907 209.004 177.186 208.11C176.835 207.464 176.432 206.863 175.982 206.32C175.74 206.023 175.258 206.023 175.018 206.023V205.724H178.869C178.869 205.724 178.63 205.724 178.387 206.023L178.148 206.32C178.148 206.616 178.387 206.917 178.387 207.214C178.869 207.811 181.518 213.775 182 214.373C182.242 213.479 184.65 208.407 184.892 207.811C185.131 207.214 185.374 206.917 185.374 206.618C185.374 206.321 185.132 206.023 184.892 206.023L184.65 205.724H188.263L188.024 206.023C187.782 206.023 187.541 206.023 187.06 206.32C186.818 206.616 186.578 206.917 186.097 207.513C185.614 208.407 182.966 213.775 182.725 214.672C182.484 215.566 182.484 216.163 182.484 217.057V221.235C182.484 221.833 182.725 222.428 183.205 222.428H183.929C184.169 222.428 184.169 222.725 184.169 222.725H181.52H179.596V222.428H180.076C180.558 222.428 180.8 221.831 180.8 221.235V217.057H180.799V217.057ZM196.455 213.479C196.455 208.708 198.862 206.023 201.753 206.023C204.642 206.023 207.534 209.004 207.534 214.374C207.534 221.237 203.921 222.43 202.475 222.43C199.105 222.428 196.455 218.847 196.455 213.479ZM194.767 214.075C194.767 218.25 196.937 223.024 201.754 223.024C206.328 223.024 209.22 218.846 209.22 213.775C209.22 208.407 206.089 205.125 201.994 205.125C196.937 205.125 194.767 210.494 194.767 214.075V214.075ZM212.833 212.284V207.212C212.591 206.615 212.591 206.022 211.87 206.022H211.387C211.148 206.022 211.148 205.722 211.148 205.722H218.131C218.37 205.722 218.613 205.722 218.853 205.423H219.095C219.095 205.423 219.334 205.423 219.334 205.722C219.334 205.722 219.095 206.022 219.095 206.616V208.11C219.095 208.407 218.853 208.407 218.853 208.407C218.853 208.407 218.613 208.407 218.613 208.11V207.214C218.372 206.917 218.131 206.616 217.409 206.616H214.279V213.178H217.649C218.131 213.178 218.37 213.178 218.37 212.882L218.612 212.585C218.852 212.585 218.851 212.585 218.851 212.882C218.851 212.882 218.612 213.178 218.612 214.075V215.566C218.612 215.865 218.612 215.865 218.37 215.865C218.37 215.566 218.131 215.268 218.131 214.968C218.131 214.672 217.892 214.371 217.168 214.075H214.518C214.279 214.075 214.279 214.075 214.279 214.371V221.234C214.518 221.831 214.518 222.427 215 222.427H215.964L216.203 222.723H213.553H211.386C211.386 222.723 211.386 222.427 211.628 222.427H212.108C212.59 222.427 212.59 221.83 212.59 221.234C212.832 220.337 212.832 218.55 212.832 216.162V212.284H212.833V212.284ZM45.4365 261.206C45.4365 262.399 45.677 264.488 46.8822 265.083C47.8456 265.383 48.5685 265.383 48.809 265.383H49.0496C49.0496 265.679 48.809 265.98 48.3267 265.98C47.8444 265.98 44.7136 265.681 43.5097 265.681C43.0286 265.681 42.7868 265.384 42.7868 265.384C42.7868 265.085 42.7868 265.085 43.0286 265.085V263.594L41.5828 245.397L34.5984 263.89C33.8756 265.384 33.8756 265.681 33.635 265.681C33.3945 265.681 33.1539 265.384 32.6716 264.19C31.9488 262.399 29.5408 256.134 29.2991 255.837C29.0585 255.24 25.686 246.591 25.4454 245.695L24.2415 262.104V264.191C24.2415 264.488 24.482 265.085 24.9643 265.085C25.4454 265.384 25.9277 265.384 25.9277 265.384H26.1683C26.1683 265.681 26.1683 265.982 25.686 265.982C24.7226 265.982 23.2781 265.682 23.0363 265.682C22.7945 265.682 21.35 265.982 20.6284 265.982C20.5034 265.971 20.3858 265.904 20.2973 265.795C20.2087 265.685 20.155 265.539 20.1461 265.384H21.35C22.3134 265.085 22.3134 263.594 22.5552 262.401L24.482 238.835C24.482 238.536 24.7226 238.238 24.9643 238.238C24.9643 238.238 25.2049 238.534 25.2049 238.835L34.1161 261.206L42.5463 238.835C42.7868 238.536 42.7868 238.238 43.0286 238.238C43.2691 238.238 43.2691 238.534 43.5097 239.131L45.4365 261.206ZM53.6249 249.274V241.518C53.3843 240.325 53.1425 239.727 52.4209 239.431H51.2169L50.9764 239.131C50.9764 238.835 51.2169 238.835 51.4575 238.835H61.3334C62.0562 238.835 62.5373 238.835 62.7791 238.536H63.0196C63.2614 238.536 63.2614 238.536 63.2614 238.835C63.2614 239.131 63.0196 239.432 63.0196 240.626C63.0196 240.922 62.7791 242.413 62.7791 243.01C62.7791 243.01 62.7791 243.31 62.5386 243.31C62.5386 243.31 62.298 243.01 62.298 242.712V241.519C62.0575 240.922 61.8157 240.626 60.1294 240.326H56.2758C56.0352 240.326 56.0352 240.326 56.0352 240.626V250.469C56.0352 250.765 56.0352 250.765 56.2758 250.765H60.8523C61.5752 250.765 61.8157 250.469 62.0575 250.168C62.298 249.872 62.5386 249.872 62.5386 249.872C62.7791 249.872 62.7791 249.872 62.7791 250.168C62.7791 250.168 62.5386 250.765 62.5386 251.958C62.5386 252.852 62.298 254.045 62.298 254.346V254.944C62.0575 254.944 62.0575 254.944 62.0575 254.644C62.0575 254.348 62.0575 254.047 61.8169 253.451C61.8169 252.854 61.5764 252.258 60.3712 252.258C59.6483 252.258 56.7581 251.962 56.2758 251.962C56.0352 251.962 56.0352 252.258 56.0352 252.258V261.508C56.0352 264.193 56.5163 264.489 59.4065 264.489C60.1294 264.489 61.3334 264.489 62.0562 264.193C63.0184 263.595 63.2602 263 63.5007 261.508C63.5007 261.209 63.5007 260.911 63.7425 260.911C63.9831 260.911 63.9831 261.208 63.9831 261.508C63.9831 261.805 63.7425 264.193 63.5007 265.086C63.2602 265.983 63.0184 265.983 62.0562 265.983C57.4797 265.983 55.5529 265.684 54.83 265.684C54.5895 265.684 52.9032 265.983 51.9398 265.983C51.6993 265.983 51.4575 265.684 51.4575 265.684C51.4575 265.387 51.6993 265.387 51.6993 265.387C51.9398 265.387 52.4221 265.387 52.6627 265.088C53.1438 265.088 53.3855 264.194 53.3855 263.298C53.6261 261.806 53.6261 258.826 53.6261 255.544V249.274H53.6249V249.274ZM73.6172 255.54C73.6172 260.908 73.8577 262.995 74.34 263.592C74.8223 264.19 75.544 264.486 77.7113 264.486C79.3976 264.486 80.6016 264.486 81.3244 263.592C81.565 262.995 82.0473 262.101 82.0473 261.204C82.0473 260.908 82.0473 260.908 82.2878 260.908C82.5296 260.908 82.5296 260.908 82.5296 261.505C82.5296 261.802 82.2878 263.89 82.0473 265.083C81.8068 265.681 81.8068 265.98 80.1205 265.98C76.0263 265.98 74.0995 265.681 72.4132 265.681C72.1727 265.681 70.4864 265.98 69.523 265.98C69.2824 265.98 69.0419 265.681 69.0419 265.681C69.0419 265.384 69.2824 265.384 69.2824 265.384C69.7648 265.384 70.0053 265.384 70.2458 265.085C70.7282 265.085 70.9687 264.191 71.2092 263.294V249.276V241.519C71.2092 240.325 70.9687 239.729 70.0053 239.432H69.0419C68.8013 239.432 68.8013 239.133 68.8013 239.133C68.8013 238.837 68.8013 238.837 69.2824 238.837H75.544C75.7845 238.837 76.0263 238.837 76.0263 239.133C76.0263 239.133 76.0263 239.432 75.7858 239.432H74.8223C74.0995 239.432 73.8589 240.326 73.6184 241.519V255.54H73.6172ZM90.718 240.325C90.718 240.028 90.718 240.028 90.9585 240.028C91.4409 239.729 92.1625 239.729 92.4043 239.729C95.2945 239.729 96.2579 243.01 96.2579 245.994C96.2579 247.485 95.7756 248.678 95.2945 249.572C94.5729 250.469 94.3311 250.469 92.6448 250.469H90.9598C90.7192 250.169 90.7192 250.169 90.7192 249.872V240.325H90.718V240.325ZM88.3088 255.54V263.293C88.0683 264.19 87.8265 265.083 87.3454 265.083C87.1049 265.383 86.8631 265.383 86.382 265.383V265.679C86.382 265.679 86.382 265.979 86.6226 265.979C87.586 265.979 89.5128 265.679 89.5128 265.679C89.7533 265.679 92.6436 265.979 93.3664 265.979C98.424 265.979 100.833 262.101 100.833 258.222C100.833 254.044 97.9417 251.36 95.7743 250.466C97.2201 248.972 98.424 247.184 98.424 244.201C98.424 242.41 97.4606 238.832 92.6436 238.832H89.5128H86.382C85.8997 238.832 85.8997 238.832 85.8997 239.128C85.8997 239.128 85.8997 239.428 86.1415 239.428H87.1037C88.0671 239.724 88.3088 240.322 88.3088 241.515V255.54V255.54ZM90.718 251.662V251.363C91.2003 251.363 92.6448 251.363 93.1259 251.662C93.8488 251.662 94.5716 251.662 95.535 252.556C97.7024 254.346 98.1847 257.628 98.1847 259.715C98.1847 263.89 95.7756 264.787 94.3311 264.787C93.6082 264.787 92.4043 264.787 91.6814 264.19C90.718 263.592 90.718 263.293 90.718 261.505V251.662V251.662ZM108.3 251.363C108.3 243.31 111.913 239.431 116.73 239.431C121.308 239.431 125.401 244.202 125.401 252.852C125.401 262.995 120.103 265.083 117.453 265.083C112.155 265.083 108.3 259.715 108.3 251.363ZM105.41 252.256C105.41 258.821 108.782 266.278 116.73 266.278C123.714 266.278 128.292 259.716 128.292 251.662C128.292 243.31 123.475 238.238 116.972 238.238C108.782 238.238 105.41 246.59 105.41 252.256ZM134.073 249.274V241.518C134.073 240.323 133.831 239.727 132.869 239.431H131.905C131.664 239.431 131.664 239.131 131.664 239.131C131.664 238.835 131.664 238.835 132.146 238.835H138.168C138.648 238.835 138.648 238.835 138.648 239.131C138.648 239.131 138.648 239.431 138.409 239.431H137.687C136.963 239.431 136.724 240.325 136.724 241.518V254.045C136.724 259.414 137.445 261.504 138.891 262.995C140.337 264.786 141.541 265.082 143.226 265.082C144.911 265.082 146.599 263.889 147.802 262.398C149.006 260.311 149.487 257.325 149.487 253.747V249.273C149.487 243.605 149.487 242.711 149.248 241.516C149.248 240.323 149.006 239.726 148.041 239.429H147.081L146.839 239.13C146.839 238.834 147.081 238.834 147.321 238.834H152.861C153.1 238.834 153.343 238.834 153.343 239.13L153.102 239.429H152.38C151.656 239.429 151.417 240.323 151.173 241.516V252.851C151.173 256.728 150.934 261.203 148.524 263.591C146.356 265.979 144.189 266.275 142.504 266.275C141.541 266.275 138.649 266.275 136.724 263.887C135.278 262.1 134.074 259.712 134.074 254.343V249.274H134.073V249.274ZM161.529 240.624C161.529 240.325 161.529 240.325 161.771 240.027H163.697C166.827 240.027 168.755 242.711 168.755 247.186C168.755 249.87 168.034 251.661 166.827 252.554C166.345 253.152 165.384 253.152 164.66 253.152C163.456 253.152 162.253 253.152 161.771 252.852C161.529 252.556 161.529 252.556 161.529 252.255V240.624ZM159.123 255.54V263.293C158.881 264.19 158.881 265.083 158.159 265.083C157.917 265.383 157.677 265.383 157.435 265.383C157.196 265.383 157.196 265.383 157.196 265.679C157.196 265.679 157.196 265.979 157.678 265.979C158.4 265.979 160.328 265.679 160.328 265.679C160.567 265.679 162.256 265.979 163.941 265.979C164.18 265.979 164.423 265.679 164.423 265.679C164.423 265.383 164.181 265.383 164.181 265.383C163.942 265.383 163.218 265.383 162.736 265.083C162.014 265.083 161.775 264.19 161.775 263.293C161.533 261.802 161.533 258.821 161.533 255.54V254.643C161.533 254.346 161.533 254.346 161.775 254.346H165.388C165.388 254.346 165.627 254.346 165.627 254.643C166.349 255.54 167.555 257.924 168.758 260.011C170.443 262.699 171.408 264.486 172.61 265.083C173.574 265.681 174.298 265.98 175.741 265.98H177.908C178.391 265.98 178.633 265.681 178.633 265.681C178.633 265.384 178.391 265.384 178.391 265.384H177.187C176.465 265.085 175.259 264.787 173.574 262.7C171.889 260.312 169.961 257.329 167.554 253.451C170.204 250.47 171.167 247.786 171.167 245.099C171.167 242.714 169.961 240.924 169.239 240.328C167.554 239.135 165.626 238.837 163.941 238.837H160.328H157.197C156.955 238.837 156.715 238.837 156.715 239.133C156.715 239.133 156.715 239.432 156.954 239.432H157.917C158.881 239.729 159.124 240.326 159.124 241.519V255.54H159.123ZM183.448 260.908C183.688 263.889 183.931 264.786 184.652 265.083C185.135 265.383 185.859 265.383 186.098 265.383C186.337 265.383 186.337 265.383 186.337 265.679C186.337 265.679 186.098 265.979 185.857 265.979C184.17 265.979 182.966 265.679 182.727 265.679C182.485 265.679 181.281 265.979 180.075 265.979C179.595 265.979 179.595 265.679 179.595 265.679C179.595 265.383 179.595 265.383 179.834 265.383C180.073 265.383 180.556 265.383 180.797 265.083C181.519 264.787 181.761 263.89 181.761 260.609V240.028C181.761 238.534 182 238.238 182 238.238C182.242 238.238 182.724 239.131 183.204 239.431C183.686 240.028 187.781 245.693 192.358 251.662C195.247 255.54 198.378 260.013 199.343 260.908L198.86 243.009C198.86 240.624 198.621 239.727 197.897 239.431H196.454C196.212 239.431 196.212 239.131 196.212 239.131C196.212 238.835 196.454 238.835 196.694 238.835H202.234C202.474 238.835 202.714 238.835 202.714 239.131C202.714 239.131 202.714 239.431 202.475 239.431H201.753C200.79 239.727 200.547 240.325 200.547 242.712V263.594C200.547 265.982 200.547 265.982 200.307 265.982C200.068 265.982 199.825 265.682 198.14 263.892C195.636 260.629 193.147 257.348 190.675 254.048C187.301 249.574 184.17 245.099 183.207 243.907L183.448 260.908V260.908ZM208.256 249.274V241.518C208.256 240.323 208.017 239.727 207.053 239.431H206.089C205.847 239.431 205.847 239.131 205.847 239.131C205.847 238.835 206.089 238.835 206.33 238.835H216.204C216.687 238.835 217.168 238.835 217.411 238.536H217.893V238.835C217.893 239.131 217.893 239.432 217.651 240.626V243.01L217.412 243.31C217.17 243.31 217.17 243.01 217.17 242.712C217.17 242.413 217.17 241.819 216.931 241.519C216.689 240.922 216.449 240.626 215.003 240.326H210.907V250.765H215.484C216.206 250.765 216.688 250.469 216.93 250.168C217.169 249.872 217.169 249.872 217.412 249.872V250.168C217.412 250.168 217.412 250.765 217.17 251.958V254.346C217.17 254.643 217.17 254.944 216.931 254.944C216.689 254.944 216.689 254.944 216.689 254.644V253.451C216.45 252.854 216.207 252.258 215.243 252.258C214.282 252.258 211.391 251.962 210.909 251.962V255.543C210.909 256.733 210.669 260.911 210.909 261.508C210.909 264.193 211.391 264.489 214.039 264.489C215.003 264.489 216.207 264.489 216.931 264.193C217.653 263.595 218.135 263 218.135 261.508C218.374 261.209 218.374 260.911 218.374 260.911C218.616 260.911 218.616 261.208 218.616 261.508C218.616 261.805 218.374 264.193 218.374 265.086C218.135 265.983 217.894 265.983 216.689 265.983C212.354 265.983 210.426 265.684 209.463 265.684C209.463 265.684 207.537 265.983 206.813 265.983C206.331 265.983 206.331 265.684 206.331 265.684C206.331 265.387 206.331 265.387 206.573 265.387C206.812 265.387 207.055 265.387 207.294 265.088C208.018 265.088 208.018 264.194 208.258 263.298V249.274H208.256ZM139.853 171.417C132.388 165.154 122.029 162.467 112.394 164.557C107.335 165.747 103.001 168.135 98.6658 171.417C97.2201 172.314 95.535 173.805 94.0893 174.998L89.2723 178.875C81.0839 185.437 70.7257 188.719 60.3687 185.735C58.2001 185.137 55.7922 184.244 54.1059 181.857C53.6236 181.26 53.3831 180.366 53.3831 179.173L56.0328 163.364C53.1413 160.976 49.77 160.082 46.1569 159.783C44.4718 159.783 42.7843 159.783 41.3398 160.082C45.6758 155.308 46.8797 148.448 45.434 141.587C52.4184 141.587 58.9217 142.78 64.944 146.36C66.629 147.552 69.0382 149.642 69.0382 152.326V169.328C75.0592 169.328 79.8775 166.047 84.6933 162.169L90.2332 157.398C100.59 149.046 112.633 144.569 125.881 146.658C133.346 147.851 140.333 151.429 146.835 156.501L152.616 161.275L154.061 162.466C158.878 166.343 163.695 169.924 169.718 169.924V164.256L169.959 152.026C170.923 148.149 174.297 146.658 176.944 145.167C182.244 143.078 187.783 142.185 193.564 142.185C192.118 149.046 193.564 156.205 197.898 160.978C192.842 159.784 187.543 160.681 183.448 163.662C183.207 163.662 182.966 163.961 182.966 163.961L185.375 180.368C185.133 183.352 182.484 184.843 180.316 185.44C170.44 189.317 159.362 186.633 151.171 180.368L147.319 177.384L140.817 172.016L139.853 171.417V171.417Z" fill="white"/>
<path fill-rule="evenodd" clip-rule="evenodd" d="M141.057 171.12C132.627 164.559 122.029 161.573 111.432 163.961C105.651 165.452 100.593 168.436 95.7756 172.314L87.8278 178.576C80.6016 184.542 71.6903 187.229 62.5373 185.439C59.6471 184.841 56.9986 183.944 54.83 181.561C54.349 180.964 54.1072 180.664 54.1072 179.771L56.5151 165.154C59.1648 169.029 63.4995 169.926 67.5949 170.224C73.6159 170.523 78.6747 167.839 83.4918 164.258L92.1625 157.398C101.797 149.642 113.117 145.763 125.401 147.851C132.627 148.745 138.89 152.026 145.152 156.501L150.691 160.68L156.232 165.154C161.53 169.626 167.793 171.716 174.778 170.224C177.43 169.626 180.558 168.732 182.486 165.452L184.654 180.368C184.414 182.756 182.486 183.65 181.04 184.543C170.204 189.018 158.16 185.44 149.488 177.982L141.057 171.12V171.12Z" fill="white" stroke="#219653" stroke-width="3.63153" stroke-miterlimit="2.613"/>
<path fill-rule="evenodd" clip-rule="evenodd" d="M68.3178 169.33C64.2236 169.33 60.37 168.436 57.4798 165.154C56.9987 164.258 56.5164 163.364 56.9987 162.467C57.9608 159.783 60.6118 159.486 62.5373 158.59C64.7059 157.992 66.6315 157.399 68.3178 155.308V169.33ZM181.52 161.87C182.003 162.467 182.244 163.66 182.003 164.557C181.039 166.644 178.872 167.839 177.186 168.732C175.018 169.33 172.851 169.926 170.442 169.926V155.904C173.572 159.485 178.15 158.889 181.52 161.87V161.87Z" fill="white" stroke="white" stroke-width="3.63153" stroke-miterlimit="2.613"/>
<path fill-rule="evenodd" clip-rule="evenodd" d="M65.1858 147.552C66.6315 148.745 68.5583 150.239 68.3165 152.624C68.076 155.905 65.1858 156.802 63.0172 157.398C60.6092 158.588 57.2367 158.889 56.0327 162.467C52.4196 159.486 47.8431 158.59 43.0261 158.889C46.3974 154.414 47.3621 148.149 46.3974 142.483C53.1425 142.78 59.6458 143.674 65.1858 147.552V147.552ZM192.842 143.078C191.878 149.046 192.6 155.012 195.731 159.783C191.157 159.486 186.579 160.38 182.727 163.064C182.244 160.68 180.318 159.783 178.872 159.187C176.222 157.994 173.091 157.696 170.924 155.012C170.442 154.118 170.442 152.624 170.685 151.431C172.852 147.553 176.465 146.362 179.836 145.167C183.931 143.674 188.265 143.078 192.842 143.078V143.078Z" fill="white" stroke="#219653" stroke-width="3.63153" stroke-miterlimit="2.613"/>
<path fill-rule="evenodd" clip-rule="evenodd" d="M57.4785 180.663C57.719 180.663 57.719 180.366 57.9596 180.065L58.6824 173.206C58.6824 172.906 58.6824 172.906 58.4419 172.608L61.5727 172.905C63.0172 173.204 63.7413 174.695 63.4995 175.888C63.259 177.082 62.5361 178.276 60.8498 177.975L59.4041 177.679L59.1635 180.363C59.1635 180.66 59.1635 180.961 59.4041 180.961V181.257L57.4785 180.663ZM59.6458 176.191L60.8498 176.487C61.8132 176.784 62.055 176.487 62.2955 175.594C62.2955 174.697 62.055 174.4 61.0903 174.4L59.8852 174.101L59.6458 176.191V176.191ZM67.3544 173.805C69.2812 174.101 70.4851 175.891 70.2446 178.279C70.2446 180.664 69.0406 182.455 67.1138 182.455C65.187 182.455 63.9831 180.368 64.2236 177.98C64.2224 175.595 65.4276 173.805 67.3544 173.805ZM67.1126 181.26C68.3165 181.26 69.0394 180.067 69.0394 178.279C69.0394 176.489 68.5571 175.296 67.3531 175.296C66.1479 175.296 65.4263 176.192 65.4263 177.98C65.4276 180.067 65.9086 180.964 67.1126 181.26ZM72.6525 179.769H72.8931C72.8931 180.366 74.0982 180.663 74.5793 180.366C75.7833 180.067 76.2656 179.473 76.0251 178.576C75.7845 177.085 71.9296 179.173 71.4486 176.191C71.208 174.998 71.6891 173.803 73.3754 173.207H75.0604C75.301 173.207 75.5427 173.504 75.7833 173.207H76.0238L75.5415 175.294H75.301V174.998C75.301 174.698 74.5781 174.101 73.6159 174.4C72.8931 174.697 72.6525 175.294 72.6525 175.594C72.8931 177.381 76.7479 174.996 77.229 178.278C77.4696 179.471 76.7479 181.258 74.8211 181.559C74.3388 181.856 73.6172 181.856 73.3754 181.559H72.412V181.856H72.1714L72.6525 179.769V179.769ZM81.0839 179.173V178.877C81.3244 178.877 81.3244 178.577 81.0839 178.279L79.1571 172.611L77.7113 173.505C77.4708 173.505 77.2303 173.505 77.4708 173.805L77.2303 174.101L76.5074 172.313L76.7479 172.014C76.7479 172.313 76.9885 172.313 77.229 172.014L81.0827 169.927C81.5637 169.628 81.5637 169.628 81.5637 169.33L82.2866 171.12H82.0461C82.0461 170.821 81.8055 170.821 81.5637 171.12L80.118 172.014L82.2854 177.682C82.5272 177.978 82.5272 177.978 82.7677 177.978V178.278L81.0839 179.173V179.173ZM86.8631 173.805L89.2723 171.718C89.5128 171.418 89.7546 171.418 89.5128 171.12H89.7534L90.4762 172.611V172.908C90.2357 172.611 90.2357 172.611 89.9939 172.908L86.1415 175.891H85.8997C86.1415 175.595 86.1415 175.294 86.1415 175.294L83.0107 169.328C82.7702 169.029 82.7702 169.029 82.5284 169.029H82.2866L86.1415 166.048C86.382 165.749 86.382 165.749 86.382 165.451V165.154L87.3454 166.942H87.1037H86.6226L84.454 169.029L85.1768 170.523L86.6226 169.626C86.8631 169.33 86.8631 169.33 86.8631 169.029H87.1037L87.8265 170.523C87.586 170.523 87.586 170.523 87.3442 170.819L85.8985 171.716L86.8631 173.805V173.805ZM91.4409 171.716V171.417V170.819L88.3101 164.853C88.0696 164.853 88.0696 164.557 87.8278 164.853V164.557L90.4775 162.467C91.6814 161.573 92.6448 161.573 93.3677 162.767C93.85 163.96 93.85 164.853 93.1272 165.747L95.054 167.241C95.5363 167.538 95.7768 167.839 96.0174 167.538L96.2579 167.837L94.5729 169.027V168.731C94.5729 168.435 94.5729 168.435 94.3311 168.435L92.1637 166.94L91.2003 167.538L92.4043 169.926C92.6448 170.222 92.6448 170.222 92.8866 170.222L93.1272 170.521L91.4409 171.716V171.716ZM90.718 166.646L91.922 165.452C92.6448 165.156 92.6448 164.559 92.4043 163.961C91.922 163.364 91.6814 163.064 90.9585 163.662L89.7546 164.559L90.718 166.646ZM96.4985 167.539L96.2579 167.243C96.4985 167.243 96.4985 166.943 96.4985 166.943L95.5351 159.784V159.187H95.0527V158.891L96.9795 157.697V157.994C96.739 157.994 96.739 158.293 96.9795 158.293C96.9795 158.293 96.9795 158.59 97.2201 158.891L101.314 163.662C101.555 163.961 101.555 163.961 101.797 163.961L100.352 165.154V164.559L100.112 164.259L99.3887 163.365L97.2213 164.559L97.4619 166.05V166.346C97.4619 166.346 97.7024 166.646 97.943 166.346V166.646L96.4985 167.539V167.539ZM98.6658 162.467L96.4972 160.082L97.2201 163.364L98.6658 162.467ZM107.819 153.22L107.337 155.608V155.308C107.096 154.714 106.373 154.414 105.651 154.714C104.688 155.308 103.965 156.205 104.688 158.292C104.929 160.082 105.893 160.976 107.097 160.379C107.82 160.082 108.301 159.485 108.061 158.888V158.588L109.506 159.781H109.266C109.025 160.081 108.785 161.275 107.339 161.868C105.412 162.466 103.968 160.974 103.245 158.888C102.522 155.904 103.726 154.116 105.412 153.519C105.635 153.372 105.883 153.294 106.135 153.294C106.387 153.294 106.636 153.372 106.858 153.519H107.339C107.58 153.519 107.58 153.519 107.58 153.22H107.819V153.22ZM110.227 160.68V160.38L110.467 160.084L109.504 152.925C109.504 152.625 109.504 152.625 109.263 152.625V152.329L112.394 151.732C113.84 151.432 114.803 152.329 114.803 153.819C115.044 155.012 114.561 155.905 113.598 156.206L115.044 158.591C115.286 159.189 115.526 159.488 115.767 159.488V159.784L113.84 160.084V159.784C113.84 159.784 114.08 159.784 114.08 159.488L113.84 159.189L112.394 156.804H111.431L111.671 159.784C111.671 160.084 111.671 160.084 111.912 160.084V160.38L110.227 160.68V160.68ZM111.19 155.608L112.636 155.308C113.359 155.308 113.599 154.714 113.599 154.118C113.599 153.221 113.118 152.925 112.395 153.221L110.95 153.521L111.19 155.608V155.608ZM118.176 158.292H121.066C121.308 158.292 121.548 158.292 121.548 157.992H121.788V159.783H121.548C121.548 159.783 121.309 159.486 121.066 159.486H116.49C116.73 159.486 116.73 159.187 116.73 158.889V151.73C116.73 151.431 116.73 151.431 116.49 151.431V151.134H120.827C121.309 151.134 121.309 151.134 121.309 150.838H121.548V152.925H121.309C121.309 152.625 121.309 152.625 120.827 152.625H118.176V154.715H119.862C120.103 154.715 120.103 154.715 120.103 154.416H120.344V156.206H120.103C120.103 155.907 120.103 155.907 119.862 155.907H118.176V158.292V158.292ZM122.993 157.398H123.232V157.694C123.232 158.292 124.196 158.588 124.917 158.888C126.124 159.184 126.605 158.588 126.605 157.991C126.844 156.203 122.509 156.5 122.992 153.519C122.992 152.326 123.955 151.429 125.641 151.729C126.363 151.729 126.845 152.025 127.085 152.326C127.567 152.622 127.567 152.622 127.809 152.622H128.29L127.083 154.413H126.844V154.116C126.844 153.817 126.362 152.923 125.398 152.923C124.677 152.624 124.194 153.22 124.194 153.521C123.955 155.308 128.29 154.714 127.807 157.992C127.807 159.186 126.603 160.38 124.677 160.082C123.955 160.082 123.473 159.783 123.231 159.485C122.749 159.186 122.749 159.186 122.509 159.186H122.028L122.993 157.398V157.398ZM134.794 155.01L133.59 156.501V156.205C133.59 155.608 133.108 155.012 132.627 154.714C131.423 154.414 130.46 155.01 129.977 157.099C129.495 158.59 130.217 160.082 131.181 160.38C131.905 160.68 132.627 160.38 132.869 159.783V159.486L133.59 161.573C133.349 161.573 133.349 161.573 133.349 161.277C133.109 161.277 132.388 162.171 130.699 161.573C129.014 160.976 128.292 158.889 128.773 156.501C129.256 153.817 131.18 152.923 132.869 153.521C133.349 153.817 133.83 154.118 134.073 154.414C134.312 154.714 134.312 154.714 134.555 155.012L134.794 154.715V155.01V155.01ZM133.109 162.467L133.349 162.171C133.349 162.171 133.59 162.171 133.59 161.871L137.443 156.503C137.685 156.503 137.685 156.206 137.685 156.206C137.924 156.206 137.685 155.907 137.685 155.907V155.611L139.61 156.804C139.371 156.804 139.371 156.804 139.128 157.1V157.697L138.646 164.56C138.646 164.857 138.887 165.158 138.887 165.158V165.454L137.202 164.56V164.261H137.442C137.683 164.261 137.683 163.964 137.683 163.964V162.47L135.516 161.28L134.792 162.47H134.553C134.553 162.77 134.553 162.77 134.792 163.068V163.367L133.109 162.467V162.467ZM137.686 161.275L137.925 157.694L136.24 160.379L137.686 161.275V161.275ZM138.89 165.451L139.129 165.154C139.129 165.451 139.371 165.154 139.371 165.154L142.502 158.889C142.741 158.59 142.741 158.59 142.502 158.59V158.293L144.43 159.784V160.084H144.188C143.949 160.38 143.466 164.259 143.466 165.156C144.91 163.662 146.597 162.172 146.838 162.172C146.838 161.873 146.838 161.873 146.598 161.873L146.838 161.576L148.766 163.068H148.524C148.524 163.068 148.285 163.068 148.285 163.367L145.154 169.629C144.912 169.629 145.154 169.929 145.154 169.929V170.225L143.708 169.032V168.735C143.95 169.032 143.95 169.032 144.19 168.735L146.6 163.663C145.154 165.158 143.469 166.348 142.023 167.842V167.542C142.262 165.455 142.505 163.068 142.986 160.981L140.577 165.752C140.338 166.051 140.338 166.349 140.577 166.349V166.649L138.89 165.451V165.451ZM152.136 166.646C152.136 166.346 152.136 166.346 151.896 166.048V165.749L153.822 167.243L153.583 167.539C153.343 167.243 153.343 167.243 153.1 167.539L150.211 172.908L152.618 174.698C152.86 174.998 153.1 174.998 153.1 174.698L153.342 174.998L152.379 176.489C152.379 176.192 152.379 176.192 152.137 175.891L148.285 172.908L148.524 172.611C148.766 172.908 148.766 172.908 149.006 172.611L152.136 166.646ZM153.342 177.085V176.785H153.822L157.917 171.417C157.917 171.12 158.159 171.12 158.159 171.12C158.159 170.821 158.159 170.821 157.917 170.821V170.524L159.846 171.718C159.606 171.718 159.606 171.718 159.606 172.014C159.606 172.014 159.606 172.313 159.364 172.611L158.882 179.474V180.368L157.197 179.474L157.436 179.175H157.678V178.878L157.917 177.384L155.75 176.194L155.028 177.088C154.787 177.088 154.787 177.384 154.787 177.384C154.787 177.384 154.787 177.684 155.028 177.684L154.787 177.98L153.342 177.085V177.085ZM157.916 176.191L158.399 172.61L156.47 175.294L157.916 176.191V176.191ZM163.457 173.207V173.504C163.216 173.504 162.975 173.504 162.975 173.803L162.012 178.278C161.772 179.471 162.253 180.065 163.216 180.365C163.94 180.661 164.661 180.065 164.903 179.172L165.864 174.697C165.864 174.4 165.864 174.099 165.625 174.099V173.803L167.31 174.4V174.697C167.07 174.697 167.07 174.697 167.07 174.996L166.107 179.471C165.625 181.258 164.661 182.155 162.733 181.856C161.048 181.258 160.566 179.769 160.808 177.978L161.771 173.207C161.771 172.908 161.771 172.908 161.529 172.908V172.611L163.457 173.207V173.207ZM168.274 174.998C168.274 174.698 168.035 174.698 167.792 174.698V174.402H170.684C172.851 174.402 173.814 176.489 173.814 178.577C173.814 181.561 172.608 182.756 170.441 182.756H167.791C168.033 182.456 168.033 182.456 168.033 182.158L168.274 174.998V174.998ZM169.478 181.559H170.202C171.888 181.559 172.37 180.962 172.609 178.576C172.609 176.489 171.888 175.891 170.202 175.891H169.478V181.559ZM177.186 180.663L180.075 179.769C180.316 179.769 180.316 179.769 180.316 179.473H180.556L181.038 181.26H180.799C180.799 180.964 180.557 180.964 180.316 180.964L175.74 182.455C175.982 182.158 175.982 182.158 175.982 181.857L174.536 174.998C174.536 174.698 174.536 174.698 174.054 174.698V174.402L178.388 172.908C178.63 172.908 178.871 172.908 178.871 172.611L179.353 174.402H179.114C179.114 174.102 178.872 174.102 178.631 174.402L175.982 175.296L176.464 177.086L177.907 176.787C178.39 176.49 178.39 176.49 178.39 176.192H178.631L178.871 177.98H178.388L176.703 178.577L177.186 180.663V180.663Z" fill="#219653"/>
<path fill-rule="evenodd" clip-rule="evenodd" d="M111.432 58.6593L110.95 58.0619C110.709 55.3776 110.227 52.3955 108.3 50.6049C103.001 48.2186 96.9795 49.7097 91.6802 47.6228C91.6802 47.6228 88.0671 46.4296 85.6592 45.8322C83.2513 45.2364 81.8055 44.937 79.8787 44.3411C77.7101 43.4459 75.5428 42.85 72.8931 42.2527C74.5793 48.8159 85.4174 52.6934 88.3089 53.2907C89.0317 53.5886 90.4762 53.8865 92.6436 54.4839C96.739 55.975 101.314 55.6771 104.687 59.2566L96.739 56.8703C95.7756 56.5724 94.8122 56.2729 93.1259 55.975C93.3664 58.3614 94.5716 60.1519 95.7756 60.7477C99.871 62.2388 101.315 62.5382 103.725 64.3272C104.206 63.4335 105.411 64.0293 106.133 63.1356C106.133 61.643 106.373 60.4498 108.542 60.7492C108.782 59.854 110.228 58.9587 110.469 58.9587C109.987 59.854 109.505 60.7492 109.505 61.643C109.505 61.643 107.819 61.3451 107.097 61.9409C106.615 62.5382 107.338 63.7314 107.338 64.6267C106.615 64.6267 104.93 64.0293 104.688 65.2225C104.448 66.4157 105.17 67.013 105.651 67.3109C104.446 68.2047 102.761 67.0115 102.521 68.5041C102.28 69.9952 103.002 69.6973 103.484 70.2947L102.038 72.0837C102.038 72.0837 104.206 73.5763 105.651 74.1721C107.336 71.7857 108.542 70.8905 110.469 70.2947C111.674 67.6089 113.359 66.7151 115.287 66.7151C112.636 64.3257 111.432 62.5367 111.432 58.6593V58.6593ZM94.8122 51.5002L91.922 50.307C96.0161 51.2023 101.074 51.2023 104.929 52.9928C106.615 53.8881 107.336 55.975 107.819 58.0634C104.446 52.9913 100.352 52.9913 94.8122 51.5002ZM149.968 127.567L145.151 120.408C144.43 120.11 144.188 118.917 144.188 118.917C140.817 118.32 138.89 115.04 135.275 115.933C132.145 115.635 129.013 113.547 130.941 111.161C130.217 110.863 129.737 110.565 129.495 109.67C129.256 108.774 129.977 108.177 129.977 107.581C129.495 107.879 128.292 108.774 128.049 109.967C127.567 111.459 130.458 115.038 131.18 116.231L136.478 122.197C136.96 123.688 138.887 125.479 138.887 126.372C138.405 126.372 137.924 126.075 137.683 125.777C133.588 121.6 129.494 116.827 127.083 111.159C126.844 111.457 126.603 111.159 126.362 110.861C125.158 109.966 125.64 107.879 124.916 106.386C124.677 106.386 124.436 106.088 124.194 106.088C123.712 106.088 123.712 106.984 123.473 107.58C123.473 107.58 123.473 108.773 123.712 110.563C124.194 112.352 121.305 109.071 120.581 108.175C120.581 109.071 121.064 110.563 121.305 111.457C121.064 111.755 120.823 111.457 120.342 111.457C118.896 111.159 117.933 107.877 117.21 107.58C116.487 107.282 116.487 108.475 115.524 107.877C115.041 106.982 115.041 106.684 115.283 105.789C116.005 105.192 116.005 103.998 115.283 104.296C114.801 104.596 114.56 104.894 113.114 103.998C112.151 104.296 111.428 104.894 112.392 108.473C113.355 110.264 114.318 111.753 115.283 113.544L119.135 120.703L124.194 130.844L126.362 134.722C127.083 136.81 131.179 139.196 129.492 140.688C126.121 146.355 130.456 147.547 130.456 147.547C134.069 148.444 134.069 145.758 135.273 143.969C135.755 143.074 137.44 143.372 136.958 145.162C136.958 145.162 136.476 146.355 135.997 146.655C132.384 149.639 137.682 147.848 138.886 147.549C138.886 147.549 140.09 147.549 138.886 149.639C138.164 151.726 141.536 151.13 142.499 150.532C145.63 148.445 144.906 146.953 146.834 145.76C149.725 143.969 151.893 143.373 151.651 138.899C149.244 137.108 143.221 129.651 143.221 129.651H143.462L148.28 133.828L151.41 136.812C151.893 137.11 152.856 138.005 153.095 138.602C153.095 140.989 152.374 143.673 150.446 144.866C149.242 145.761 146.35 146.059 145.869 148.743C146.351 149.937 148.519 149.937 150.446 149.341C153.817 147.85 153.817 146.061 155.263 141.884C155.745 140.093 156.948 140.093 158.393 140.393C155.749 137.113 152.618 130.847 149.968 127.567V127.567ZM137.686 138.604C136.962 136.813 135.036 134.129 133.831 132.34L124.679 116.529C127.329 118.915 137.444 135.622 137.444 135.622C137.925 137.411 137.925 138.008 137.686 138.604ZM125.16 68.2047C125.16 68.2047 122.751 72.0821 121.065 73.2768C119.378 74.1721 117.934 74.47 117.211 74.1721C119.138 73.5747 119.619 73.5747 121.065 71.7858C119.378 72.681 118.657 72.681 117.452 72.681C116.246 72.681 116.006 70.8905 116.006 71.4878C115.765 72.681 115.043 73.8742 115.043 73.8742C114.56 75.6647 112.635 77.1558 113.839 79.2427C114.321 80.4359 115.284 80.7353 116.246 80.7353C116.246 81.0333 115.765 81.3327 116.006 81.6306C116.729 81.9285 117.934 80.4374 124.196 81.6306C127.809 79.5422 123.713 70.5941 126.605 67.3125C126.846 67.0115 125.643 67.6073 125.16 68.2047V68.2047ZM122.269 80.7338C120.825 81.0317 120.584 80.7338 119.62 80.4359C118.657 80.138 118.175 79.2427 118.175 78.3475C118.175 78.3475 119.138 80.138 121.307 80.138C122.992 80.138 123.474 79.5406 123.956 78.9448C123.957 78.9433 123.714 80.7338 122.269 80.7338V80.7338Z" fill="white" stroke="#219653" stroke-width="0.103758" stroke-miterlimit="2.613"/>
<path fill-rule="evenodd" clip-rule="evenodd" d="M86.1414 89.6817L89.0317 88.7864L87.5859 91.7686L89.9938 93.8555L87.1036 94.1534C87.1036 95.3466 87.3442 96.5398 87.3442 97.733L85.1768 95.3466C84.4539 96.2419 83.7311 96.8377 83.0094 97.733L83.25 94.4513C82.2866 93.854 81.3231 93.854 80.3597 93.5561L82.7689 91.4692L81.5637 88.487L83.9716 89.6802C84.6945 88.487 84.935 87.2938 85.1768 86.3986C85.4186 87.2954 85.6591 88.4901 86.1414 89.6817V89.6817ZM102.279 94.7539C103.242 94.7539 104.206 94.1565 105.169 93.8586L103.723 96.8423C104.687 97.4381 105.41 98.3334 106.131 99.2287L103.241 99.5266C103.241 100.422 103.482 101.613 103.482 103.106L101.313 100.72C100.59 101.316 99.8685 102.211 99.1456 103.106C99.1456 101.913 99.1456 100.72 99.3861 99.5266C98.6633 99.2287 97.4593 99.2287 96.7365 98.9292L99.1444 96.8408L97.6986 93.8571L100.348 94.7523C100.829 93.8571 100.829 92.6654 101.31 91.4707L102.279 94.7539ZM83.0107 115.336L85.9009 114.442L84.4552 117.424C85.178 118.02 86.1414 118.617 86.8631 119.511L83.9728 119.809C83.9728 121.002 84.2134 122.195 84.2134 123.389C83.4905 122.493 82.7689 121.897 82.046 121.002C81.3231 121.897 80.6003 122.493 79.8787 123.389L80.1192 120.107C79.3963 119.51 78.1924 119.51 77.4695 119.212C78.1924 118.616 79.1558 118.019 79.8787 117.125L78.4329 114.141C79.3963 114.441 80.1192 115.036 81.0826 115.334C81.3231 114.141 81.8055 113.247 82.046 112.053L83.0107 115.336V115.336ZM102.037 116.529H104.687L102.519 118.319L103.242 121.601L101.314 119.513L99.1468 121.601L99.8697 118.319C99.3874 117.722 98.6658 117.126 97.9417 116.529H100.351C100.832 115.634 100.832 114.442 101.313 113.547C101.556 114.442 101.797 115.634 102.037 116.529V116.529Z" fill="white" stroke="white" stroke-width="0.0129698" stroke-miterlimit="2.613"/>
<path fill-rule="evenodd" clip-rule="evenodd" d="M102.279 137.708C103.242 137.41 103.965 136.813 104.929 136.515L103.725 139.499L105.893 141.885C105.17 141.885 103.966 141.885 103.244 142.183V145.763L101.315 143.376L99.1481 145.763V142.183C98.4253 141.885 97.4619 141.885 96.4984 141.586C97.2213 140.69 98.1847 140.095 98.9063 139.499L97.7024 136.515L100.112 137.708L101.315 134.427L102.279 137.708V137.708Z" fill="white"/>
<path d="M102.279 137.708C103.242 137.41 103.965 136.813 104.929 136.515L103.725 139.499L105.893 141.885C105.17 141.885 103.966 141.885 103.244 142.183V145.763L101.315 143.376L99.1481 145.763V142.183C98.4253 141.885 97.4619 141.885 96.4984 141.586C97.2213 140.69 98.1847 140.095 98.9063 139.499L97.7024 136.515L100.112 137.708L101.315 134.427L102.279 137.708V137.708Z" stroke="white" stroke-width="0.0129698" stroke-miterlimit="2.613"/>
<path d="M19.9043 231.079H219.335" stroke="white" stroke-miterlimit="2.613"/>
</svg>
