<svg width="114" height="133" viewBox="0 0 114 133" fill="none" xmlns="http://www.w3.org/2000/svg">
<path fill-rule="evenodd" clip-rule="evenodd" d="M31.0497 0.489084C18.0075 0.562454 15.0283 0.62193 14.6397 0.816425C13.3534 1.46069 12.8285 1.81278 12.365 2.34069C12.087 2.65762 11.8168 2.91723 11.7642 2.91723C11.5401 2.91723 10.2826 5.54986 9.98592 6.63955C9.87132 7.06067 9.60483 27.9576 9.71027 28.2398C9.7218 28.2706 9.9137 27.958 10.1368 27.5452C10.3599 27.1327 10.6555 26.6235 10.7942 26.4142C10.9325 26.205 11.3204 25.5907 11.6561 25.0493C13.0414 22.8152 17.8122 16.6079 18.8131 15.7374C18.9823 15.5898 19.361 15.1847 19.6546 14.837C19.9482 14.4893 20.2334 14.2049 20.2886 14.2049C20.3436 14.2049 20.5446 14.0143 20.7352 13.7816C22.1927 12.0003 30.1235 5.86939 30.9701 5.86939C31.0233 5.86939 31.3834 5.67923 31.7702 5.44697C33.2119 4.58173 36.1667 3.27106 36.6848 3.26672C36.8377 3.26541 37.0208 3.19986 37.0916 3.12128C37.2462 2.94893 38.4726 2.5061 40.0007 2.07066C40.3363 1.97515 40.7635 1.84838 40.95 1.78934C41.6061 1.58138 43.9072 1.12684 45.9001 0.811651C48.2528 0.440026 58.3341 0.590239 59.0553 1.00788C59.2045 1.09428 59.6622 1.20281 60.0724 1.24926C61.4805 1.40816 64.5662 2.21045 65.7685 2.73055C65.955 2.81087 66.3517 2.96455 66.65 3.07135C67.9574 3.53936 69.8527 4.36075 70.7186 4.8344C70.8678 4.91602 71.4496 5.22165 72.0118 5.51383C73.0804 6.06866 77.2155 8.70563 77.5674 9.05685C77.6793 9.16842 77.9845 9.40894 78.2455 9.59171C78.5066 9.77448 78.7507 9.97679 78.788 10.0406C78.8253 10.1049 79.0162 10.2668 79.2122 10.4009C79.619 10.6792 80.7684 11.6817 81.5682 12.4557C81.8666 12.7444 82.3243 13.1721 82.5854 13.4056C83.1526 13.9127 83.7361 14.5409 84.2521 15.1986C84.4973 15.5117 84.5993 15.5742 84.5427 15.3771C84.4946 15.2099 84.4006 15.0732 84.3339 15.0732C84.2674 15.0732 84.2128 14.956 84.2128 14.8127C84.2128 14.5891 84.641 14.5522 87.2531 14.5522C90.3968 14.5522 90.7226 14.5947 90.7226 15.0072C90.7226 15.2538 90.7639 15.3849 91.1742 16.4329C91.299 16.7511 91.4007 17.085 91.4007 17.1744C91.4007 17.2643 91.5532 17.6472 91.7397 18.0253C91.9262 18.4035 92.0788 18.8663 92.0788 19.0534C92.0788 19.2409 92.1351 19.4385 92.2039 19.4932C92.2727 19.5474 92.3693 19.8257 92.4182 20.1114C92.467 20.3966 92.5511 20.6302 92.6046 20.6302C92.6585 20.6302 92.7826 20.9232 92.881 21.2814C92.9793 21.6395 93.2356 22.4266 93.4509 23.0301C93.6659 23.6336 93.8418 24.2392 93.8418 24.3759C93.8418 24.5127 93.9029 24.6243 93.9774 24.6243C94.052 24.6243 94.1131 24.7341 94.1131 24.8687C94.1131 25.0033 94.2589 25.4917 94.4369 25.954C94.723 26.6969 94.9295 27.2938 95.3282 28.5315C95.3899 28.7226 95.5947 29.3086 95.7832 29.834C96.4776 31.7676 96.8167 32.7457 97.4992 34.7832C97.8833 35.9293 98.2797 37.1015 98.3797 37.388C98.9117 38.9092 99.1615 39.6069 99.664 40.9744C99.9674 41.8006 100.216 42.5517 100.216 42.6428C100.216 42.7344 100.398 43.2697 100.621 43.8324C100.844 44.395 101.027 44.916 101.028 44.9902C101.029 45.0649 101.247 45.7291 101.514 46.4663C101.779 47.2039 102.051 47.9637 102.116 48.1547C102.182 48.3457 102.452 49.1094 102.717 49.8517C102.983 50.5941 103.2 51.2432 103.2 51.294C103.2 51.3452 103.383 51.8592 103.606 52.4366C103.83 53.0145 104.013 53.5636 104.013 53.6574C104.013 53.7512 104.227 54.3833 104.488 55.0619C104.749 55.7404 104.963 56.366 104.963 56.4516C104.963 56.5375 105.229 57.3237 105.554 58.1985C105.88 59.0738 106.375 60.4539 106.654 61.2657C108.629 67.0112 109.156 68.5306 109.572 69.6881C109.779 70.2611 110.085 71.1598 110.253 71.6851C110.421 72.2104 110.734 73.1308 110.948 73.7299C111.162 74.3295 111.337 74.8522 111.337 74.8921C111.337 74.9646 112.256 77.5061 112.676 78.5953C112.881 79.1254 112.899 76.5618 112.931 43.4391C112.953 19.7363 112.919 7.6524 112.829 7.53692C112.754 7.44098 112.693 7.18483 112.693 6.9669C112.693 6.40295 112.294 5.17303 111.924 4.59692C111.75 4.32689 111.609 4.01431 111.61 3.9023C111.617 3.00927 108.723 0.874167 107.2 0.648848C106.039 0.476928 52.9754 0.365354 31.0497 0.489084ZM84.7553 15.7309C84.7553 15.8043 84.8773 15.9979 85.0265 16.1616C85.1757 16.3252 85.2978 16.399 85.2978 16.3257C85.2978 16.2523 85.1757 16.0587 85.0265 15.895C84.8773 15.7313 84.7553 15.6575 84.7553 15.7309ZM48.816 19.4237C46.7268 19.5848 45.158 19.8613 44.9705 20.1014C44.8925 20.2012 44.6426 20.282 44.4151 20.2807C43.9862 20.2785 42.1716 20.7439 41.6959 20.9779C41.5467 21.0517 40.7229 21.4012 39.8651 21.755C39.0073 22.1089 38.0918 22.5161 37.8308 22.6598C37.3307 22.9355 33.9076 25.1083 33.5055 25.4057C32.5711 26.0969 31.5922 26.9521 31.5922 27.078C31.5922 27.1614 31.5298 27.2291 31.4532 27.2291C30.7514 27.2291 25.3937 33.2064 24.0636 35.4734C23.8409 35.8529 23.4601 36.3995 23.2177 36.6877C22.9753 36.976 22.7769 37.2621 22.7769 37.3237C22.7769 37.385 22.2816 38.2845 21.676 39.3221C21.0708 40.3597 20.5426 41.3257 20.5029 41.4689C20.4629 41.6122 20.3534 41.8466 20.2598 41.9899C20.1659 42.1332 19.9408 42.602 19.7594 43.0318C19.5777 43.4616 19.225 44.2822 18.9752 44.8552C18.3828 46.2136 17.718 48.232 17.1158 50.4991C16.8493 51.5019 16.5869 52.4787 16.5326 52.6698C16.4367 53.0066 16.2672 53.8011 16.0041 55.1444C15.9339 55.5025 15.8145 56.2644 15.7382 56.8375C15.6623 57.4106 15.5613 58.1139 15.5138 58.4004C15.1385 60.6645 14.9964 69.863 15.2951 72.5534C15.6806 76.0226 16.1848 79.1454 16.5432 80.2811C16.6035 80.4721 16.8466 81.4099 17.0836 82.365C17.4783 83.9565 19.8001 90.3176 20.0618 90.5247C20.1239 90.5737 20.3639 91.0239 20.5962 91.5253C20.985 92.3663 21.8547 93.9405 22.839 95.5867C23.0597 95.9557 23.5486 96.6873 23.9256 97.2126C24.3027 97.7379 24.8845 98.5832 25.2191 99.0911C25.5534 99.5991 26.2546 100.471 26.777 101.028C27.2995 101.586 27.9837 102.342 28.2973 102.71C29.1375 103.693 29.738 104.291 30.61 105.015C31.0382 105.371 31.4725 105.793 31.5749 105.952C31.6773 106.112 31.8194 106.243 31.8909 106.243C31.9625 106.243 32.3364 106.504 32.7219 106.824C34.308 108.138 35.668 109.05 37.4069 109.965C39.7474 111.197 42.2479 112.213 42.4822 112.029C42.5439 111.979 42.6975 112.055 42.8233 112.196C43.067 112.469 43.9665 112.703 43.8506 112.463C43.813 112.385 43.6312 112.321 43.4468 112.321C42.9036 112.321 42.9294 111.926 43.5851 110.224C43.9259 109.339 44.2049 108.55 44.2049 108.47C44.2049 108.391 44.51 107.506 44.883 106.503C45.256 105.501 45.5611 104.636 45.5611 104.583C45.5611 104.529 45.7818 103.884 46.0514 103.149C46.3212 102.415 46.6199 101.58 46.7156 101.294C46.8112 101.007 47.0577 100.304 47.2631 99.7306C47.4689 99.1575 47.6822 98.5324 47.7371 98.3413C47.792 98.1503 47.9941 97.5642 48.1864 97.0389C49.0798 94.5973 49.6297 93.044 49.6297 92.9628C49.6297 92.8699 50.7282 89.6889 51.0646 88.8072C51.1707 88.5298 51.2571 88.2042 51.2571 88.0835C51.2571 87.9628 51.3049 87.8382 51.3633 87.8061C51.4216 87.7744 51.6762 87.1232 51.9288 86.3591C52.1817 85.595 52.4391 84.8956 52.5011 84.8048C52.5628 84.7141 52.6133 84.4992 52.6133 84.3273C52.6133 84.1554 52.6744 84.0147 52.749 84.0147C52.8236 84.0147 52.8846 83.9287 52.8846 83.8237C52.8846 83.5932 53.1392 82.8295 53.8444 80.9427C54.137 80.1604 54.3764 79.4753 54.3764 79.4198C54.3764 79.3642 54.6205 78.6674 54.9189 77.8703C55.2172 77.0737 55.4614 76.3695 55.4614 76.3048C55.4614 76.2406 55.736 75.4552 56.0717 74.5596C56.4073 73.6644 56.6819 72.853 56.6819 72.7566C56.6819 72.5213 57.1305 71.4394 57.2583 71.3669C57.3143 71.3348 57.36 71.1637 57.36 70.9861C57.36 70.809 57.4143 70.6206 57.4807 70.5681C57.5469 70.5155 57.6411 70.2694 57.6899 70.0211C57.7384 69.7723 58.0504 68.8385 58.383 67.9454C58.7156 67.0524 58.9878 66.2584 58.9882 66.1815C58.9885 66.1042 59.2326 65.4244 59.5306 64.6703C59.8287 63.9162 60.0724 63.2307 60.0724 63.1473C60.0724 63.0635 60.3077 62.3524 60.5956 61.5662C60.8831 60.7799 61.2137 59.8635 61.3296 59.5292C61.4456 59.1949 61.729 58.3917 61.9593 57.7449C62.1895 57.0976 62.3783 56.5115 62.3787 56.4424C62.379 56.373 62.6231 55.6996 62.9211 54.9455C63.2192 54.1914 63.4629 53.5029 63.4629 53.4156C63.4629 53.3283 63.7006 52.6168 63.9908 51.8345C64.2814 51.0521 64.6116 50.1387 64.7249 49.8044C64.8385 49.4701 65.125 48.6496 65.3616 47.981C65.5983 47.3125 65.8858 46.4919 66.0004 46.1576C66.1147 45.8234 66.3472 45.1591 66.5174 44.6816C66.8531 43.7382 67.0833 43.0687 67.5315 41.7294C67.8876 40.6662 68.0995 40.0649 68.7864 38.1695C69.0807 37.3576 69.3699 36.5371 69.4292 36.3461C69.5953 35.8108 70.2538 33.9691 70.4633 33.4538C70.5664 33.2003 70.6508 32.8682 70.6508 32.7158C70.6508 32.5634 70.7118 32.4388 70.7864 32.4388C70.861 32.4388 70.9221 32.3559 70.9221 32.2543C70.9221 32.0763 71.2699 31.0357 71.9348 29.2262C72.1104 28.7486 72.2881 28.2211 72.3294 28.054C72.4118 27.724 72.7536 27.6441 72.8885 27.9237C72.9347 28.0192 73.0333 28.0974 73.1079 28.0974C73.372 28.0974 73.0665 27.7414 72.579 27.48C72.3067 27.3346 72.0518 27.1549 72.0118 27.0802C71.9717 27.006 71.3594 26.4867 70.6508 25.9267C69.4699 24.9929 68.8579 24.5817 66.7178 23.2828C66.3076 23.0336 65.8193 22.7336 65.6329 22.6164C65.4464 22.4987 64.9887 22.2812 64.6157 22.1327C64.2428 21.9843 63.663 21.7329 63.3273 21.5736C62.339 21.1047 59.6558 20.2829 59.114 20.2829C58.8349 20.2829 58.5393 20.1678 58.445 20.0224C58.3338 19.8505 58.0307 19.7619 57.5557 19.7619C57.1593 19.7619 56.6938 19.6942 56.5212 19.6112C56.0733 19.3968 50.8265 19.2691 48.816 19.4237ZM87.2073 27.7935C87.2012 27.9606 87.1354 28.0974 87.0608 28.0974C86.9862 28.0974 86.9252 28.1925 86.9252 28.3084C86.9252 28.4447 87.0025 28.4204 87.1442 28.2385C87.2649 28.0839 87.3307 27.8525 87.2907 27.7236C87.2409 27.5634 87.2144 27.5855 87.2073 27.7935ZM8.90198 29.6777C8.5436 30.3367 8.2788 30.8759 8.31373 30.8759C8.40696 30.8759 9.65704 28.6053 9.60144 28.5372C9.57533 28.5059 9.26069 29.0191 8.90198 29.6777ZM85.6368 30.4678C85.2283 30.9349 85.1978 30.9996 85.5134 30.7296C85.8881 30.4088 86.3597 29.8235 86.2298 29.8405C86.202 29.8439 85.9352 30.1261 85.6368 30.4678ZM77.2284 32.009C77.5267 32.2443 77.8319 32.4366 77.9065 32.4358C77.9811 32.4353 77.7766 32.2404 77.4518 32.0025C76.6907 31.4451 76.5198 31.4503 77.2284 32.009ZM7.23656 33.0032C6.61271 34.3408 6.60932 34.349 6.67883 34.349C6.70968 34.349 6.96702 33.8606 7.25013 33.2637C7.88958 31.9161 7.8889 31.9178 7.80888 31.9178C7.7726 31.9178 7.51492 32.4062 7.23656 33.0032ZM83.4669 32.2148C83.2431 32.3706 82.877 32.5551 82.6532 32.6242C82.2541 32.7479 82.2534 32.7509 82.6054 32.7683C82.803 32.7783 83.2302 32.5916 83.5547 32.3541C84.2013 31.8809 84.1236 31.7581 83.4669 32.2148ZM78.2255 32.6563C78.294 32.744 78.4941 32.7865 78.6707 32.7509C78.9423 32.6962 78.923 32.6719 78.5463 32.5916C78.2771 32.5347 78.1503 32.5599 78.2255 32.6563ZM5.83391 36.2354C5.44129 37.2204 5.48571 37.3724 5.89698 36.4516C6.08447 36.0317 6.20992 35.6532 6.17602 35.6098C6.14211 35.5663 5.98818 35.8481 5.83391 36.2354ZM83.1546 41.6799C83.0143 42.0893 82.8169 42.6975 82.7159 43.0318C82.6152 43.3661 82.3918 43.9835 82.2199 44.4037C82.048 44.8235 81.9073 45.2281 81.9073 45.3024C81.9073 45.3771 81.6937 46.0296 81.4326 46.7533C81.1715 47.477 80.9579 48.1165 80.9579 48.1742C80.9579 48.2315 80.7704 48.7977 80.5416 49.4324C80.3127 50.0667 80.075 50.7422 80.014 50.9332C79.953 51.1242 79.7472 51.7103 79.5566 52.2356C78.9948 53.7868 78.5168 55.1904 78.5168 55.2898C78.5168 55.341 78.2727 56.0465 77.9743 56.8583C77.6759 57.6702 77.4318 58.4004 77.4318 58.4812C77.4318 58.5619 77.3135 58.9283 77.1691 59.2956C77.0243 59.6629 76.652 60.7448 76.3411 61.6999C76.0305 62.655 75.5691 64.0073 75.3158 64.7046C75.0622 65.4022 74.855 66.0261 74.855 66.0912C74.855 66.1984 74.4024 67.4852 73.3412 70.3966C73.1296 70.977 72.9564 71.5093 72.9564 71.5796C72.9564 71.6495 72.7811 72.1905 72.5664 72.7813C72.3522 73.3722 72.0392 74.2856 71.8717 74.8109C71.5286 75.8841 71.178 76.9169 70.722 78.1972C70.0371 80.1183 69.9619 80.3783 70.0415 80.5433C70.1324 80.7317 96.479 80.7951 97.2069 80.6089C97.5358 80.5247 97.5992 80.443 97.5104 80.2181C97.0628 79.0816 96.6898 77.9845 96.6898 77.8039C96.6898 77.6858 96.6288 77.5894 96.5542 77.5894C96.4796 77.5894 96.4186 77.4588 96.4186 77.2986C96.4186 77.1388 96.1826 76.3769 95.8944 75.6054C95.6063 74.8344 95.2621 73.8906 95.1295 73.5085C94.9973 73.1265 94.6915 72.2669 94.4501 71.5983C94.209 70.9297 93.9178 70.1092 93.8035 69.7749C93.6893 69.4406 93.3763 68.5558 93.1085 67.8087C92.8406 67.0615 92.6212 66.3838 92.6212 66.3031C92.6212 66.2223 92.3836 65.5442 92.0934 64.7962C91.8031 64.0486 91.4444 63.0848 91.2966 62.655C91.1488 62.2252 90.8063 61.2766 90.5361 60.5468C90.2655 59.8174 90.0445 59.1654 90.0445 59.0981C90.0445 59.0308 89.8004 58.3557 89.502 57.5981C89.2036 56.8405 88.9595 56.1372 88.9595 56.0352C88.9595 55.9332 88.7154 55.2299 88.417 54.4723C88.1187 53.7147 87.8745 52.9797 87.8745 52.8391C87.8745 52.698 87.8135 52.5829 87.7389 52.5829C87.6643 52.5829 87.6033 52.4661 87.6033 52.3237C87.6033 52.1809 87.2982 51.2501 86.9252 50.2555C86.5523 49.2604 86.2471 48.3961 86.2471 48.3349C86.2471 48.2736 85.942 47.4275 85.569 46.4537C85.1961 45.4804 84.8909 44.6251 84.8909 44.5535C84.8909 44.3386 83.6419 41.1194 83.5215 41.0244C83.4601 40.9757 83.2953 41.271 83.1546 41.6799ZM3.6701 42.2795C3.66162 42.391 3.61517 42.6255 3.56669 42.8004C3.49854 43.0475 3.51684 43.0739 3.64738 42.9198C3.73994 42.8109 3.78639 42.5764 3.75079 42.3989C3.71519 42.2217 3.67891 42.1679 3.6701 42.2795ZM3.12287 44.1936C3.11677 44.4028 3.05099 44.6225 2.9764 44.6816C2.90181 44.7406 2.84553 44.9603 2.85163 45.1695C2.85841 45.4096 2.88689 45.4539 2.92927 45.2894C2.96623 45.1461 3.05981 44.8609 3.13779 44.6551C3.21543 44.4497 3.24628 44.1762 3.20627 44.0473C3.16423 43.9127 3.12897 43.9748 3.12287 44.1936ZM2.56954 46.3313C2.48512 46.7324 2.44273 47.095 2.47494 47.1366C2.50749 47.1779 2.60005 46.8796 2.68041 46.4733C2.7611 46.0669 2.80348 45.7048 2.775 45.6684C2.74652 45.6315 2.65396 45.9302 2.56954 46.3313ZM1.53815 50.9184C1.49746 51.0539 1.48627 51.386 1.51306 51.6565C1.55307 52.0581 1.57409 52.0129 1.62867 51.4107C1.69716 50.6514 1.66699 50.4882 1.53815 50.9184ZM1.34014 52.3659C1.3354 52.4375 1.31234 52.7492 1.28827 53.0583C1.26453 53.3674 1.29708 53.5793 1.36049 53.5289C1.46661 53.4447 1.49882 52.2356 1.39473 52.2356C1.36964 52.2356 1.34523 52.2942 1.34014 52.3659ZM0.351812 62.6064C0.305023 62.9671 0.275526 63.8098 0.285697 64.4784C0.302311 65.5672 0.314856 65.5038 0.405721 63.8706C0.512522 61.9534 0.493535 61.5084 0.351812 62.6064ZM0.298242 67.0832C0.299598 67.4653 0.327401 67.6012 0.359949 67.3849C0.392498 67.1692 0.391141 66.8566 0.357236 66.6903C0.323331 66.5245 0.296547 66.7012 0.298242 67.0832ZM0.300955 69.0803C0.300955 69.5101 0.3274 69.6859 0.35961 69.471C0.392159 69.2561 0.392159 68.9044 0.35961 68.6895C0.3274 68.4746 0.300955 68.6505 0.300955 69.0803ZM1.11637 78.1972C1.11739 78.6748 1.14383 78.8497 1.17503 78.5858C1.20622 78.3214 1.20554 77.9307 1.17333 77.7175C1.14112 77.5039 1.11535 77.7197 1.11637 78.1972ZM1.27979 79.8418C1.28725 80.2195 1.33641 80.5833 1.38897 80.6506C1.52052 80.819 1.50628 79.6386 1.37337 79.3707C1.31166 79.2465 1.27199 79.4458 1.27979 79.8418ZM1.51611 81.4099C1.51611 81.7442 1.54391 81.8809 1.57816 81.7138C1.61206 81.5466 1.61206 81.2731 1.57816 81.106C1.54391 80.9388 1.51611 81.0756 1.51611 81.4099ZM1.73954 82.6632C1.80227 83.1456 1.82126 83.1703 1.86398 82.8226C1.89178 82.5964 1.85855 82.3402 1.79006 82.2525C1.71479 82.1562 1.69513 82.3185 1.73954 82.6632ZM2.5831 86.4459C2.57225 86.7455 2.88282 87.9467 3.01505 88.116C3.09642 88.2207 2.992 87.714 2.70618 86.6196C2.64379 86.3808 2.58853 86.3026 2.5831 86.4459ZM5.55725 95.8489C5.55521 95.911 5.70507 96.3018 5.89053 96.7172C6.07633 97.1331 6.22857 97.3949 6.22891 97.2994C6.22992 97.1071 5.56403 95.6692 5.55725 95.8489ZM6.5605 98.3848C6.8375 99.0451 7.31421 99.9294 7.31522 99.7857C7.31658 99.6399 6.48218 97.9072 6.41098 97.9072C6.38284 97.9072 6.45031 98.1221 6.5605 98.3848ZM70.5491 99.4284C63.7457 99.4706 63.3273 99.491 63.3273 99.7805C63.3273 99.9494 63.247 100.242 63.1483 100.43C63.05 100.618 62.8289 101.202 62.657 101.728C62.4851 102.253 62.084 103.386 61.7657 104.246C61.4473 105.105 61.0815 106.121 60.9533 106.503C60.8248 106.885 60.4518 107.897 60.1247 108.752C59.7978 109.606 59.53 110.366 59.53 110.44C59.53 110.85 58.7657 112.548 58.525 112.673C58.3118 112.783 58.3758 112.81 58.7841 112.78C59.0824 112.757 59.4686 112.639 59.6422 112.516C59.8158 112.394 60.0402 112.335 60.1409 112.384C60.2416 112.433 60.4963 112.405 60.7068 112.321C60.9174 112.237 61.3642 112.074 61.6999 111.958C63.409 111.368 64.5635 110.847 65.6349 110.181C66.0465 109.925 66.4598 109.716 66.5534 109.716C66.7497 109.716 68.6958 108.484 69.418 107.903C69.6859 107.688 70.3321 107.18 70.8542 106.776C71.3764 106.373 72.0477 105.812 72.3461 105.532C72.6444 105.251 73.1944 104.754 73.5687 104.427C73.9426 104.1 74.6224 103.399 75.0798 102.869C78.5375 98.8623 83.5968 99.3481 86.2461 103.941C86.8747 105.031 87.0473 105.487 87.4504 107.123C87.6406 107.895 87.6545 111.739 87.4677 111.887C87.3931 111.946 87.3321 112.187 87.3321 112.424C87.3321 113.629 84.8309 117.872 84.1179 117.877C84.0284 117.877 83.9063 117.977 83.8466 118.098C83.7449 118.304 83.533 118.534 82.447 119.614C81.6113 120.446 80.2029 121.686 78.8589 122.774C77.4447 123.918 77.2904 124.039 76.6632 124.496C76.0821 124.919 73.648 126.477 72.9564 126.87C72.6207 127.06 72.0596 127.381 71.7093 127.582C71.3591 127.785 70.9814 127.95 70.8698 127.95C70.7579 127.95 70.6291 128.028 70.583 128.123C70.5369 128.219 70.3575 128.297 70.1846 128.297C70.0117 128.297 69.7944 128.414 69.7015 128.558C69.6086 128.701 69.4353 128.818 69.3163 128.818C69.1976 128.818 68.8542 128.927 68.5531 129.061C68.2524 129.194 67.7316 129.398 67.3959 129.514C67.0603 129.631 66.6636 129.789 66.5144 129.866C66.3652 129.944 65.6939 130.173 65.0226 130.376C64.3513 130.579 63.5884 130.816 63.3273 130.903C62.8584 131.06 62.6519 131.109 61.1235 131.432C60.6946 131.522 59.9623 131.681 59.4961 131.783C59.0299 131.886 58.0076 132.028 57.2244 132.098C56.4412 132.169 67.3349 132.219 81.4326 132.21C108.866 132.191 107.879 132.221 109.099 131.376C109.323 131.221 109.637 131.017 109.797 130.922C110.297 130.628 111.847 128.66 111.936 128.207C111.982 127.97 112.08 127.776 112.153 127.776C112.226 127.776 112.288 127.639 112.291 127.472C112.293 127.305 112.384 127.017 112.494 126.831C112.604 126.646 112.693 126.242 112.693 125.934C112.693 125.626 112.768 125.342 112.859 125.303C113.035 125.228 112.539 123.536 111.921 122.099C111.749 121.699 111.608 121.214 111.608 121.024C111.608 120.833 111.553 120.633 111.485 120.579C111.417 120.526 111.165 119.876 110.925 119.136C110.321 117.276 109.825 115.897 109.725 115.794C109.678 115.746 109.557 115.394 109.456 115.012C109.355 114.63 109.091 113.81 108.871 113.189C108.65 112.568 108.406 111.865 108.327 111.626C108.249 111.387 108.09 110.957 107.974 110.671C107.703 110.002 107.603 109.728 107.433 109.195C107.357 108.956 107.045 108.076 106.739 107.238C106.433 106.4 106.183 105.673 106.183 105.621C106.183 105.569 106.025 105.082 105.832 104.539C105.639 103.996 105.386 103.278 105.27 102.943C105.154 102.609 105.006 102.2 104.943 102.034C104.879 101.868 104.827 101.62 104.827 101.484C104.827 101.347 104.781 101.21 104.725 101.178C104.578 101.094 104.149 100.006 104.149 99.7167C104.149 99.5061 102.657 99.4666 93.9436 99.4471C88.3306 99.4345 82.3955 99.415 80.7545 99.4037C79.1135 99.3924 74.5211 99.4037 70.5491 99.4284ZM8.94368 103.209C8.94368 103.274 9.09625 103.559 9.28273 103.843C9.46921 104.127 9.62178 104.306 9.62178 104.24C9.62178 104.175 9.46921 103.89 9.28273 103.606C9.09625 103.322 8.94368 103.143 8.94368 103.209ZM9.72112 110.043C9.81877 127.109 9.77063 126.3 10.8098 128.347C11.2329 129.18 12.3227 130.555 12.56 130.555C12.6471 130.555 12.7387 130.616 12.7638 130.69C12.8543 130.963 14.3247 131.746 15.2534 132.017C16.1014 132.265 17.9404 132.291 32.0025 132.259C40.6903 132.24 47.1885 132.166 46.4426 132.095C45.6967 132.024 44.6897 131.885 44.2049 131.786C42.1553 131.369 41.6644 131.261 41.0856 131.102C40.75 131.01 40.1397 130.855 39.7294 130.76C39.3192 130.664 38.7089 130.462 38.3732 130.312C38.0376 130.162 37.6294 130.038 37.4659 130.036C37.3025 130.035 37.131 129.955 37.0848 129.86C37.0387 129.764 36.8336 129.686 36.6292 129.686C36.4247 129.686 36.1996 129.62 36.1287 129.54C36.0579 129.459 35.6337 129.257 35.1862 129.09C34.7386 128.923 34.1894 128.683 33.9656 128.559C33.7418 128.434 33.2807 128.213 32.9413 128.067C30.6798 127.101 25.2693 123.418 23.0482 121.335C21.2634 119.661 20.229 118.654 19.1911 117.582C18.1035 116.457 12.7214 109.55 11.7917 108.086C11.3815 107.439 10.8881 106.663 10.6952 106.36C10.5023 106.056 10.1972 105.526 10.0171 105.18L9.68959 104.553L9.72112 110.043ZM50.0108 132.421C51.0785 132.451 52.7873 132.451 53.8082 132.421C54.8294 132.391 53.956 132.368 51.8674 132.368C49.7789 132.368 48.9435 132.392 50.0108 132.421Z" fill="#27AE60"/>
<mask id="path-2-inside-1" fill="white">
<path fill-rule="evenodd" clip-rule="evenodd" d="M47.1371 0.609125C47.0788 0.684231 46.5017 0.804054 45.8552 0.874819C44.3772 1.03719 41.8137 1.51474 40.9501 1.78869C40.7636 1.84773 40.3364 1.9745 40.0008 2.07001C38.4137 2.52238 37.2524 2.94177 37.0917 3.12063C37.0209 3.19921 36.8378 3.26477 36.6849 3.26607C36.1668 3.27041 33.212 4.58108 31.7703 5.44633C31.3835 5.67859 31.0234 5.86874 30.9702 5.86874C30.1236 5.86874 22.1929 11.9997 20.7353 13.781C20.5447 14.0137 20.3437 14.2043 20.2887 14.2043C20.2335 14.2043 19.9483 14.4886 19.6547 14.8364C19.3611 15.1841 18.9824 15.5892 18.8132 15.7368C17.8055 16.6133 13.0192 22.8441 11.6562 25.0539C11.3205 25.5983 10.9818 26.1345 10.9035 26.2452C10.6126 26.6576 9.62189 28.4332 9.62189 28.5426C9.62189 28.6052 9.32828 29.1747 8.96956 29.809C8.61051 30.4433 8.27519 31.0793 8.22433 31.2226C8.17347 31.3659 7.87952 31.991 7.57166 32.6118C6.29954 35.1759 3.79023 41.6976 3.79023 42.4404C3.79023 42.5684 3.66818 42.9518 3.51899 43.2917C3.36981 43.6316 3.24775 44.0259 3.24775 44.1678C3.24775 44.3093 3.18774 44.5607 3.11451 44.7266C2.97516 45.0422 2.31774 47.8385 2.20653 48.5882C2.17127 48.827 2.09058 49.1787 2.02717 49.3697C1.96377 49.5607 1.87392 49.9514 1.82713 50.238C1.78068 50.5245 1.67897 51.1497 1.60133 51.6272C1.52402 52.1048 1.46605 52.6826 1.47283 52.9118C1.47927 53.1406 1.41654 53.4333 1.33314 53.5618C1.24973 53.6907 1.18497 54.1266 1.18938 54.5308C1.19379 54.9345 1.11276 55.5015 1.00935 55.7906C0.814053 56.3368 0.762856 56.9494 0.537049 61.4388C0.306156 66.0325 0.402107 73.9898 0.691317 74.2186C0.754719 74.269 0.806594 74.7691 0.806594 75.3305C0.806594 75.8914 0.877455 76.5708 0.963913 76.8395C1.05037 77.1083 1.16938 77.7582 1.22905 78.2835C1.28838 78.8088 1.40264 79.8247 1.483 80.541C1.56335 81.2574 1.68812 81.9793 1.76034 82.1452C1.83256 82.311 1.89155 82.6774 1.89155 82.9596C1.89155 83.2418 1.95258 83.521 2.02717 83.58C2.10176 83.6391 2.16279 83.8422 2.16279 84.0315C2.16279 84.4036 2.52998 85.983 3.06704 87.9214C3.25216 88.59 3.52171 89.599 3.66614 90.1629C3.81024 90.7273 3.97841 91.2743 4.03944 91.3785C4.10046 91.4831 4.26253 91.959 4.39985 92.4365C4.69889 93.478 6.65046 98.4125 7.04037 99.114C7.19226 99.3867 7.31635 99.6541 7.31635 99.7079C7.31635 99.7969 8.59729 102.448 8.83733 102.856C8.89362 102.951 9.07806 103.264 9.24691 103.551C9.41575 103.837 9.66665 104.355 9.8043 104.702C10.0457 105.311 10.2969 105.739 11.8261 108.142C12.734 109.569 18.1297 116.484 19.1912 117.581C20.2291 118.653 21.2635 119.66 23.0483 121.334C25.2694 123.418 30.68 127.1 32.9414 128.067C33.2808 128.212 33.7419 128.433 33.9657 128.558C34.1895 128.683 34.7387 128.922 35.1863 129.089C35.6338 129.256 36.058 129.459 36.1288 129.54C36.1997 129.62 36.4248 129.686 36.6293 129.686C36.8337 129.686 37.0388 129.764 37.0849 129.859C37.1311 129.955 37.3026 130.034 37.466 130.036C37.6295 130.037 38.0377 130.161 38.3733 130.311C38.709 130.462 39.3193 130.663 39.7295 130.759C40.1398 130.855 40.7501 131.009 41.0857 131.102C41.6831 131.266 42.4321 131.429 44.205 131.781C47.4992 132.437 56.4471 132.435 59.4962 131.778C59.9623 131.678 60.6947 131.522 61.1236 131.432C62.652 131.109 62.8585 131.059 63.3274 130.903C63.5885 130.815 64.3513 130.578 65.0227 130.376C65.694 130.173 66.3653 129.944 66.5145 129.866C66.6637 129.789 67.0604 129.63 67.396 129.514C67.7317 129.398 68.2525 129.194 68.5532 129.06C68.8543 128.927 69.1977 128.818 69.3164 128.818C69.4354 128.818 69.6087 128.7 69.7016 128.557C69.7945 128.414 70.0118 128.297 70.1847 128.297C70.3576 128.297 70.537 128.218 70.5831 128.123C70.6292 128.027 70.758 127.949 70.8699 127.949C70.9815 127.949 71.3287 127.802 71.6416 127.622C71.9545 127.442 72.5157 127.12 72.8886 126.909C74.926 125.75 76.6938 124.525 78.859 122.773C81.0869 120.97 83.585 118.628 83.8467 118.097C83.9064 117.976 84.0285 117.877 84.118 117.876C84.831 117.872 87.3322 113.628 87.3322 112.423C87.3322 112.187 87.3932 111.945 87.4678 111.886C87.6546 111.738 87.6407 107.895 87.4505 107.123C87.0474 105.486 86.8748 105.03 86.2462 103.94C83.5968 99.3476 78.5375 98.8618 75.0799 102.868C74.6225 103.398 73.9427 104.099 73.5688 104.426C73.1945 104.754 72.6445 105.251 72.3462 105.531C72.0478 105.812 71.3765 106.372 70.8543 106.776C70.3322 107.18 69.686 107.687 69.4181 107.902C68.6959 108.484 66.7498 109.715 66.5535 109.715C66.4599 109.715 66.0466 109.925 65.635 110.18C64.5636 110.846 63.4091 111.368 61.7 111.957C61.3643 112.073 60.9175 112.236 60.7069 112.321C60.4964 112.404 60.2417 112.433 60.141 112.383C60.0403 112.334 59.8159 112.394 59.6423 112.516C59.4687 112.639 59.1137 112.759 58.8537 112.783C58.5933 112.807 58.2576 112.905 58.1077 113C57.2113 113.571 46.3617 113.583 45.3578 113.014C45.2086 112.93 44.8424 112.822 44.544 112.774C43.5262 112.611 43.0522 112.452 42.8234 112.195C42.6976 112.054 42.544 111.979 42.4823 112.028C42.248 112.213 39.7475 111.197 37.407 109.965C35.6681 109.049 34.3081 108.138 32.722 106.823C32.3366 106.504 31.9626 106.242 31.891 106.242C31.8195 106.242 31.6774 106.112 31.575 105.952C31.4727 105.792 31.0383 105.37 30.6101 105.015C29.7381 104.291 29.1376 103.692 28.2974 102.709C27.9838 102.342 27.2996 101.585 26.7771 101.028C26.2547 100.47 25.5535 99.5985 25.2192 99.0906C24.8846 98.5826 24.3028 97.7374 23.9257 97.2121C23.5487 96.6868 23.0598 95.9552 22.8391 95.5862C21.8548 93.9399 20.9852 92.3657 20.5963 91.5248C20.364 91.0234 20.124 90.5732 20.0619 90.5241C19.8002 90.317 17.4784 83.956 17.0837 82.3644C16.8467 81.4093 16.6036 80.4716 16.5433 80.2805C16.1849 79.1448 15.6807 76.0221 15.2952 72.5528C14.9965 69.8625 15.1386 60.6639 15.5139 58.3998C15.5614 58.1133 15.6624 57.41 15.7384 56.8369C15.8146 56.2639 15.9391 55.4824 16.0154 55.1004C16.3693 53.3269 16.4402 52.9939 16.5328 52.6692C16.587 52.4781 16.8494 51.5013 17.1159 50.4985C17.7181 48.2314 18.3829 46.2131 18.9753 44.8546C19.2251 44.2816 19.5778 43.461 19.7595 43.0312C19.9409 42.6014 20.166 42.1326 20.2599 41.9893C20.3535 41.846 20.463 41.6116 20.503 41.4683C20.5427 41.3251 21.0709 40.3591 21.6761 39.3215C22.2817 38.2839 22.777 37.3844 22.777 37.3231C22.777 37.2615 22.9754 36.9754 23.2178 36.6871C23.4602 36.3989 23.841 35.8523 24.0637 35.4728C25.3938 33.2057 30.7515 27.2285 31.4533 27.2285C31.5299 27.2285 31.5923 27.1608 31.5923 27.0774C31.5923 26.9515 32.5712 26.0963 33.5056 25.4051C33.9077 25.1077 37.3308 22.9348 37.8309 22.6592C38.0919 22.5155 39.0074 22.1082 39.8652 21.7544C40.7229 21.4006 41.5468 21.0511 41.696 20.9773C42.1717 20.7433 43.9863 20.2779 44.4152 20.2801C44.6427 20.2814 44.8926 20.2006 44.9706 20.1008C45.3778 19.5794 50.7829 19.1778 54.1053 19.4226C57.7456 19.6909 58.2793 19.766 58.4546 20.0361C58.5421 20.1715 58.8391 20.2822 59.114 20.2822C59.6558 20.2822 62.3391 21.1041 63.3274 21.5729C63.6631 21.7323 64.2429 21.9836 64.6158 22.1321C64.9888 22.2806 65.4465 22.4981 65.633 22.6157C65.8194 22.733 66.3077 23.033 66.7179 23.2822C68.8614 24.5828 69.47 24.9927 70.6509 25.9291C71.3595 26.4909 72.0159 27.047 72.1095 27.1651C72.2034 27.2828 72.417 27.4338 72.5842 27.5003C72.9286 27.637 74.1841 28.8609 75.1114 29.9636C75.4525 30.3695 75.7814 30.7016 75.8418 30.7016C75.9021 30.7016 76.0818 30.8575 76.2415 31.0476C77.5387 32.5949 80.3847 33.3746 82.3413 32.7182C83.1232 32.456 84.118 31.9081 84.1902 31.7001C84.2153 31.6285 84.296 31.5699 84.3702 31.5699C84.5838 31.5699 86.1235 29.9961 86.2167 29.6827C86.2631 29.5268 86.4415 29.2047 86.613 28.9668C86.7849 28.7289 86.9253 28.4424 86.9253 28.3299C86.9253 28.2179 86.9711 28.0998 87.027 28.0677C87.1833 27.9791 87.6034 26.7375 87.6034 26.3646C87.6034 26.1822 87.6644 25.9851 87.739 25.9261C87.9079 25.7924 87.9218 21.6116 87.755 21.1918C87.6888 21.0259 87.5603 20.6556 87.4691 20.3691C86.9646 18.7836 86.6178 18.1675 85.2748 16.4687C83.6853 14.4587 83.3056 14.048 81.5005 12.3865C81.2394 12.1464 80.6902 11.638 80.2799 11.2569C79.8697 10.8757 79.3662 10.4763 79.1611 10.3699C78.9559 10.2636 78.7881 10.1233 78.7881 10.0591C78.7881 9.99439 78.5592 9.79121 78.2795 9.60714C77.9998 9.42306 77.6794 9.17777 77.5675 9.06272C77.2315 8.71671 73.1104 6.08364 72.0118 5.51318C71.4497 5.22101 70.8679 4.91537 70.7187 4.83375C69.8528 4.3601 67.9575 3.53871 66.6501 3.0707C66.3517 2.96391 65.9551 2.81022 65.7686 2.7299C64.5663 2.2098 61.4806 1.40751 60.0725 1.24861C59.6623 1.20216 59.2046 1.09232 59.0554 1.00463C58.4841 0.667733 47.3788 0.299148 47.1371 0.609125Z"/>
</mask>
<path fill-rule="evenodd" clip-rule="evenodd" d="M47.1371 0.609125C47.0788 0.684231 46.5017 0.804054 45.8552 0.874819C44.3772 1.03719 41.8137 1.51474 40.9501 1.78869C40.7636 1.84773 40.3364 1.9745 40.0008 2.07001C38.4137 2.52238 37.2524 2.94177 37.0917 3.12063C37.0209 3.19921 36.8378 3.26477 36.6849 3.26607C36.1668 3.27041 33.212 4.58108 31.7703 5.44633C31.3835 5.67859 31.0234 5.86874 30.9702 5.86874C30.1236 5.86874 22.1929 11.9997 20.7353 13.781C20.5447 14.0137 20.3437 14.2043 20.2887 14.2043C20.2335 14.2043 19.9483 14.4886 19.6547 14.8364C19.3611 15.1841 18.9824 15.5892 18.8132 15.7368C17.8055 16.6133 13.0192 22.8441 11.6562 25.0539C11.3205 25.5983 10.9818 26.1345 10.9035 26.2452C10.6126 26.6576 9.62189 28.4332 9.62189 28.5426C9.62189 28.6052 9.32828 29.1747 8.96956 29.809C8.61051 30.4433 8.27519 31.0793 8.22433 31.2226C8.17347 31.3659 7.87952 31.991 7.57166 32.6118C6.29954 35.1759 3.79023 41.6976 3.79023 42.4404C3.79023 42.5684 3.66818 42.9518 3.51899 43.2917C3.36981 43.6316 3.24775 44.0259 3.24775 44.1678C3.24775 44.3093 3.18774 44.5607 3.11451 44.7266C2.97516 45.0422 2.31774 47.8385 2.20653 48.5882C2.17127 48.827 2.09058 49.1787 2.02717 49.3697C1.96377 49.5607 1.87392 49.9514 1.82713 50.238C1.78068 50.5245 1.67897 51.1497 1.60133 51.6272C1.52402 52.1048 1.46605 52.6826 1.47283 52.9118C1.47927 53.1406 1.41654 53.4333 1.33314 53.5618C1.24973 53.6907 1.18497 54.1266 1.18938 54.5308C1.19379 54.9345 1.11276 55.5015 1.00935 55.7906C0.814053 56.3368 0.762856 56.9494 0.537049 61.4388C0.306156 66.0325 0.402107 73.9898 0.691317 74.2186C0.754719 74.269 0.806594 74.7691 0.806594 75.3305C0.806594 75.8914 0.877455 76.5708 0.963913 76.8395C1.05037 77.1083 1.16938 77.7582 1.22905 78.2835C1.28838 78.8088 1.40264 79.8247 1.483 80.541C1.56335 81.2574 1.68812 81.9793 1.76034 82.1452C1.83256 82.311 1.89155 82.6774 1.89155 82.9596C1.89155 83.2418 1.95258 83.521 2.02717 83.58C2.10176 83.6391 2.16279 83.8422 2.16279 84.0315C2.16279 84.4036 2.52998 85.983 3.06704 87.9214C3.25216 88.59 3.52171 89.599 3.66614 90.1629C3.81024 90.7273 3.97841 91.2743 4.03944 91.3785C4.10046 91.4831 4.26253 91.959 4.39985 92.4365C4.69889 93.478 6.65046 98.4125 7.04037 99.114C7.19226 99.3867 7.31635 99.6541 7.31635 99.7079C7.31635 99.7969 8.59729 102.448 8.83733 102.856C8.89362 102.951 9.07806 103.264 9.24691 103.551C9.41575 103.837 9.66665 104.355 9.8043 104.702C10.0457 105.311 10.2969 105.739 11.8261 108.142C12.734 109.569 18.1297 116.484 19.1912 117.581C20.2291 118.653 21.2635 119.66 23.0483 121.334C25.2694 123.418 30.68 127.1 32.9414 128.067C33.2808 128.212 33.7419 128.433 33.9657 128.558C34.1895 128.683 34.7387 128.922 35.1863 129.089C35.6338 129.256 36.058 129.459 36.1288 129.54C36.1997 129.62 36.4248 129.686 36.6293 129.686C36.8337 129.686 37.0388 129.764 37.0849 129.859C37.1311 129.955 37.3026 130.034 37.466 130.036C37.6295 130.037 38.0377 130.161 38.3733 130.311C38.709 130.462 39.3193 130.663 39.7295 130.759C40.1398 130.855 40.7501 131.009 41.0857 131.102C41.6831 131.266 42.4321 131.429 44.205 131.781C47.4992 132.437 56.4471 132.435 59.4962 131.778C59.9623 131.678 60.6947 131.522 61.1236 131.432C62.652 131.109 62.8585 131.059 63.3274 130.903C63.5885 130.815 64.3513 130.578 65.0227 130.376C65.694 130.173 66.3653 129.944 66.5145 129.866C66.6637 129.789 67.0604 129.63 67.396 129.514C67.7317 129.398 68.2525 129.194 68.5532 129.06C68.8543 128.927 69.1977 128.818 69.3164 128.818C69.4354 128.818 69.6087 128.7 69.7016 128.557C69.7945 128.414 70.0118 128.297 70.1847 128.297C70.3576 128.297 70.537 128.218 70.5831 128.123C70.6292 128.027 70.758 127.949 70.8699 127.949C70.9815 127.949 71.3287 127.802 71.6416 127.622C71.9545 127.442 72.5157 127.12 72.8886 126.909C74.926 125.75 76.6938 124.525 78.859 122.773C81.0869 120.97 83.585 118.628 83.8467 118.097C83.9064 117.976 84.0285 117.877 84.118 117.876C84.831 117.872 87.3322 113.628 87.3322 112.423C87.3322 112.187 87.3932 111.945 87.4678 111.886C87.6546 111.738 87.6407 107.895 87.4505 107.123C87.0474 105.486 86.8748 105.03 86.2462 103.94C83.5968 99.3476 78.5375 98.8618 75.0799 102.868C74.6225 103.398 73.9427 104.099 73.5688 104.426C73.1945 104.754 72.6445 105.251 72.3462 105.531C72.0478 105.812 71.3765 106.372 70.8543 106.776C70.3322 107.18 69.686 107.687 69.4181 107.902C68.6959 108.484 66.7498 109.715 66.5535 109.715C66.4599 109.715 66.0466 109.925 65.635 110.18C64.5636 110.846 63.4091 111.368 61.7 111.957C61.3643 112.073 60.9175 112.236 60.7069 112.321C60.4964 112.404 60.2417 112.433 60.141 112.383C60.0403 112.334 59.8159 112.394 59.6423 112.516C59.4687 112.639 59.1137 112.759 58.8537 112.783C58.5933 112.807 58.2576 112.905 58.1077 113C57.2113 113.571 46.3617 113.583 45.3578 113.014C45.2086 112.93 44.8424 112.822 44.544 112.774C43.5262 112.611 43.0522 112.452 42.8234 112.195C42.6976 112.054 42.544 111.979 42.4823 112.028C42.248 112.213 39.7475 111.197 37.407 109.965C35.6681 109.049 34.3081 108.138 32.722 106.823C32.3366 106.504 31.9626 106.242 31.891 106.242C31.8195 106.242 31.6774 106.112 31.575 105.952C31.4727 105.792 31.0383 105.37 30.6101 105.015C29.7381 104.291 29.1376 103.692 28.2974 102.709C27.9838 102.342 27.2996 101.585 26.7771 101.028C26.2547 100.47 25.5535 99.5985 25.2192 99.0906C24.8846 98.5826 24.3028 97.7374 23.9257 97.2121C23.5487 96.6868 23.0598 95.9552 22.8391 95.5862C21.8548 93.9399 20.9852 92.3657 20.5963 91.5248C20.364 91.0234 20.124 90.5732 20.0619 90.5241C19.8002 90.317 17.4784 83.956 17.0837 82.3644C16.8467 81.4093 16.6036 80.4716 16.5433 80.2805C16.1849 79.1448 15.6807 76.0221 15.2952 72.5528C14.9965 69.8625 15.1386 60.6639 15.5139 58.3998C15.5614 58.1133 15.6624 57.41 15.7384 56.8369C15.8146 56.2639 15.9391 55.4824 16.0154 55.1004C16.3693 53.3269 16.4402 52.9939 16.5328 52.6692C16.587 52.4781 16.8494 51.5013 17.1159 50.4985C17.7181 48.2314 18.3829 46.2131 18.9753 44.8546C19.2251 44.2816 19.5778 43.461 19.7595 43.0312C19.9409 42.6014 20.166 42.1326 20.2599 41.9893C20.3535 41.846 20.463 41.6116 20.503 41.4683C20.5427 41.3251 21.0709 40.3591 21.6761 39.3215C22.2817 38.2839 22.777 37.3844 22.777 37.3231C22.777 37.2615 22.9754 36.9754 23.2178 36.6871C23.4602 36.3989 23.841 35.8523 24.0637 35.4728C25.3938 33.2057 30.7515 27.2285 31.4533 27.2285C31.5299 27.2285 31.5923 27.1608 31.5923 27.0774C31.5923 26.9515 32.5712 26.0963 33.5056 25.4051C33.9077 25.1077 37.3308 22.9348 37.8309 22.6592C38.0919 22.5155 39.0074 22.1082 39.8652 21.7544C40.7229 21.4006 41.5468 21.0511 41.696 20.9773C42.1717 20.7433 43.9863 20.2779 44.4152 20.2801C44.6427 20.2814 44.8926 20.2006 44.9706 20.1008C45.3778 19.5794 50.7829 19.1778 54.1053 19.4226C57.7456 19.6909 58.2793 19.766 58.4546 20.0361C58.5421 20.1715 58.8391 20.2822 59.114 20.2822C59.6558 20.2822 62.3391 21.1041 63.3274 21.5729C63.6631 21.7323 64.2429 21.9836 64.6158 22.1321C64.9888 22.2806 65.4465 22.4981 65.633 22.6157C65.8194 22.733 66.3077 23.033 66.7179 23.2822C68.8614 24.5828 69.47 24.9927 70.6509 25.9291C71.3595 26.4909 72.0159 27.047 72.1095 27.1651C72.2034 27.2828 72.417 27.4338 72.5842 27.5003C72.9286 27.637 74.1841 28.8609 75.1114 29.9636C75.4525 30.3695 75.7814 30.7016 75.8418 30.7016C75.9021 30.7016 76.0818 30.8575 76.2415 31.0476C77.5387 32.5949 80.3847 33.3746 82.3413 32.7182C83.1232 32.456 84.118 31.9081 84.1902 31.7001C84.2153 31.6285 84.296 31.5699 84.3702 31.5699C84.5838 31.5699 86.1235 29.9961 86.2167 29.6827C86.2631 29.5268 86.4415 29.2047 86.613 28.9668C86.7849 28.7289 86.9253 28.4424 86.9253 28.3299C86.9253 28.2179 86.9711 28.0998 87.027 28.0677C87.1833 27.9791 87.6034 26.7375 87.6034 26.3646C87.6034 26.1822 87.6644 25.9851 87.739 25.9261C87.9079 25.7924 87.9218 21.6116 87.755 21.1918C87.6888 21.0259 87.5603 20.6556 87.4691 20.3691C86.9646 18.7836 86.6178 18.1675 85.2748 16.4687C83.6853 14.4587 83.3056 14.048 81.5005 12.3865C81.2394 12.1464 80.6902 11.638 80.2799 11.2569C79.8697 10.8757 79.3662 10.4763 79.1611 10.3699C78.9559 10.2636 78.7881 10.1233 78.7881 10.0591C78.7881 9.99439 78.5592 9.79121 78.2795 9.60714C77.9998 9.42306 77.6794 9.17777 77.5675 9.06272C77.2315 8.71671 73.1104 6.08364 72.0118 5.51318C71.4497 5.22101 70.8679 4.91537 70.7187 4.83375C69.8528 4.3601 67.9575 3.53871 66.6501 3.0707C66.3517 2.96391 65.9551 2.81022 65.7686 2.7299C64.5663 2.2098 61.4806 1.40751 60.0725 1.24861C59.6623 1.20216 59.2046 1.09232 59.0554 1.00463C58.4841 0.667733 47.3788 0.299148 47.1371 0.609125Z" stroke="#219653" stroke-width="2" mask="url(#path-2-inside-1)"/>
<path fill-rule="evenodd" clip-rule="evenodd" d="M16.7957 0.213561C16.7663 0.250897 16.315 0.325135 15.7928 0.378969C14.6902 0.492279 13.8216 0.738869 13.7046 0.971134C13.6599 1.06057 13.489 1.18734 13.3256 1.25289C12.938 1.40744 11.6554 2.68599 11.215 3.3563C9.58008 5.84392 9.4865 6.68745 9.4865 18.9445C9.4865 25.9741 9.44548 28.4278 9.32613 28.5807C9.23764 28.694 9.20645 28.8385 9.25629 28.9028C9.67773 29.442 9.75774 27.7484 9.76046 18.2481C9.76317 8.03458 9.82318 6.84461 10.4033 5.45362C10.843 4.39866 11.6442 2.91738 11.7744 2.91738C11.8256 2.91738 12.0694 2.68078 12.3166 2.39207C13.1082 1.46605 13.9945 0.992408 15.5894 0.642926C16.5571 0.430632 105.897 0.424119 107.201 0.635979C108.737 0.885609 111.617 3.0194 111.61 3.90244C111.609 4.01445 111.751 4.32703 111.924 4.59707C112.294 5.17317 112.693 6.40309 112.693 6.96703C112.693 7.18497 112.754 7.44111 112.829 7.53706C112.92 7.65254 112.954 19.7364 112.931 43.4391C112.899 76.5617 112.881 79.1253 112.677 78.5953C112.256 77.506 111.337 74.9645 111.337 74.892C111.337 74.8521 111.162 74.3294 110.948 73.7299C110.734 73.1307 110.421 72.2104 110.253 71.6851C110.085 71.1597 109.778 70.2611 109.571 69.688C109.364 69.115 108.939 67.9037 108.628 66.9964C108.317 66.089 107.859 64.7605 107.61 64.0442C107.362 63.3279 106.931 62.0775 106.653 61.2657C106.375 60.4539 105.88 59.0737 105.555 58.1985C105.229 57.3237 104.963 56.5375 104.963 56.4515C104.963 56.366 104.75 55.7404 104.488 55.0619C104.227 54.3833 104.014 53.7512 104.014 53.6574C104.014 53.5636 103.831 53.0145 103.607 52.4366C103.383 51.8592 103.2 51.3452 103.2 51.294C103.2 51.2432 102.983 50.5941 102.718 49.8517C102.453 49.1094 102.183 48.3457 102.117 48.1547C102.051 47.9637 101.78 47.2039 101.514 46.4663C101.248 45.7292 101.029 45.0649 101.028 44.9903C101.027 44.916 100.844 44.3951 100.622 43.8324C100.399 43.2698 100.216 42.7345 100.216 42.6429C100.216 42.5517 99.9679 41.8006 99.6644 40.9745C99.162 39.6069 98.9121 38.9093 98.3801 37.388C98.2801 37.1015 97.8837 35.9293 97.4996 34.7832C96.8239 32.7658 96.4696 31.7434 95.8145 29.9208C95.5253 29.116 95.2005 28.1548 94.9343 27.316C94.8736 27.125 94.6641 26.5511 94.4688 26.0409C94.2732 25.5308 94.1135 25.0034 94.1135 24.8688C94.1135 24.7342 94.0525 24.6243 93.9779 24.6243C93.9033 24.6243 93.8423 24.5128 93.8423 24.376C93.8423 24.2393 93.6663 23.6336 93.4513 23.0302C93.236 22.4267 92.9797 21.6396 92.8814 21.2815C92.7831 20.9233 92.659 20.6303 92.6051 20.6303C92.5515 20.6303 92.4674 20.3967 92.4186 20.1115C92.3698 19.8258 92.2731 19.5475 92.2043 19.4933C92.1355 19.4386 92.0792 19.241 92.0792 19.0535C92.0792 18.8664 91.9266 18.4036 91.7401 18.0254C91.5537 17.6473 91.4011 17.2644 91.4011 17.1745C91.4011 17.0851 91.2994 16.7512 91.1746 16.433C90.7644 15.385 90.723 15.2539 90.723 15.0073C90.723 14.5949 90.3972 14.5523 87.2535 14.5523C83.9678 14.5523 83.9308 14.5649 84.6201 15.4475C84.8439 15.734 85.0259 15.9038 85.0246 15.8248C85.0232 15.7458 84.8615 15.4857 84.6648 15.2469L84.3075 14.8128L87.2609 14.7659C90.5345 14.7138 90.4372 14.6826 90.7905 15.9008C90.922 16.3531 91.1726 17.0747 91.3479 17.5045C91.5235 17.9343 91.8432 18.8329 92.0589 19.5015C92.2745 20.1701 92.5895 21.1469 92.7593 21.6722C92.9288 22.1975 93.2689 23.1743 93.5147 23.8429C93.7605 24.5115 94.1861 25.7227 94.461 26.5346C94.7357 27.3464 95.1361 28.5047 95.3507 29.1081C95.5653 29.7116 95.7409 30.2373 95.7409 30.2764C95.7409 30.3155 95.9545 30.9315 96.2156 31.6457C96.4767 32.3594 96.6903 32.9807 96.6903 33.0258C96.6903 33.071 96.9096 33.7196 97.1775 34.4667C97.4453 35.2139 97.7542 36.0987 97.8641 36.4329C97.9736 36.7672 98.1509 37.2621 98.258 37.5322C98.3655 37.8026 98.4533 38.1348 98.4533 38.2702C98.4533 38.4061 98.5144 38.5168 98.589 38.5168C98.6636 38.5168 98.7246 38.6358 98.7246 38.7808C98.7246 38.9258 98.9734 39.7268 99.2776 40.5607C99.5817 41.3947 99.8933 42.2721 99.9699 42.5109C100.047 42.7497 100.191 43.1795 100.29 43.466C100.389 43.7525 100.631 44.4558 100.829 45.0289C101.026 45.602 101.341 46.5006 101.53 47.0259C101.718 47.5513 101.923 48.1373 101.983 48.3284C102.044 48.5194 102.305 49.2618 102.563 49.9781C102.821 50.6944 103.078 51.4707 103.134 51.7029C103.189 51.9356 103.379 52.4744 103.556 52.9011C103.733 53.3275 103.879 53.7625 103.881 53.868C103.882 53.973 104.095 54.606 104.355 55.2746C104.615 55.9432 104.827 56.5505 104.827 56.6239C104.827 56.6973 105.076 57.4396 105.38 58.2736C105.685 59.1076 105.983 59.9459 106.043 60.137C106.102 60.328 106.311 60.9019 106.506 61.412C106.702 61.9221 106.862 62.4084 106.862 62.4926C106.862 62.5768 107.073 63.2007 107.331 63.8792C107.588 64.5578 107.839 65.2737 107.888 65.4704C107.972 65.8068 108.457 67.177 109.52 70.0766C109.774 70.7677 109.981 71.4202 109.981 71.5266C109.981 71.6325 110.229 72.3953 110.533 73.2215C110.836 74.0481 111.133 74.8803 111.193 75.0713C111.424 75.8142 111.671 76.4719 111.812 76.7211C111.893 76.8643 112.039 77.2829 112.137 77.651C112.544 79.1839 112.856 79.9155 112.981 79.6285C113.183 79.1679 113.061 7.50754 112.858 6.56415C112.652 5.61469 112.456 5.0833 112.052 4.37696C111.883 4.08131 111.744 3.76656 111.744 3.67756C111.744 3.58856 111.637 3.40014 111.507 3.25948C109.656 1.26201 108.82 0.720202 107.065 0.379402C105.924 0.157991 16.97 -0.00524499 16.7957 0.213561ZM86.5411 17.982C86.7303 18.2447 87.0236 18.8347 87.1921 19.2936C87.361 19.752 87.5217 20.0984 87.5491 20.0637C87.6305 19.9595 87.2826 18.8937 87.167 18.8937C87.1091 18.8937 87.0612 18.78 87.0612 18.641C87.0612 18.3927 86.4537 17.5045 86.2838 17.5045C86.236 17.5045 86.3516 17.7194 86.5411 17.982ZM87.6146 20.5764C87.6085 20.7857 87.6648 21.0054 87.7393 21.0644C87.8143 21.1239 87.8879 22.0781 87.9038 23.2021L87.9326 25.2321L87.9763 23.3224C88.0008 22.2717 87.9618 21.2559 87.8899 21.0648C87.818 20.8734 87.7292 20.5999 87.6922 20.4566C87.6498 20.2921 87.6214 20.3364 87.6146 20.5764ZM87.7583 26.1894C87.659 26.6179 87.5224 27.1046 87.4549 27.2704C87.3874 27.4363 87.3345 27.6707 87.3372 27.7914C87.345 28.1474 87.7292 27.1758 87.7346 26.7864C87.7373 26.5906 87.8061 26.3448 87.8879 26.2402C87.9692 26.136 88.0143 25.9064 87.9879 25.7301C87.958 25.5313 87.8709 25.7054 87.7583 26.1894ZM72.3298 28.0541C72.2885 28.2212 72.1108 28.7487 71.9352 29.2262C71.2703 31.0357 70.9224 32.0763 70.9224 32.2543C70.9224 32.3559 70.8614 32.4389 70.7868 32.4389C70.7122 32.4389 70.6512 32.5635 70.6512 32.7158C70.6512 32.8682 70.5668 33.2003 70.4637 33.4539C70.2542 33.9692 69.5957 35.8108 69.4296 36.3461C69.3703 36.5371 69.0811 37.3577 68.7868 38.1695C68.0998 40.0649 67.8879 40.6662 67.5319 41.7294C67.0837 43.0688 66.8535 43.7382 66.5178 44.6816C66.3476 45.1591 66.115 45.8234 66.0008 46.1577C65.8862 46.492 65.5987 47.3125 65.362 47.981C65.1254 48.6496 64.8389 49.4701 64.7253 49.8044C64.612 50.1387 64.2818 51.0521 63.9912 51.8345C63.701 52.6168 63.4633 53.3283 63.4633 53.4156C63.4633 53.5029 63.2196 54.1914 62.9215 54.9455C62.6235 55.6996 62.3794 56.373 62.379 56.4424C62.3787 56.5114 62.1899 57.0975 61.9596 57.7448C61.7294 58.3917 61.446 59.1949 61.33 59.5292C61.2141 59.8634 60.8835 60.7799 60.596 61.5661C60.3081 62.3524 60.0728 63.0635 60.0728 63.1473C60.0728 63.2306 59.829 63.9161 59.531 64.6702C59.233 65.4243 58.9889 66.1042 58.9885 66.1815C58.9882 66.2583 58.7159 67.0524 58.3833 67.9454C58.0507 68.8384 57.7388 69.7722 57.6903 70.021C57.6415 70.2693 57.5472 70.5155 57.4811 70.568C57.4147 70.6205 57.3604 70.809 57.3604 70.9861C57.3604 71.1637 57.3147 71.3347 57.2587 71.3668C57.1309 71.4393 56.6823 72.5212 56.6823 72.7565C56.6823 72.8529 56.4077 73.6643 56.072 74.5595C55.7364 75.4551 55.4617 76.2405 55.4617 76.3047C55.4617 76.3694 55.2176 77.0736 54.9193 77.8702C54.6209 78.6673 54.3768 79.3641 54.3768 79.4197C54.3768 79.4753 54.1374 80.1603 53.8448 80.9426C53.1396 82.8294 52.885 83.5931 52.885 83.8236C52.885 83.9287 52.8239 84.0146 52.7493 84.0146C52.6747 84.0146 52.6137 84.1553 52.6137 84.3272C52.6137 84.4991 52.5632 84.714 52.5015 84.8047C52.4394 84.8955 52.1821 85.5949 51.9292 86.359C51.6766 87.1231 51.422 87.7743 51.3636 87.806C51.3053 87.8381 51.2575 87.9627 51.2575 88.0834C51.2575 88.2041 51.1711 88.5297 51.0649 88.8071C50.7286 89.6888 49.6301 92.8698 49.6301 92.9627C49.6301 93.0438 49.0801 94.5972 48.1867 97.0388C47.9945 97.5641 47.7924 98.1502 47.7375 98.3412C47.6826 98.5322 47.4693 99.1574 47.2635 99.7305C47.058 100.304 46.8115 101.007 46.7159 101.293C46.6203 101.58 46.3216 102.415 46.0517 103.149C45.7822 103.884 45.5615 104.529 45.5615 104.582C45.5615 104.636 45.2563 105.501 44.8834 106.503C44.5104 107.505 44.2053 108.391 44.2053 108.47C44.2053 108.55 43.9262 109.339 43.5855 110.224C43.0101 111.717 42.9128 112.321 43.2475 112.321C43.322 112.321 43.3478 112.203 43.3047 112.06C43.2617 111.916 43.361 111.427 43.5258 110.974C43.6903 110.521 43.9039 109.915 44.0008 109.629C44.2721 108.826 45.4048 105.592 45.8561 104.332C46.0785 103.712 46.3135 103.047 46.3782 102.856C46.8804 101.375 47.1482 100.605 47.5452 99.5008C47.7968 98.8014 48.0026 98.1775 48.0026 98.1142C48.0026 98.0512 48.1505 97.6075 48.3308 97.1282C49.2205 94.7682 49.9013 92.8784 49.9013 92.7699C49.9013 92.7035 50.1454 91.9976 50.4438 91.2009C50.7422 90.4038 50.9863 89.7175 50.9863 89.6745C50.9863 89.6319 51.2056 88.9855 51.4735 88.2384C51.7413 87.4912 52.0533 86.6064 52.1662 86.2721C52.2791 85.9379 52.609 85.0244 52.8995 84.2421C53.1898 83.4598 53.4274 82.7426 53.4274 82.6484C53.4274 82.5542 53.641 81.952 53.9021 81.3108C54.1632 80.6696 54.3768 80.0735 54.3768 79.9867C54.3768 79.8994 54.6819 79.0159 55.0549 78.0235C55.4278 77.0311 55.733 76.1801 55.733 76.1328C55.733 76.0855 55.9771 75.3735 56.2755 74.5504C56.5738 73.7272 56.8179 73.0144 56.8179 72.9666C56.8179 72.9184 57.0383 72.2785 57.3075 71.544C57.5767 70.8098 57.8453 70.0527 57.9043 69.8617C57.9633 69.6706 58.262 68.8471 58.5674 68.0318C58.8733 67.2165 59.1235 66.4949 59.1235 66.4281C59.1235 66.3616 59.4286 65.4764 59.8016 64.4614C60.1745 63.4464 60.4797 62.5508 60.4797 62.4709C60.4797 62.3914 60.6184 61.9899 60.7879 61.5787C60.9571 61.168 61.3053 60.2064 61.5613 59.4423C61.8172 58.6782 62.1363 57.7969 62.2702 57.4835C62.4045 57.17 62.514 56.8305 62.514 56.7294C62.514 56.6278 62.7469 55.9462 63.0317 55.2151C63.3162 54.4836 63.6298 53.6118 63.7288 53.2775C63.8275 52.9433 64.1062 52.1227 64.3486 51.4542C65.1518 49.2366 65.5237 48.1638 65.7943 47.2864C65.9415 46.8089 66.1737 46.1446 66.3103 45.8104C66.5731 45.1678 66.6368 44.9881 67.9093 41.2953C68.3535 40.0059 68.8403 38.5993 68.9912 38.1695C70.1582 34.8462 70.5993 33.5941 70.9485 32.6125C71.1696 31.9917 71.4015 31.3275 71.4646 31.1364C72.0461 29.3704 72.5912 28.0975 72.7665 28.0975C72.8798 28.0975 72.935 28.0193 72.8889 27.9238C72.754 27.6442 72.4122 27.7241 72.3298 28.0541ZM73.7077 28.7487C74.0668 29.1068 74.5479 29.6278 74.7764 29.9061C75.343 30.5955 77.0247 32.1506 77.0999 32.0542C77.1332 32.0112 76.8409 31.7108 76.45 31.3865C76.0594 31.0622 75.4254 30.4436 75.0409 30.0116C74.0393 28.885 73.2612 28.0975 73.1507 28.0975C73.0981 28.0975 73.3487 28.3905 73.7077 28.7487ZM86.5415 29.2896C86.1692 29.9452 85.6454 30.655 85.3779 30.8664C85.1103 31.0783 84.8913 31.2906 84.8913 31.3383C84.8913 31.4851 85.8983 30.6485 86.0658 30.3628C86.7127 29.2584 87.3365 28.0975 87.283 28.0975C87.2477 28.0975 86.9138 28.6341 86.5415 29.2896ZM8.80874 29.5727C8.63413 29.8114 8.52089 30.0446 8.5575 30.0919C8.59412 30.1388 8.7589 29.9434 8.92368 29.6582C9.28883 29.0261 9.23764 28.9883 8.80874 29.5727ZM7.78854 31.5576C7.24368 32.636 6.90633 33.545 7.36642 32.6946C7.88245 31.7408 8.53648 30.355 8.47071 30.355C8.42968 30.355 8.1225 30.8964 7.78854 31.5576ZM84.2729 31.8254C84.1281 31.9656 84.0708 32.0807 84.1454 32.0807C84.22 32.0807 84.3994 31.9656 84.5441 31.8254C84.6892 31.6852 84.7465 31.5706 84.672 31.5706C84.5974 31.5706 84.418 31.6852 84.2729 31.8254ZM77.2966 32.1671C77.2966 32.2973 78.3514 32.8973 78.8562 33.0545C79.5774 33.2789 81.9321 33.3453 82.0881 33.1456C82.1681 33.0432 82.4007 32.9598 82.6051 32.9598C82.8099 32.9598 83.1944 32.7957 83.4595 32.5951C84.0993 32.1119 84.0796 31.9761 83.4334 32.4145C82.0592 33.3466 78.7331 33.2077 77.4125 32.1627C77.3488 32.1124 77.2966 32.1141 77.2966 32.1671ZM6.6812 33.8715C6.41606 34.399 6.23162 34.9278 6.28756 34.9994C6.32113 35.0424 6.47573 34.7572 6.6317 34.366C6.89548 33.7039 6.92803 33.3801 6.6812 33.8715ZM4.61401 39.125C4.38481 39.7463 4.20003 40.3128 4.20342 40.384C4.21054 40.5399 4.70759 39.3512 4.96594 38.5602C5.29245 37.5613 5.04392 37.9594 4.61401 39.125ZM83.0743 41.3426C82.6943 42.4258 81.7982 45.0602 81.6432 45.5499C81.5825 45.7409 81.3733 46.3148 81.178 46.8249C80.9824 47.335 80.8227 47.8178 80.8227 47.8977C80.8227 48.057 79.9934 50.47 79.6699 51.251C79.5581 51.5215 79.4665 51.844 79.4665 51.9678C79.4665 52.0919 79.375 52.2903 79.2631 52.4093C79.1512 52.5282 79.0597 52.7957 79.0597 53.0036C79.0597 53.2116 79.0074 53.456 78.9434 53.5467C78.8796 53.6374 78.6284 54.3368 78.3856 55.1009C78.1425 55.865 77.8994 56.5683 77.8452 56.6638C77.7909 56.7593 77.6468 57.1661 77.5248 57.5681C77.403 57.9702 77.1739 58.6735 77.0152 59.1311C76.8568 59.5886 76.6761 60.1196 76.6137 60.3106C76.551 60.5016 76.313 61.191 76.0845 61.8422C75.856 62.4935 75.6691 63.0639 75.6691 63.1091C75.6691 63.1547 75.4555 63.7763 75.1945 64.4901C74.9334 65.2042 74.7198 65.8368 74.7198 65.8954C74.7198 65.9544 74.4757 66.6543 74.1773 67.4509C73.879 68.248 73.6348 68.96 73.6348 69.0333C73.6345 69.1067 73.4219 69.7141 73.1622 70.3826C72.9025 71.0512 72.6889 71.6842 72.6879 71.7893C72.6865 71.8947 72.5329 72.348 72.3465 72.7973C72.16 73.2462 72.0074 73.683 72.0074 73.7676C72.0074 73.8527 71.7633 74.5955 71.4649 75.4187C71.1666 76.2418 70.9224 76.9694 70.9224 77.0354C70.9221 77.1014 70.7095 77.7022 70.4498 78.3708C70.1901 79.0394 69.9765 79.7075 69.9755 79.8556C69.9741 80.0036 69.9026 80.215 69.8161 80.3257C69.6971 80.4781 69.7012 80.5919 69.8327 80.7946C70.0104 81.069 96.6866 81.2218 97.4701 80.9531C97.9546 80.7868 97.9176 80.6466 95.9932 75.3318C95.6989 74.52 95.3761 73.6213 95.2751 73.3348C94.7787 71.9256 94.4519 70.9926 94.1494 70.1222C93.9667 69.5968 93.6653 68.7372 93.4791 68.2119C93.293 67.6866 93.0468 66.9833 92.9319 66.649C92.817 66.3148 92.4806 65.377 92.1843 64.5652C91.888 63.7533 91.5964 62.9328 91.5367 62.7418C91.477 62.5508 91.1777 61.7272 90.8722 60.9119C90.5664 60.0966 90.3161 59.3733 90.3161 59.3051C90.3161 59.0078 89.0477 55.8151 89.0003 55.9927C88.9715 56.1012 89.1945 56.8167 89.4963 57.5829C89.7981 58.3487 90.0449 59.0308 90.0449 59.0981C90.0449 59.1653 90.2659 59.8174 90.5365 60.5468C90.8067 61.2766 91.1492 62.2252 91.297 62.655C91.4448 63.0848 91.8036 64.0485 92.0938 64.7961C92.384 65.5442 92.6217 66.2223 92.6217 66.303C92.6217 66.3838 92.841 67.0615 93.1089 67.8086C93.3767 68.5558 93.6897 69.4406 93.8039 69.7748C93.9182 70.1091 94.2094 70.9296 94.4505 71.5982C94.6919 72.2668 94.9977 73.1264 95.13 73.5084C95.2625 73.8905 95.6067 74.8343 95.8949 75.6053C96.1831 76.3768 96.419 77.1387 96.419 77.2985C96.419 77.4587 96.4801 77.5894 96.5547 77.5894C96.6292 77.5894 96.6903 77.6857 96.6903 77.8038C96.6903 77.9844 97.0632 79.0815 97.5108 80.2181C97.5996 80.4429 97.5362 80.5246 97.2073 80.6088C96.4794 80.795 70.1328 80.7317 70.0419 80.5432C69.9622 80.3783 70.0375 80.1182 70.7224 78.1971C71.1784 76.9169 71.529 75.8841 71.8721 74.8109C72.0396 74.2856 72.3526 73.3721 72.5668 72.7813C72.7814 72.1904 72.9567 71.6495 72.9567 71.5796C72.9567 71.5092 73.13 70.977 73.3416 70.3965C74.4028 67.4852 74.8554 66.1984 74.8554 66.0912C74.8554 66.026 75.0626 65.4022 75.3162 64.7045C75.5695 64.0073 76.0309 62.655 76.3415 61.6998C76.6524 60.7447 77.0247 59.6629 77.1694 59.2956C77.3139 58.9283 77.4322 58.5619 77.4322 58.4811C77.4322 58.4004 77.6763 57.6702 77.9747 56.8583C78.2731 56.0465 78.5172 55.341 78.5172 55.2898C78.5172 55.1904 78.9952 53.7868 79.557 52.2356C79.7476 51.7103 79.9534 51.1242 80.0144 50.9332C80.0754 50.7422 80.3131 50.0667 80.542 49.4324C80.7708 48.7977 80.9583 48.2315 80.9583 48.1742C80.9583 48.1165 81.1719 47.477 81.433 46.7533C81.6941 46.0296 81.9077 45.3771 81.9077 45.3024C81.9077 45.2282 82.0484 44.8236 82.2203 44.4037C82.3922 43.9835 82.6156 43.3661 82.7163 43.0319C83.1357 41.643 83.4171 40.9415 83.5219 41.0244C83.6423 41.1195 84.8913 44.3386 84.8913 44.5535C84.8913 44.6251 85.1965 45.4804 85.5694 46.4537C85.9424 47.4275 86.2475 48.2737 86.2475 48.3349C86.2475 48.3961 86.5527 49.2605 86.9256 50.2555C87.2986 51.2501 87.6037 52.1809 87.6037 52.3237C87.6037 52.4661 87.6648 52.5829 87.7393 52.5829C87.8139 52.5829 87.875 52.6988 87.875 52.8404C87.875 53.1625 88.9498 55.878 88.9555 55.5707C88.9579 55.4469 88.6548 54.5396 88.2818 53.5545C87.9089 52.5695 87.6037 51.7034 87.6037 51.63C87.6037 51.5566 87.384 50.9011 87.1155 50.173C86.8473 49.445 86.5459 48.6149 86.4459 48.3284C86.3462 48.0418 85.9861 47.0555 85.6457 46.1368C85.3053 45.2178 85.0269 44.3942 85.0269 44.3069C85.0269 44.2192 84.7916 43.5645 84.5041 42.8517C84.2166 42.1388 83.9427 41.3496 83.8952 41.0973C83.7369 40.2568 83.4225 40.3506 83.0743 41.3426ZM3.82436 41.4464C3.65653 41.8944 3.52294 42.3759 3.52769 42.5161C3.53244 42.6563 3.59482 42.5847 3.66602 42.3563C3.73756 42.128 3.8942 41.6756 4.01423 41.3517C4.13459 41.0274 4.20952 40.7327 4.18104 40.6971C4.1529 40.6615 3.99219 40.9988 3.82436 41.4464ZM3.27001 43.2997C3.04285 43.9383 3.08625 44.0747 3.33172 43.4942C3.44666 43.2229 3.51515 42.9685 3.48395 42.929C3.4531 42.889 3.35681 43.0562 3.27001 43.2997ZM2.59869 45.6423C2.50817 45.8277 2.43697 46.1564 2.44036 46.3726C2.44442 46.6513 2.50172 46.5653 2.63768 46.0773C2.854 45.2994 2.84043 45.1465 2.59869 45.6423ZM2.26066 47.0837C2.09859 47.6116 2.13724 48.0562 2.31185 47.6715C2.38916 47.5018 2.4312 47.2282 2.40543 47.0637C2.36237 46.7915 2.34983 46.7932 2.26066 47.0837ZM2.0457 48.4482C2.03587 48.7052 1.96636 48.9639 1.89177 49.023C1.81718 49.082 1.75852 49.3017 1.76158 49.511C1.76564 49.8096 1.8104 49.7623 1.97043 49.29C2.08266 48.9592 2.14945 48.5294 2.11927 48.3349C2.07791 48.0692 2.0596 48.0978 2.0457 48.4482ZM1.23537 52.157C1.07568 52.6059 1.01126 53.9422 1.15841 53.7534C1.20248 53.6969 1.26148 53.3909 1.28894 53.0735C1.31674 52.7557 1.37913 52.3203 1.42795 52.1054C1.5473 51.5783 1.42999 51.61 1.23537 52.157ZM0.965147 54.4931C0.950567 54.8274 0.900727 55.2963 0.854277 55.5351C0.789858 55.8668 0.808167 55.9236 0.932259 55.7765C1.03092 55.6588 1.07432 55.2516 1.04279 54.7345C1.0038 54.0903 0.984811 54.0321 0.965147 54.4931ZM0.630504 57.1848C0.572526 57.8534 0.508107 59.1818 0.487086 60.137C0.466403 61.0921 0.469116 61.1702 0.493528 60.3106C0.5176 59.451 0.601685 58.5884 0.680005 58.3934C0.757987 58.1989 0.802742 57.5738 0.778669 57.0042L0.73561 55.9692L0.630504 57.1848ZM0.211099 62.7561C0.098873 63.1303 0.124641 69.7874 0.239918 70.1599C0.290775 70.324 0.33214 68.6634 0.33214 66.4697C0.33214 64.2765 0.323324 62.4817 0.312814 62.4813C0.301964 62.4813 0.256192 62.605 0.211099 62.7561ZM0.42843 72.5863C0.411817 73.6778 0.455893 74.4874 0.53557 74.5504C0.610161 74.6094 0.682718 75.1807 0.696958 75.8198L0.722387 76.9816L0.772227 75.9466C0.799691 75.377 0.757987 74.7518 0.679666 74.5573C0.601346 74.3624 0.519296 73.4216 0.496918 72.4665L0.456571 70.7299L0.42843 72.5863ZM0.851565 77.3506C0.892251 77.5294 0.967181 78.3013 1.01838 79.0654C1.09907 80.2732 1.46389 81.8413 1.47949 81.0481C1.48254 80.8966 1.43982 80.7156 1.38489 80.6453C1.32997 80.5745 1.27267 80.2684 1.25707 79.965C1.18078 78.4516 1.03126 77.2255 0.911577 77.1309C0.833595 77.0688 0.808506 77.1609 0.851565 77.3506ZM1.75683 83.353C1.75649 83.5145 1.81718 83.6951 1.89177 83.7541C1.96636 83.8132 2.03655 84.111 2.04773 84.4158C2.06503 84.8872 2.07622 84.9037 2.12199 84.5278C2.15148 84.2846 2.08164 83.8549 1.9667 83.5727C1.83752 83.2549 1.75751 83.1715 1.75683 83.353ZM2.22201 85.4907C2.2732 85.7772 2.35017 86.2378 2.39289 86.5144C2.43595 86.7909 2.5597 87.2207 2.66854 87.4695L2.8662 87.9219L2.77432 87.4877C2.72414 87.249 2.61836 86.6629 2.54004 86.1853C2.46138 85.7078 2.33695 85.2389 2.26303 85.1434C2.17454 85.0288 2.16064 85.1469 2.22201 85.4907ZM3.11778 88.9004C3.11473 89.0567 3.20356 89.4084 3.31511 89.6819C3.5755 90.3218 3.58024 89.9649 3.32121 89.2008C3.21203 88.8796 3.12049 88.7441 3.11778 88.9004ZM3.53006 90.4668C3.51921 90.7546 4.07254 92.2207 4.1529 92.1178C4.17629 92.0874 4.08204 91.7566 3.94337 91.3815C3.80469 91.0069 3.65721 90.5831 3.61584 90.4399C3.5538 90.2245 3.53888 90.2293 3.53006 90.4668ZM4.47534 93.3004C4.46584 93.537 5.44672 96.0181 5.51487 95.9304C5.54572 95.8909 5.32601 95.2454 5.02663 94.4952C4.72691 93.7454 4.47907 93.2075 4.47534 93.3004ZM5.83086 96.8052C5.82747 96.9151 6.04819 97.5012 6.32147 98.1076C6.59474 98.7137 6.91819 99.4439 7.03991 99.7305C7.42779 100.641 7.64953 101.033 7.77701 101.033C7.84516 101.033 7.81125 100.896 7.7014 100.729C7.47831 100.389 6.5432 98.3677 6.11498 97.2993C5.96207 96.9172 5.83391 96.695 5.83086 96.8052ZM77.9967 99.3176C78.2195 99.4982 79.0705 99.5112 79.2831 99.3371C79.3685 99.2668 79.0732 99.2008 78.627 99.19C78.1361 99.1778 77.8869 99.2286 77.9967 99.3176ZM81.1767 99.2724C81.0221 99.3523 81.3377 99.4157 81.9751 99.4322C82.5553 99.4474 83.0062 99.4326 82.9774 99.3997C82.8502 99.2546 81.4086 99.1526 81.1767 99.2724ZM93.2998 99.2933L83.7385 99.3866L93.944 99.4283C102.651 99.4639 104.149 99.506 104.149 99.7166C104.149 100.006 104.578 101.094 104.726 101.177C104.782 101.21 104.827 101.347 104.827 101.484C104.827 101.62 104.88 101.868 104.943 102.034C105.007 102.199 105.154 102.609 105.27 102.943C105.387 103.277 105.64 103.995 105.833 104.539C106.026 105.082 106.184 105.569 106.184 105.621C106.184 105.673 106.434 106.4 106.739 107.238C107.045 108.075 107.358 108.956 107.434 109.195C107.51 109.433 107.668 109.863 107.784 110.15C108.045 110.797 108.148 111.074 108.328 111.626C108.407 111.865 108.651 112.568 108.871 113.189C109.092 113.81 109.355 114.63 109.456 115.012C109.558 115.394 109.679 115.746 109.725 115.794C109.826 115.897 110.321 117.276 110.925 119.136C111.166 119.876 111.418 120.526 111.485 120.579C111.553 120.633 111.608 120.833 111.608 121.024C111.608 121.214 111.75 121.698 111.922 122.099C112.54 123.536 113.035 125.228 112.86 125.303C112.768 125.342 112.693 125.626 112.693 125.934C112.693 126.242 112.604 126.645 112.494 126.831C112.385 127.017 112.293 127.305 112.291 127.472C112.289 127.639 112.227 127.776 112.154 127.776C112.08 127.776 111.982 127.97 111.936 128.207C111.845 128.671 110.37 130.533 109.75 130.966C107.867 132.281 109.833 132.186 83.1283 132.244C69.9629 132.273 56.6891 132.315 53.6309 132.337C36.3644 132.463 16.2068 132.295 15.2534 132.017C14.3251 131.746 12.8546 130.962 12.7641 130.69C12.739 130.616 12.6475 130.554 12.5603 130.554C12.322 130.554 11.233 129.179 10.8068 128.34C9.7808 126.32 9.76181 126.077 9.75537 114.688C9.74994 104.961 9.71536 104.294 9.18882 103.707L8.89282 103.377L9.19627 103.937L9.49972 104.496L9.49701 114.087C9.4943 124.446 9.55838 125.645 10.2124 127.476C10.8814 129.348 12.4654 131.079 14.4166 132.07C15.6179 132.679 107.125 132.674 108.323 132.064C110.603 130.903 112.829 127.93 112.829 126.046C112.829 125.794 112.902 125.494 112.991 125.38C113.171 125.151 112.879 123.884 112.386 122.75C112.244 122.422 112.017 121.796 111.883 121.36C111.749 120.924 111.418 119.956 111.149 119.209C110.88 118.463 110.659 117.791 110.659 117.716C110.659 117.641 110.452 117.072 110.2 116.451C109.947 115.831 109.696 115.136 109.642 114.907C109.587 114.678 109.341 113.944 109.094 113.276C108.847 112.607 108.555 111.787 108.444 111.452C108.334 111.118 108.024 110.233 107.756 109.486C107.488 108.739 107.269 108.084 107.269 108.031C107.269 107.978 107.091 107.456 106.875 106.872C106.658 106.287 106.197 104.988 105.849 103.985C104.453 99.9579 104.159 99.2963 103.765 99.2941C103.566 99.2928 103.281 99.2711 103.132 99.246C102.983 99.2208 98.5584 99.2421 93.2998 99.2933ZM63.1921 99.5108C63.1921 99.6289 63.0473 100.117 62.8707 100.596C61.5945 104.053 60.7509 106.408 60.7509 106.512C60.7509 106.551 60.4729 107.307 60.1335 108.193C59.7938 109.078 59.4215 110.148 59.3062 110.572C59.1906 110.995 58.9489 111.639 58.7692 112.004C58.5891 112.369 58.4969 112.668 58.5637 112.668C58.722 112.668 59.0052 112.08 59.3164 111.105C59.4537 110.675 59.8253 109.62 60.1423 108.761C60.4593 107.901 60.8242 106.885 60.953 106.503C61.0818 106.121 61.4477 105.105 61.766 104.246C62.0844 103.386 62.4855 102.253 62.6574 101.728C62.8293 101.202 63.0504 100.618 63.1487 100.43C63.2474 100.241 63.3277 99.9493 63.3277 99.7804C63.3277 99.4908 63.7464 99.4704 70.5495 99.4266L77.7713 99.3801L70.4817 99.338C64.768 99.3054 63.1921 99.3428 63.1921 99.5108ZM7.85906 101.268C7.85906 101.431 8.5375 102.795 8.76195 103.082C9.08778 103.499 8.95521 103.152 8.40154 102.14C8.10318 101.595 7.85906 101.203 7.85906 101.268ZM44.9512 112.876C45.3241 112.966 45.9955 113.06 46.443 113.086C47.1401 113.127 47.1499 113.124 46.5108 113.065C46.1006 113.027 45.7069 112.922 45.6361 112.832C45.5652 112.742 45.2295 112.678 44.8901 112.691L44.2731 112.714L44.9512 112.876ZM57.9707 112.841C57.9246 112.937 57.4784 113.03 56.9793 113.049L56.072 113.082L56.9214 113.144C57.5316 113.188 57.8551 113.13 58.0704 112.937C58.2352 112.789 58.2993 112.668 58.2125 112.668C58.1257 112.668 58.0168 112.746 57.9707 112.841ZM47.5958 113.362C47.8741 113.593 55.8252 113.593 55.9364 113.362C55.9917 113.248 54.5483 113.19 51.7064 113.191C48.8709 113.193 47.4622 113.252 47.5958 113.362Z" fill="#6FCF97"/>
<path fill-rule="evenodd" clip-rule="evenodd" d="M15.3446 0.137937C14.8744 0.206097 14.4167 0.362388 14.3275 0.484815C14.1973 0.664115 14.2319 0.68452 14.5041 0.589444C14.6906 0.524323 15.0568 0.42664 15.3179 0.371938C15.5789 0.317236 36.0443 0.24213 60.7963 0.205229C109.657 0.131859 107.444 0.0919174 109.023 1.07134C109.847 1.58276 109.896 1.60142 109.778 1.3557C109.595 0.977131 108.097 0.262102 107.2 0.125781C106.047 -0.0496112 16.5537 -0.0378895 15.3446 0.137937ZM13.487 0.872068C13.3378 0.976695 13.1242 1.12908 13.0123 1.21026C12.9004 1.29101 12.7187 1.41127 12.6085 1.47683C12.4983 1.54282 12.2776 1.77682 12.1182 1.99692C11.9589 2.21703 11.7721 2.3972 11.7032 2.3972C11.4351 2.3972 10.1643 4.61479 10.1643 5.08279C10.1643 5.22953 10.1033 5.34936 10.0287 5.34936C9.95408 5.34936 9.89576 5.48611 9.89915 5.65325C9.90288 5.83907 10.0212 5.69623 10.2043 5.28554C11.0004 3.49818 12.4668 1.60056 13.3188 1.25411C13.6168 1.13299 14.0705 0.652394 13.8698 0.671062C13.8084 0.676271 13.6362 0.767006 13.487 0.872068ZM110.27 1.92573C110.466 2.13715 110.878 2.58128 111.185 2.91209C111.492 3.24291 111.744 3.58718 111.744 3.67705C111.744 3.76692 111.882 4.0821 112.052 4.37775C112.456 5.0841 112.652 5.61549 112.857 6.56495C113.061 7.50834 113.182 79.1688 112.981 79.6295C112.856 79.9164 112.543 79.1849 112.136 77.6519C112.039 77.2838 111.893 76.8653 111.812 76.722C111.73 76.5788 111.599 76.2662 111.519 76.0274C111.439 75.7886 111.308 75.3979 111.229 75.1591C111.149 74.9203 110.836 74.049 110.532 73.2224C110.229 72.3962 109.981 71.6361 109.981 71.5327C109.981 71.4298 109.745 70.6992 109.456 69.9095C109.168 69.1194 108.791 68.0635 108.619 67.563C108.447 67.0624 108.276 66.6912 108.239 66.7385C108.202 66.7854 108.243 67.0194 108.33 67.2582C108.418 67.4965 108.546 67.8677 108.616 68.0826C108.686 68.2975 108.92 68.9813 109.136 69.6021C109.352 70.2229 109.644 71.1216 109.784 71.5992C109.924 72.0767 110.239 72.9715 110.484 73.588C110.73 74.204 110.93 74.8487 110.93 75.0206C110.93 75.1921 110.991 75.3328 111.066 75.3328C111.14 75.3328 111.201 75.4717 111.201 75.6414C111.201 75.8112 111.283 76.1042 111.382 76.2927C111.481 76.4811 111.667 76.9868 111.796 77.4166C112.551 79.9485 112.967 80.6354 113.188 79.7176C113.251 79.4549 113.273 62.9467 113.236 43.0327L113.168 6.82543L112.881 5.82604C112.579 4.77629 112.01 3.5963 111.521 3.0076C110.609 1.90706 110.241 1.52979 110.086 1.535C109.991 1.53847 110.073 1.7143 110.27 1.92573ZM9.59909 6.49766C9.47873 6.86103 9.42143 9.12811 9.39092 14.7268C9.36786 18.977 9.33396 23.8342 9.31565 25.5204C9.29768 27.207 9.32853 28.5502 9.38448 28.506C9.44042 28.4613 9.48721 24.1511 9.48856 18.9275C9.4906 11.5519 9.53467 9.06343 9.68623 7.78749C9.89373 6.04355 9.86898 5.68147 9.59909 6.49766ZM84.5122 15.0676C84.6055 15.2586 84.7624 15.4544 84.8611 15.503C84.9598 15.5512 85.0079 15.5234 84.9679 15.4405C84.8404 15.1766 85.6802 15.0741 87.9254 15.0797C90.2225 15.0854 90.5836 15.1931 90.59 15.8747C90.5917 16.0553 90.8016 16.6987 91.0566 17.3043C91.3119 17.9103 91.559 18.6323 91.6065 18.9089C91.654 19.1854 91.7492 19.4563 91.8181 19.5106C91.8869 19.5653 91.9432 19.7237 91.9432 19.8635C91.9432 20.0029 92.0957 20.4266 92.2822 20.8047C92.4687 21.1829 92.6213 21.6123 92.6213 21.7586C92.6213 21.9053 92.6752 22.1606 92.7413 22.3264C93.1326 23.311 93.7062 24.9269 93.7062 25.0454C93.7062 25.1218 93.9134 25.7427 94.167 26.4243C94.4203 27.1063 94.7336 27.9767 94.8627 28.3588C94.9923 28.7408 95.2123 29.3612 95.3516 29.7372C95.491 30.1132 95.6049 30.5139 95.6049 30.6276C95.6049 30.7414 95.6965 30.9315 95.8083 31.0505C96.1199 31.3817 96.0704 31.1863 95.2347 28.7929C95.0845 28.3631 94.7366 27.3472 94.4613 26.5354C94.1863 25.7236 93.7601 24.5123 93.5143 23.8437C93.2685 23.1752 92.9285 22.1983 92.7589 21.673C91.8187 18.7626 91.1098 16.7069 90.5422 15.2478L90.3734 14.8136L87.3582 14.7667C84.3725 14.7207 84.3447 14.7237 84.5122 15.0676ZM85.311 16.1212C85.49 16.3149 85.7436 16.6361 85.8742 16.835C86.0047 17.0338 86.1115 17.1054 86.1115 16.9939C86.1115 16.7612 85.3008 15.7687 85.1113 15.7687C85.0418 15.7687 85.1317 15.9272 85.311 16.1212ZM86.2471 17.2947C86.2471 17.3681 86.3692 17.5617 86.5184 17.7254C86.6676 17.8891 86.7896 17.9629 86.7896 17.8895C86.7896 17.8161 86.6676 17.6225 86.5184 17.4588C86.3692 17.2952 86.2471 17.2214 86.2471 17.2947ZM87.3368 19.0916C87.3341 19.1524 87.4213 19.465 87.5301 19.7863C87.6393 20.1075 87.7284 20.2534 87.7288 20.1101C87.7295 19.8601 87.3467 18.8659 87.3368 19.0916ZM88.0634 23.5832C88.0634 24.8726 88.0848 25.4001 88.1109 24.7554C88.137 24.1107 88.137 23.0558 88.1109 22.4111C88.0848 21.7664 88.0634 22.2939 88.0634 23.5832ZM87.3755 27.9368C87.2148 28.3119 87.1297 28.6193 87.1863 28.6193C87.3178 28.6193 87.8163 27.4449 87.7312 27.336C87.6959 27.2908 87.5359 27.5613 87.3755 27.9368ZM72.0691 29.4441C71.7992 30.1844 71.5269 30.9463 71.4642 31.1373C71.4011 31.3283 71.1692 31.9925 70.9482 32.6134C70.599 33.595 70.1579 34.847 68.9908 38.1704C68.84 38.6002 68.3531 40.0068 67.9089 41.2962C66.6365 44.989 66.5727 45.1687 66.31 45.8112C66.1733 46.1455 65.9411 46.8097 65.7939 47.2873C65.5234 48.1647 65.1514 49.2375 64.3482 51.4551C64.1058 52.1236 63.8271 52.9442 63.7284 53.2784C63.6294 53.6127 63.3158 54.4845 63.0314 55.216C62.7466 55.9471 62.5136 56.6287 62.5136 56.7303C62.5136 56.8314 62.4041 57.1709 62.2699 57.4844C62.1359 57.7978 61.8169 58.6791 61.5609 59.4432C61.3049 60.2073 60.9567 61.1689 60.7875 61.5796C60.618 61.9908 60.4793 62.3923 60.4793 62.4718C60.4793 62.5517 60.1742 63.4473 59.8012 64.4623C59.4283 65.4773 59.1231 66.3626 59.1231 66.429C59.1231 66.4958 58.8729 67.2174 58.5671 68.0327C58.2616 68.848 57.9629 69.6716 57.9039 69.8626C57.8449 70.0536 57.5764 70.8108 57.3072 71.5449C57.038 72.2795 56.8176 72.9194 56.8176 72.9676C56.8176 73.0153 56.5735 73.7282 56.2751 74.5513C55.9767 75.3744 55.7326 76.0864 55.7326 76.1338C55.7326 76.1811 55.4275 77.032 55.0545 78.0244C54.6816 79.0169 54.3764 79.9004 54.3764 79.9876C54.3764 80.0744 54.1628 80.6705 53.9018 81.3118C53.6407 81.953 53.4271 82.5551 53.4271 82.6493C53.4271 82.7435 53.1894 83.4607 52.8992 84.2431C52.6086 85.0254 52.2787 85.9388 52.1658 86.2731C52.0529 86.6074 51.741 87.4922 51.4731 88.2393C51.2053 88.9865 50.9859 89.6329 50.9859 89.6755C50.9859 89.7184 50.7418 90.4048 50.4434 91.2019C50.1451 91.9985 49.901 92.7045 49.901 92.7709C49.901 92.8794 49.2201 94.7692 48.3305 97.1292C48.1501 97.6085 48.0023 98.0522 48.0023 98.1152C48.0023 98.1785 47.7965 98.8024 47.5449 99.5018C47.1479 100.606 46.88 101.376 46.3779 102.857C46.3131 103.048 46.0782 103.713 45.8558 104.333C45.4591 105.441 44.4395 108.347 43.9062 109.89C43.7577 110.32 43.5438 110.925 43.4309 111.235C43.18 111.923 43.2783 112.322 43.6987 112.322C43.8727 112.322 44.0883 112.415 44.1778 112.53C44.2866 112.669 44.3405 112.675 44.3405 112.549C44.3405 112.33 44.0279 112.148 43.6513 112.148C43.3746 112.148 43.301 111.892 43.5268 111.714C43.6014 111.655 43.6624 111.422 43.6624 111.197C43.6624 110.972 43.7082 110.762 43.7642 110.73C43.8842 110.661 44.3405 109.436 44.3405 109.182C44.3405 109.085 44.6457 108.224 45.0186 107.269C45.3916 106.313 45.6967 105.417 45.6967 105.276C45.6967 105.136 45.8493 104.711 46.0358 104.333C46.2223 103.955 46.3748 103.581 46.3748 103.501C46.3748 103.422 46.5274 102.951 46.7139 102.457C46.9004 101.962 47.0529 101.476 47.0529 101.379C47.0529 101.281 47.2055 100.891 47.392 100.513C47.5785 100.135 47.731 99.7406 47.731 99.6372C47.731 99.5339 47.8836 99.0247 48.0701 98.505C48.2566 97.9858 48.5617 97.1357 48.7482 96.6165C48.9347 96.0968 49.0872 95.5876 49.0872 95.4843C49.0872 95.3809 49.2283 95.005 49.4009 94.6485C49.5731 94.2921 49.7972 93.7273 49.8983 93.393C49.9996 93.0587 50.3773 91.9933 50.7377 91.0252C51.0982 90.0571 51.3928 89.1736 51.3928 89.0616C51.3928 88.9496 51.5321 88.5302 51.7027 88.1299C51.8732 87.7296 52.1268 87.0502 52.2658 86.6204C52.4052 86.1906 52.7595 85.1747 53.0531 84.3629C53.3467 83.551 53.6356 82.7305 53.6956 82.5395C53.7553 82.3485 53.9597 81.7624 54.1503 81.2371C54.8223 79.3824 55.1901 78.2736 55.1901 78.103C55.1901 78.0084 55.3427 77.6211 55.5292 77.243C55.7157 76.8648 55.8682 76.4476 55.8682 76.3161C55.8682 76.1846 56.0703 75.5772 56.3171 74.9668C56.5643 74.3564 56.8725 73.505 57.0024 73.0752C57.1322 72.6454 57.3852 71.9031 57.5645 71.4255C57.7439 70.948 58.0229 70.1665 58.1846 69.6889C58.3464 69.2114 58.6542 68.3457 58.8688 67.7648C59.0831 67.1844 59.2587 66.6586 59.2587 66.597C59.2587 66.5353 59.5639 65.6606 59.9368 64.6529C60.3098 63.6453 60.6149 62.7523 60.6149 62.6676C60.6149 62.5834 60.7746 62.0967 60.9699 61.5866C61.1652 61.0765 61.4802 60.229 61.6701 59.7037C61.8596 59.1784 62.1576 58.3865 62.3319 57.9437C62.5065 57.5009 62.6537 56.9929 62.6591 56.8149C62.6645 56.637 62.7859 56.2566 62.929 55.9701C63.0717 55.6836 63.2277 55.3319 63.2751 55.1887C63.3229 55.0454 63.5067 54.5227 63.6837 54.0273C63.8607 53.5315 64.0054 53.0418 64.0054 52.9385C64.0054 52.8352 64.158 52.441 64.3445 52.0628C64.531 51.6847 64.6835 51.32 64.6835 51.2527C64.6835 51.1855 64.8005 50.813 64.9433 50.4244C65.6444 48.519 66.0397 47.3759 66.0397 47.2534C66.0397 47.1792 66.1923 46.7073 66.3788 46.2046C66.5653 45.7018 66.8704 44.8787 67.0569 44.376C67.2434 43.8732 67.4004 43.3457 67.4058 43.2038C67.4112 43.0618 67.5316 42.7115 67.6726 42.4249C67.9706 41.821 68.3453 40.7982 68.3453 40.5885C68.3453 40.5091 68.5894 39.8509 68.8878 39.1255C69.1861 38.4 69.4302 37.6971 69.4302 37.5634C69.4302 37.4297 69.5828 36.953 69.7693 36.5041C69.9558 36.0548 70.1083 35.582 70.1083 35.4526C70.1083 35.3237 70.1551 35.2182 70.2121 35.2182C70.3175 35.2182 70.7864 33.9549 70.7864 33.6701C70.7864 33.5841 70.9461 33.0961 71.1418 32.586C71.3371 32.0759 71.5408 31.502 71.5947 31.3109C71.8829 30.2872 72.7594 28.2763 72.9452 28.2125C73.0822 28.1652 73.0516 28.1313 72.8597 28.1183C72.6129 28.1018 72.4725 28.3375 72.0691 29.4441ZM73.2276 28.3284C73.2276 28.4968 73.782 29.1832 73.8488 29.0977C73.8796 29.0582 73.7525 28.8424 73.566 28.6188C73.3798 28.3948 73.2276 28.2641 73.2276 28.3284ZM8.80809 29.2271C8.63348 29.465 8.52125 29.699 8.55855 29.7467C8.59585 29.7945 8.7691 29.6386 8.94371 29.4007C9.11832 29.1628 9.23055 28.9288 9.19325 28.8811C9.15596 28.8333 8.9827 28.9892 8.80809 29.2271ZM86.6594 29.3039C86.497 29.5961 86.4296 29.8349 86.5092 29.8349C86.5889 29.8349 86.654 29.7624 86.654 29.6738C86.654 29.5848 86.7527 29.386 86.8737 29.2314C86.9944 29.0764 87.0619 28.9102 87.0239 28.8615C86.9859 28.8129 86.8218 29.0117 86.6594 29.3039ZM74.0413 29.2905C74.0413 29.386 74.1634 29.5136 74.3126 29.5744C74.4618 29.6352 74.5838 29.7493 74.5838 29.8279C74.5838 29.9069 74.6784 30.0181 74.7944 30.0749C75.0981 30.2239 74.9124 29.9108 74.4441 29.4837C74.2227 29.2818 74.0413 29.1949 74.0413 29.2905ZM85.0147 31.3596C84.6109 31.7203 84.107 32.1284 83.8951 32.2656C83.6829 32.4032 83.5717 32.5422 83.6476 32.5747C83.7744 32.629 84.8682 31.8415 85.0266 31.5823C85.0639 31.5211 85.308 31.2997 85.569 31.09C85.8301 30.8807 85.9772 30.7075 85.8962 30.7062C85.8152 30.7045 85.4185 30.9984 85.0147 31.3596ZM75.6691 30.9923C75.6694 31.2506 77.5224 32.7288 77.6468 32.57C77.6773 32.5304 77.5349 32.3907 77.3298 32.2587C77.125 32.1271 76.6673 31.7559 76.313 31.4334C75.9587 31.1108 75.6688 30.9124 75.6691 30.9923ZM7.44647 31.9287C7.28406 32.2209 7.18065 32.4974 7.21693 32.5439C7.25321 32.5904 7.41019 32.3511 7.56615 32.013C7.91435 31.2575 7.84621 31.2098 7.44647 31.9287ZM96.0118 31.5289C96.0118 31.6118 96.1643 32.085 96.3508 32.5799C96.5373 33.0749 96.6899 33.6301 96.6899 33.8138C96.6899 33.997 96.7356 34.1732 96.7916 34.2054C96.9181 34.277 97.6392 36.1685 97.6392 36.4282C97.6392 36.5328 97.8833 37.2183 98.1817 37.952C98.4801 38.6857 98.7242 39.382 98.7242 39.4993C98.7242 39.6165 98.9357 40.2408 99.1941 40.8868C99.4525 41.5328 99.7013 42.2791 99.7471 42.5452C99.7925 42.8113 99.8864 43.0735 99.9553 43.1278C100.024 43.1825 100.08 43.3349 100.08 43.4673C100.08 43.7634 100.633 44.9877 100.718 44.8796C100.751 44.8362 100.614 44.3447 100.412 43.7864C100.211 43.2285 99.9973 42.616 99.938 42.4249C99.8786 42.2339 99.5813 41.3956 99.2772 40.5616C98.973 39.7276 98.7242 38.9266 98.7242 38.7816C98.7242 38.6366 98.6631 38.5177 98.5886 38.5177C98.514 38.5177 98.4529 38.407 98.4529 38.2711C98.4529 38.1356 98.3651 37.8035 98.2577 37.533C98.1505 37.263 97.9732 36.7681 97.8637 36.4338C97.7538 36.0995 97.4551 35.2399 97.1995 34.5236C96.9435 33.8073 96.6238 32.8474 96.4885 32.3907C96.2613 31.6227 96.0118 31.1716 96.0118 31.5289ZM77.9743 32.7471C77.9743 32.9659 78.3005 33.1343 78.7233 33.1343C78.8992 33.1343 79.081 33.2125 79.1271 33.308C79.2654 33.5945 81.9483 33.5242 82.4003 33.222C82.7237 33.0063 82.7424 32.9628 82.5108 32.9615C82.3579 32.9611 82.1677 33.044 82.0877 33.1465C81.8147 33.496 78.5544 33.163 78.1438 32.744C78.0306 32.6286 77.9743 32.6294 77.9743 32.7471ZM6.93416 32.9985C6.84601 33.1113 6.77379 33.3136 6.77379 33.4482C6.77379 33.5902 6.6914 33.6518 6.57714 33.5958C6.44593 33.5316 6.40592 33.5828 6.4561 33.7508C6.55815 34.0916 6.57646 34.0803 6.91483 33.4717C7.21489 32.9325 7.22744 32.6229 6.93416 32.9985ZM6.27403 34.567C6.00889 35.0945 5.82445 35.6233 5.88039 35.6949C5.91362 35.7379 6.06179 35.4526 6.20961 35.0615C6.46729 34.3781 6.50187 34.1133 6.27403 34.567ZM5.57796 36.1243C5.48981 36.2371 5.41793 36.4898 5.41827 36.6856C5.41929 36.9799 5.45455 36.9548 5.62441 36.538C5.8492 35.9862 5.82852 35.8034 5.57796 36.1243ZM4.75 38.3575C4.59607 38.7651 4.49605 39.132 4.52758 39.1724C4.55911 39.2127 4.71067 38.9123 4.8646 38.5042C5.01853 38.0966 5.11855 37.7297 5.08702 37.6893C5.05548 37.649 4.90393 37.9494 4.75 38.3575ZM4.21905 39.8275C4.13225 40.071 4.06376 40.3645 4.06681 40.4796C4.06953 40.5942 4.16209 40.4227 4.27228 40.0975C4.50385 39.4142 4.45503 39.1645 4.21905 39.8275ZM83.2974 40.1935C83.2042 40.2429 83.1279 40.3732 83.1279 40.4835C83.1279 40.5933 82.9828 41.0752 82.8058 41.5541C82.0324 43.6449 81.7717 44.4129 81.7717 44.6008C81.7717 44.7111 81.5276 45.4218 81.2292 46.1794C80.9308 46.937 80.6867 47.6311 80.6867 47.7223C80.6867 47.813 80.4694 48.4946 80.2039 49.237C79.9384 49.9794 79.6241 50.8603 79.5058 51.1946C79.3875 51.5289 79.2386 51.9383 79.1749 52.1041C79.004 52.5495 79.0338 52.6537 79.2627 52.4102C79.3746 52.2912 79.4661 52.0928 79.4661 51.9686C79.4661 51.8449 79.5577 51.5223 79.6696 51.2519C79.993 50.4709 80.8223 48.0579 80.8223 47.8986C80.8223 47.8187 80.982 47.3359 81.1777 46.8258C81.373 46.3157 81.5821 45.7418 81.6428 45.5507C81.7978 45.061 82.6939 42.4267 83.074 41.3435C83.4222 40.3515 83.7365 40.2577 83.8948 41.0982C83.9423 41.3504 84.2162 42.1397 84.5037 42.8526C84.7913 43.5654 85.0266 44.2201 85.0266 44.3078C85.0266 44.3951 85.3049 45.2186 85.6453 46.1377C85.9857 47.0563 86.3458 48.0427 86.4455 48.3292C86.5455 48.6158 86.8469 49.4459 87.1151 50.1739C87.3836 50.902 87.6033 51.5575 87.6033 51.6309C87.6033 51.7043 87.9085 52.5704 88.2814 53.5554C88.6544 54.5405 88.9595 55.4023 88.9595 55.47C88.9595 55.5381 89.2647 56.3956 89.6376 57.3759C90.0106 58.3561 90.3157 59.2192 90.3157 59.2943C90.3157 59.369 90.566 60.0975 90.8718 60.9128C91.1773 61.7281 91.4777 62.5517 91.539 62.7427C92.0181 64.2374 92.6769 65.8251 92.7315 65.6167C92.7677 65.4782 92.7274 65.335 92.6416 65.2985C92.5558 65.2616 92.4857 65.1326 92.4857 65.0115C92.4857 64.8904 92.3331 64.4241 92.1466 63.9748C91.9601 63.5259 91.8076 63.0809 91.8076 62.9862C91.8076 62.8916 91.5085 62.0164 91.1434 61.0417C90.7782 60.0671 90.4341 59.0742 90.3791 58.8354C90.3242 58.5967 90.013 57.7371 89.6875 56.9252C89.362 56.1134 89.0955 55.3849 89.0955 55.3067C89.0952 55.2282 88.79 54.3621 88.4171 53.3818C88.0441 52.4015 87.739 51.5362 87.739 51.4585C87.739 51.3812 87.5328 50.7626 87.2812 50.084C87.0293 49.4055 86.7181 48.5376 86.5896 48.1556C86.4611 47.7735 86.118 46.8328 85.827 46.0652C85.5358 45.2972 85.2988 44.5939 85.2998 44.5023C85.3022 44.3165 84.598 42.4749 84.4722 42.3381C84.4285 42.2904 84.3559 42.095 84.3115 41.904C83.9399 40.3085 83.7348 39.9625 83.2974 40.1935ZM3.54773 41.8228C3.4572 42.0082 3.38329 42.3173 3.38329 42.5096C3.38329 42.7019 3.32226 42.8591 3.24767 42.8591C3.17308 42.8591 3.11408 43.0349 3.1168 43.2498C3.12324 43.7777 3.5067 42.9737 3.51416 42.4163C3.51688 42.2205 3.59113 41.9678 3.67928 41.8549C3.76777 41.7416 3.81117 41.6127 3.77591 41.5675C3.74099 41.5224 3.63825 41.6374 3.54773 41.8228ZM2.98728 44.0208C2.98118 44.2301 2.9154 44.4498 2.84081 44.5088C2.76622 44.5679 2.70994 44.7875 2.71604 44.9968C2.72282 45.2369 2.7513 45.2811 2.79368 45.1166C2.83064 44.9733 2.92422 44.6881 3.0022 44.4823C3.07984 44.277 3.11069 44.0035 3.07068 43.8745C3.02864 43.7399 2.99338 43.802 2.98728 44.0208ZM100.761 45.3007C100.762 45.4383 100.975 46.0978 101.235 46.7663C101.495 47.4349 101.707 48.0371 101.708 48.1048C101.708 48.1721 101.951 48.8754 102.249 49.6677C102.547 50.4596 102.791 51.1941 102.792 51.3001C102.792 51.406 103.006 52.0173 103.267 52.6585C103.529 53.2997 103.742 53.9353 103.742 54.0699C103.742 54.2049 103.986 54.9221 104.284 55.6636C104.583 56.4051 104.827 57.0976 104.827 57.2026C104.827 57.467 105.224 58.4599 105.378 58.5819C105.56 58.7256 105.544 58.6557 105.166 57.6533C104.98 57.1584 104.827 56.6943 104.827 56.6222C104.827 56.5501 104.614 55.9441 104.354 55.2755C104.095 54.6069 103.881 53.9739 103.88 53.8689C103.879 53.7634 103.733 53.3284 103.556 52.902C103.379 52.4753 103.188 51.9365 103.133 51.7038C103.078 51.4715 102.821 50.6953 102.563 49.979C102.305 49.2626 102.044 48.5203 101.984 48.3292C101.925 48.1382 101.716 47.5643 101.521 47.0542C101.325 46.5441 101.163 46.0361 101.161 45.9254C101.159 45.8147 101.067 45.5729 100.957 45.3875C100.816 45.1483 100.759 45.1231 100.761 45.3007ZM2.19627 46.6756C2.10304 46.8662 2.02709 47.253 2.02709 47.5352C2.02709 47.8174 1.96606 48.0965 1.89147 48.1556C1.81688 48.2146 1.75585 48.4582 1.75585 48.697C1.75585 49.4081 1.9881 49.0061 2.09253 48.1143C2.14576 47.6594 2.24849 47.1462 2.32037 46.9739C2.5082 46.5245 2.39835 46.261 2.19627 46.6756ZM1.48732 50.3193C1.40222 50.523 1.35713 50.9402 1.38696 51.2458L1.44121 51.8024L1.46291 51.1859C1.47478 50.8468 1.55683 50.4769 1.64498 50.3641C1.73347 50.2507 1.76873 50.1114 1.72398 50.0536C1.67888 49.9963 1.57242 50.1157 1.48732 50.3193ZM78.4795 54.1532C78.2018 54.9351 77.9743 55.7157 77.9743 55.8881C77.9743 56.0604 77.9251 56.2276 77.8648 56.2597C77.8044 56.2914 77.4878 57.1379 77.1613 58.1408C76.8344 59.1437 76.4259 60.292 76.2533 60.6923C76.0811 61.0925 75.94 61.511 75.94 61.6222C75.94 61.7333 75.7874 62.2131 75.601 62.6884C75.4145 63.1638 75.2619 63.6635 75.2619 63.799C75.2619 63.9344 75.2009 64.0451 75.1263 64.0451C75.0517 64.0451 74.9886 64.1819 74.9863 64.349C74.9839 64.5162 74.8923 64.8044 74.7828 64.9898C74.6733 65.1756 74.5838 65.503 74.5838 65.7179C74.5838 65.9328 74.5228 66.1568 74.4482 66.2158C74.3736 66.2749 74.3126 66.4507 74.3126 66.6065C74.3126 66.9539 74.7079 66.3604 74.715 66.0027C74.7174 65.8854 74.933 65.2051 75.1941 64.491C75.4552 63.7773 75.6688 63.1556 75.6688 63.11C75.6688 63.0648 75.8556 62.4944 76.0841 61.8432C76.3126 61.1919 76.5506 60.5025 76.6134 60.3115C76.6758 60.1205 76.8565 59.5895 77.0148 59.132C77.1735 58.6744 77.4027 57.9711 77.5244 57.569C77.6464 57.167 77.7922 56.7602 77.8489 56.6643C77.9055 56.5684 78.075 56.0899 78.2255 55.6007C78.3764 55.1114 78.6311 54.3521 78.7921 53.9136C78.9531 53.4751 79.0623 53.0297 79.0349 52.9242C79.0074 52.8183 78.7575 53.3713 78.4795 54.1532ZM0.90585 53.7443C0.809559 53.9592 0.638339 56.1564 0.726831 56.043C0.811594 55.9345 1.06961 53.7456 1.0079 53.6574C0.986544 53.6275 0.940772 53.6666 0.90585 53.7443ZM0.556967 57.0989C0.543066 57.4332 0.497633 57.902 0.456269 58.1408C0.391511 58.5133 0.4027 58.5315 0.533573 58.2689C0.617657 58.1004 0.66309 57.6316 0.63461 57.2269C0.586465 56.5462 0.580701 56.5367 0.556967 57.0989ZM105.505 59.0525C105.505 59.2084 105.566 59.3842 105.641 59.4432C105.715 59.5023 105.776 59.6573 105.776 59.7879C105.776 60.1578 106.729 62.7093 106.823 62.5895C106.893 62.5 106.528 61.3864 106.035 60.1834C105.968 60.0176 105.91 59.7832 105.908 59.6625C105.901 59.3008 105.505 58.7013 105.505 59.0525ZM0.126035 62.4939C-0.0957041 63.5485 -0.00382168 70.4313 0.23826 70.9045C0.399987 71.2202 0.407446 71.2041 0.32031 70.7309C0.133494 69.7172 0.0989108 63.3058 0.276573 62.6116C0.368456 62.253 0.407107 61.9131 0.362692 61.8562C0.318276 61.7993 0.211814 62.0863 0.126035 62.4939ZM106.87 62.955C106.865 63.0718 107.008 63.5797 107.188 64.0838C107.367 64.5878 107.623 65.3323 107.756 65.7383C107.89 66.1442 108.043 66.4763 108.097 66.4763C108.151 66.4763 108.095 66.1442 107.972 65.7383C107.634 64.6191 106.879 62.7145 106.87 62.955ZM92.7569 66.0964C92.7569 66.1741 92.8718 66.5453 93.0122 66.9213C93.2699 67.612 93.5428 68.3813 94.1487 70.1231C94.4521 70.9961 94.7878 71.953 95.2747 73.3357C95.3757 73.6223 95.6985 74.5209 95.9928 75.3328C97.9172 80.6475 97.9542 80.7877 97.4697 80.954C96.6861 81.2227 70.01 81.0699 69.8324 80.7956C69.7008 80.5928 69.6967 80.4791 69.8158 80.3267C69.9022 80.216 69.9737 80.0046 69.9751 79.8565C69.9761 79.7085 70.1897 79.0403 70.4494 78.3717C70.7092 77.7032 70.9217 77.1023 70.9221 77.0363C70.9221 76.9703 71.1662 76.2427 71.4645 75.4196C71.7629 74.5965 72.007 73.8537 72.007 73.7686C72.007 73.6839 72.1596 73.2472 72.3461 72.7983C72.5326 72.3489 72.6861 71.8957 72.6875 71.7902C72.6885 71.6851 72.9021 71.0521 73.1618 70.3836C73.4215 69.715 73.6341 69.1089 73.6345 69.0369C73.6345 68.9648 73.787 68.5007 73.9735 68.0058C74.3539 66.996 74.3678 66.933 74.1773 67.0837C74.0006 67.2235 73.37 68.9935 73.271 69.6282C73.2286 69.9004 73.1405 70.1231 73.075 70.1231C73.0096 70.1231 72.9564 70.1991 72.9564 70.292C72.9564 70.3849 72.799 70.9124 72.6071 71.4641C72.2227 72.5686 71.9816 73.2828 71.771 73.9435C71.6948 74.1823 71.4727 74.7953 71.2774 75.3054C71.0818 75.8155 70.9221 76.3105 70.9221 76.4051C70.9221 76.4997 70.678 77.2083 70.3796 77.9797C70.0812 78.7508 69.8371 79.5214 69.8371 79.6915C69.8371 79.8617 69.7761 80.0493 69.7015 80.1083C69.4323 80.3215 69.5509 81.0521 69.871 81.1511C70.0388 81.2032 76.4011 81.2241 84.0094 81.198L97.8427 81.1502L97.8871 80.5559C97.9271 80.0176 97.8213 79.5491 97.4924 78.8059C97.0354 77.7726 96.1474 75.262 96.1474 75.0028C96.1474 74.8978 96.0864 74.8118 96.0118 74.8118C95.9372 74.8118 95.8762 74.7289 95.8762 74.6273C95.8762 74.5261 95.7185 73.9987 95.5263 73.4551C95.3337 72.912 95.1245 72.3111 95.0611 72.1201C94.9977 71.9291 94.7651 71.2649 94.544 70.6441C94.3233 70.0232 93.9781 69.0464 93.7774 68.4734C93.019 66.3083 92.7569 65.6975 92.7569 66.0964ZM0.5668 75.8537C0.5668 76.188 0.594602 76.3248 0.628846 76.1576C0.662751 75.9905 0.662751 75.717 0.628846 75.5498C0.594602 75.3827 0.5668 75.5194 0.5668 75.8537ZM0.749887 77.9255C0.778028 78.5393 0.854653 79.1107 0.92009 79.1945C0.988917 79.2826 1.01096 78.9561 0.971965 78.4256C0.870928 77.0428 0.691231 76.6382 0.749887 77.9255ZM1.08249 80.7491C1.07978 80.9106 1.13878 81.0912 1.21337 81.1502C1.28796 81.2093 1.34899 81.511 1.34899 81.8206C1.34899 82.1301 1.40493 82.4574 1.47308 82.5482C1.54157 82.6389 1.62464 82.9085 1.6582 83.1473C1.70906 83.5111 1.72194 83.4903 1.73754 83.0171C1.74737 82.7066 1.69482 82.4527 1.62023 82.4527C1.54564 82.4527 1.48257 82.1987 1.47986 81.8883C1.47478 81.2944 1.09165 80.196 1.08249 80.7491ZM1.75585 84.247C1.75585 84.5973 1.81688 84.8839 1.89147 84.8839C1.96606 84.8839 2.02709 85.1035 2.02709 85.3718C2.02709 85.6397 2.12372 86.0109 2.24171 86.1967C2.45294 86.5288 2.45463 86.5288 2.35766 86.1863C2.30341 85.9953 2.19187 85.3957 2.10914 84.8543C1.92876 83.6687 1.75585 83.3717 1.75585 84.247ZM2.70587 87.9463C2.70553 88.0548 2.79639 88.3674 2.90794 88.6409C3.01915 88.9144 3.11069 89.0499 3.11137 88.9413C3.11171 88.8328 3.02084 88.5202 2.9093 88.2467C2.79809 87.9732 2.70654 87.8377 2.70587 87.9463ZM3.11205 89.7358C3.11205 89.9325 3.17308 90.0935 3.24767 90.0935C3.32226 90.0935 3.38329 90.2794 3.38329 90.5064C3.38329 90.7335 3.49009 91.0265 3.62062 91.1576C3.82677 91.3647 3.83796 91.3617 3.70606 91.1355C3.62266 90.9922 3.51348 90.5845 3.46364 90.2299C3.36396 89.5209 3.11205 89.1671 3.11205 89.7358ZM4.07699 92.5469C4.06851 92.7978 4.15293 93.1004 4.26482 93.2193C4.48249 93.4507 4.5503 93.2254 4.34585 92.9502C4.27838 92.8594 4.19396 92.6289 4.15802 92.4379C4.10682 92.1644 4.08953 92.1874 4.07699 92.5469ZM4.49978 93.8706C4.52928 93.9422 4.63201 94.2548 4.72762 94.5652C4.82323 94.8756 4.95106 95.1296 5.01175 95.1296C5.0721 95.1296 5.00395 94.817 4.85951 94.4349C4.71542 94.0529 4.56352 93.7403 4.52148 93.7403C4.47978 93.7403 4.46995 93.7989 4.49978 93.8706ZM5.48676 96.3452C5.60508 96.8752 5.82614 97.2147 5.82004 96.8574C5.81767 96.719 5.72002 96.4493 5.60271 96.2583C5.39555 95.921 5.39216 95.9236 5.48676 96.3452ZM5.82445 97.2738C5.82445 97.4448 6.26725 98.4373 6.38558 98.5306C6.46085 98.5901 6.39473 98.3183 6.23843 97.9263C5.99635 97.3181 5.82445 97.0472 5.82445 97.2738ZM6.50255 98.8554C6.50255 98.8988 6.65512 99.2226 6.8416 99.5743C7.25117 100.347 7.29491 100.183 6.89822 99.3611C6.6402 98.8267 6.50255 98.6504 6.50255 98.8554ZM63.2951 99.1701C63.1785 99.2878 62.9191 99.853 62.7194 100.426C62.5197 100.999 62.2142 101.859 62.0406 102.336C61.6233 103.485 60.8784 105.539 60.3715 106.938C60.1471 107.559 59.7436 108.665 59.4754 109.396C59.2069 110.127 58.9875 110.808 58.9875 110.909C58.9875 111.011 58.8329 111.448 58.6441 111.881C58.4552 112.315 58.3325 112.669 58.3711 112.669C58.504 112.669 59.096 111.341 59.3059 110.573C59.4212 110.15 59.7934 109.079 60.1332 108.194C60.4725 107.308 60.7506 106.552 60.7506 106.513C60.7506 106.409 61.5941 104.054 62.8703 100.597C63.047 100.118 63.1917 99.6299 63.1917 99.5118C63.1917 99.2821 64.613 99.2704 90.5192 99.2895C97.4561 99.2947 103.355 99.2986 103.629 99.2982C104.182 99.2973 104.333 99.6164 105.848 103.986C106.196 104.989 106.658 106.288 106.874 106.873C107.091 107.457 107.268 107.979 107.268 108.032C107.268 108.085 107.488 108.74 107.755 109.487C108.023 110.234 108.333 111.119 108.444 111.453C108.554 111.788 108.847 112.608 109.094 113.277C109.341 113.945 109.587 114.679 109.642 114.908C109.696 115.137 109.947 115.832 110.199 116.452C110.452 117.073 110.659 117.642 110.659 117.717C110.659 117.792 110.879 118.464 111.148 119.21C111.418 119.957 111.748 120.925 111.882 121.361C112.017 121.797 112.243 122.423 112.386 122.751C112.879 123.885 113.17 125.152 112.991 125.381C112.902 125.495 112.829 125.795 112.829 126.047C112.829 127.931 110.602 130.904 108.323 132.065C107.124 132.675 15.6176 132.681 14.4163 132.071C12.4651 131.08 10.881 129.349 10.2121 127.477C9.55807 125.646 9.49399 124.446 9.4967 114.101L9.49941 104.525L9.12002 103.778C8.9115 103.367 8.66298 102.926 8.5677 102.797C8.47277 102.669 8.30019 102.33 8.18458 102.043C8.06896 101.757 7.94385 101.561 7.9069 101.609C7.84655 101.686 7.99742 102.012 8.83996 103.623C9.34006 104.579 9.35057 104.795 9.35769 114.46C9.36515 125.021 9.4689 127.005 10.0443 127.603C10.09 127.651 10.1707 127.866 10.2229 128.081C10.2755 128.296 10.3752 128.472 10.4447 128.472C10.5142 128.472 10.5712 128.568 10.5712 128.686C10.5712 129.569 13.6453 132.179 15.0958 132.526C15.9468 132.73 106.504 132.779 107.404 132.576C108.325 132.369 110.388 131.199 110.388 130.884C110.388 130.799 110.448 130.729 110.521 130.729C110.594 130.729 110.975 130.295 111.368 129.764C113.332 127.111 113.61 125.285 112.491 122.394C112.325 121.964 112.124 121.417 112.044 121.178C111.965 120.939 111.651 120.052 111.347 119.207C111.043 118.362 110.794 117.594 110.794 117.499C110.794 117.405 110.54 116.69 110.23 115.91C109.919 115.13 109.623 114.336 109.572 114.145C109.522 113.954 109.31 113.329 109.102 112.756C108.642 111.488 108.533 111.145 108.411 110.585C108.359 110.346 108.279 110.112 108.233 110.064C108.08 109.904 107.675 108.823 107.675 108.574C107.675 108.438 107.614 108.327 107.539 108.327C107.465 108.327 107.404 108.171 107.404 107.979C107.404 107.787 107.261 107.259 107.087 106.807C106.391 104.998 106.056 104.032 105.822 103.161C105.688 102.66 105.53 102.249 105.473 102.249C105.416 102.249 105.37 102.163 105.37 102.057C105.37 101.539 104.343 99.2509 104.045 99.1063C103.514 98.8475 63.5538 98.9105 63.2951 99.1701ZM7.18065 100.394C7.18065 100.575 7.70686 101.288 7.77195 101.195C7.80009 101.154 7.67872 100.927 7.50207 100.69C7.32543 100.453 7.18065 100.32 7.18065 100.394ZM45.7106 112.929C45.9239 113.203 57.7066 113.163 57.9212 112.888C58.0548 112.717 57.9656 112.694 57.4872 112.776C56.5731 112.934 47.6093 113.062 47.3486 112.921C46.9784 112.722 45.5543 112.729 45.7106 112.929Z" fill="#27AE60"/>
</svg>
