<svg width="202" height="320" viewBox="0 0 202 320" fill="none" xmlns="http://www.w3.org/2000/svg">
<path fill-rule="evenodd" clip-rule="evenodd" d="M186.174 168.174C184.742 166.976 183.105 165.964 181.256 165.903C177.743 165.782 175.809 168.775 175.699 172.548C175.613 175.415 176.707 178.066 180.259 179.65C182.645 180.711 182.848 182.17 182.725 183.076C182.537 184.295 181.562 184.784 180.713 184.722C179.573 184.641 178.4 184.068 176.645 182.753L175.491 186.362C177.074 187.942 179.213 189.113 181.277 189.06C183.914 188.994 186.043 186.981 186.458 183.533C186.839 180.372 185.732 177.145 182.621 175.7C179.568 174.28 179.452 173.126 179.525 172.029C179.625 171.175 180.082 170.045 181.699 170.234C182.581 170.38 183.875 170.973 185.028 171.806L186.174 168.174ZM165.781 174.939C165.781 171.812 166.562 170.102 167.938 170.102C168.666 170.102 169.18 170.527 169.531 171.385C169.855 172.198 169.963 173.055 169.963 174.681V174.938H165.781V174.939ZM172.15 182.429C171.042 183.886 169.882 184.611 168.64 184.611C166.778 184.611 165.726 182.687 165.726 179.305L173.714 179.133V177.805C173.714 173.224 173.147 170.271 171.878 168.214C170.988 166.761 169.477 165.901 167.885 165.901C166.049 165.901 164.673 166.846 163.539 168.856C162.323 170.998 161.812 173.608 161.812 177.546C161.812 184.441 164.375 188.893 168.344 188.893C170.288 188.893 171.961 187.909 173.553 185.852L172.15 182.429ZM143.12 157.399C142.024 157.399 141.119 158.798 141.119 160.537C141.119 162.274 142 163.672 143.071 163.672C143.331 163.674 143.588 163.593 143.829 163.436C144.069 163.279 144.287 163.048 144.471 162.757C144.655 162.466 144.801 162.12 144.9 161.739C144.999 161.358 145.05 160.949 145.05 160.537C145.049 158.798 144.192 157.399 143.12 157.399ZM141.284 167.23V188.296H144.902V165.709L141.284 167.23ZM134.329 172.084V182.7C133.993 183.303 133.277 184.014 132.602 184.014C130.711 184.014 130.092 182.472 130.092 177.765C130.092 172.884 130.794 170.743 132.413 170.743C133.061 170.743 133.679 171.198 134.329 172.084ZM137.918 156.615L134.328 158.119V167.273C133.648 166.516 132.978 166.162 131.981 166.162C128.471 166.162 126.068 170.872 126.068 177.72C126.068 184.525 128.281 188.853 131.791 188.853C133.032 188.853 133.922 188.262 134.622 187.462C134.746 187.823 134.905 188.118 135.044 188.295H137.917V156.615H137.918ZM148.438 167.233V188.296H152.056V174.004C152.056 171.814 153.392 170.956 154.143 170.966C155.087 170.966 155.78 171.559 155.78 174.038V188.295H159.343V172.284C159.343 170.915 159.262 169.972 159.074 169.159C158.641 167.273 157.291 165.989 155.753 165.989C154.944 165.989 153.997 166.334 153.269 166.93C152.676 167.445 152.594 167.564 152.055 168.161V165.708L148.438 167.233ZM117.603 167.233V188.296H121.221V174.113C121.221 173.303 121.39 172.458 121.764 171.933C122.351 171.107 122.951 170.959 123.435 170.959C123.841 170.959 124.135 171.019 124.53 171.162L125.487 166.337C124.92 165.951 124.678 165.863 124.137 165.863C123.73 165.863 123.125 166.147 122.827 166.359C122.211 166.811 121.791 167.255 121.222 168.026V165.713L117.603 167.233ZM110.807 178.704V183.245C110.259 184.118 109.483 184.913 108.808 184.913C107.89 184.913 107.218 183.759 107.218 182.046C107.218 179.434 108.08 178.704 110.591 178.704H110.807ZM104.47 168.765C104.995 168.19 105.544 167.671 106.112 167.212C107.513 166.249 108.404 165.903 109.673 165.903C111.994 165.903 113.587 167.273 114.128 169.716C114.316 170.613 114.397 171.301 114.37 173.654L114.368 188.295H111.502C111.335 188.108 111.087 187.569 111.027 187.268C110.25 188.429 108.958 189.058 107.824 189.058C105.084 189.058 103.357 186.627 103.357 182.26C103.357 177.122 105.598 174.726 109.998 174.726C110.267 174.726 110.509 174.726 110.807 174.767V173.869C110.807 171.428 110.509 170.613 109.187 170.613C108.205 170.613 107.011 171.282 105.806 172.334L104.47 168.765ZM96.9175 159.722V183.157C96.9175 186.367 96.836 187.568 96.5395 188.638C96.2158 189.837 95.324 191.293 94.3528 192.233L96.1061 195.315C97.8072 194.287 99.9406 191.975 100.479 188.336C100.668 187.137 100.75 186.369 100.75 182.513V158.117L96.9175 159.722Z" fill="#219653"/>
<path fill-rule="evenodd" clip-rule="evenodd" d="M34.2596 142.529L44.2426 138.609L38.1735 153.708L34.2596 142.529ZM44.2426 138.609L54.2255 134.692L48.1564 149.79L44.2426 138.609ZM32.1043 168.806L42.0873 164.891L36.0192 179.99L32.1043 168.806ZM42.0873 164.891L52.0712 160.972L46.0021 176.072L42.0873 164.891Z" fill="#219653"/>
<path fill-rule="evenodd" clip-rule="evenodd" d="M28.1917 157.627L38.1736 153.712L32.1055 168.81L28.1917 157.627ZM38.1736 153.708L48.1565 149.79L42.0874 164.891L38.1736 153.708Z" fill="#219653"/>
<path fill-rule="evenodd" clip-rule="evenodd" d="M48.1558 149.79L58.1377 145.873L52.0706 160.973L48.1558 149.79ZM36.0186 179.991L46.0015 176.072L39.9324 191.17L36.0186 179.991ZM54.2239 134.692L64.2057 130.775L58.1377 145.873L54.2239 134.692ZM58.1377 145.873L68.1195 141.956L62.0504 157.056L58.1377 145.873ZM52.0706 160.973L62.0504 157.056L55.9844 172.154L52.0706 160.973Z" fill="#219653"/>
<path fill-rule="evenodd" clip-rule="evenodd" d="M46.0021 176.072L55.985 172.154L49.9159 187.253L46.0021 176.072Z" fill="#219653"/>
<path fill-rule="evenodd" clip-rule="evenodd" d="M85.1562 135.304C85.169 135.282 85.1845 135.265 85.2018 135.253C85.219 135.241 85.2376 135.235 85.2564 135.236C85.3389 135.236 85.3964 135.375 85.3943 135.507C85.3619 137.47 85.2345 138.904 85.2345 138.914C83.6473 163.76 76.5558 176.851 61.4885 191.149C53.3465 198.872 51.1004 204.768 49.7366 207.852C47.1824 213.625 45.2725 224.891 44.6856 228.632L41.5059 233.266C42.7736 200.78 49.1727 193.166 58.2722 178.179C66.5259 164.584 69.8111 153.992 70.1223 140.868C70.2538 135.299 69.3903 129.037 69.2326 128.053C69.2206 127.973 69.2091 127.894 69.1981 127.814C69.1772 127.66 69.171 127.521 69.2545 127.467C69.3464 127.404 69.4435 127.48 69.5887 127.708C75.8071 137.491 77.5813 147.387 77.5813 147.387L85.1562 135.304ZM14.7577 163.121L14.7525 163.06C14.7525 162.934 14.811 162.856 14.8903 162.856C14.9196 162.856 14.9405 162.873 14.9739 162.898L19.9215 167.611C20.9689 154.954 24.9192 147.109 29.1954 141.663C29.257 141.581 29.329 141.481 29.4001 141.453C29.4867 141.418 29.5661 141.442 29.5723 141.632C29.5641 141.744 29.5413 141.851 29.5055 141.948C19.8045 172.72 37.213 191.974 38.8995 193.744L38.2667 195.321C20.406 188.547 15.6349 169.625 14.7577 163.121Z" fill="#219653"/>
<path fill-rule="evenodd" clip-rule="evenodd" d="M64.5604 125.182L62.213 126.103L70.8123 86.2018C75.1724 85.7823 79.5471 85.9496 83.8893 86.702L64.5604 125.182ZM56.8675 128.203L54.7665 129.03L55.8045 89.8157C59.683 88.299 63.625 87.2247 67.6002 86.601L56.8675 128.203ZM49.5871 131.06L47.6218 131.834L42.8131 96.7469C44.4728 95.6034 46.1568 94.5506 47.862 93.5901C49.4868 92.6741 51.1295 91.84 52.7877 91.0893L49.5871 131.06ZM42.7306 133.751L40.7675 134.522L31.6116 106.343C34.3267 103.505 37.1591 100.959 40.0897 98.7244L42.7306 133.751ZM35.9023 136.429L34.0248 137.167L22.6875 117.577C24.7826 114.414 27.0125 111.484 29.3612 108.807L35.9023 136.429Z" fill="#219653"/>
</svg>
