<svg width="126" height="175" viewBox="0 0 126 175" fill="none" xmlns="http://www.w3.org/2000/svg">
<path d="M112.705 14.3761L100.035 28.7723L100.513 30.9468C100.797 32.1348 101.594 35.6181 102.321 38.6584C103.03 41.6987 104.306 47.135 105.156 50.7391C107.07 58.8936 108.435 64.7729 110.118 71.8804C110.827 74.9208 112.103 80.3571 112.953 83.9612C113.804 87.5653 114.92 92.317 115.434 94.5318C115.966 96.7466 117.029 101.317 117.827 104.7C118.624 108.082 119.847 113.338 120.573 116.378C121.282 119.418 122.434 124.351 123.143 127.351C123.834 130.331 124.454 132.928 124.525 133.09C124.596 133.251 124.685 132.566 124.72 131.579L124.773 129.767L125.163 131.378L125.571 132.969L125.677 95.0352C125.872 34.4503 125.837 -1.98354e-06 125.588 -1.98354e-06C125.482 -1.98354e-06 119.67 6.46319 112.705 14.3761Z" fill="#FFFBFB"/>
<path d="M95.587 34.2287C95.4098 34.4502 95.2149 34.5911 95.1617 34.5307C95.0908 34.4905 91.9719 37.9335 88.2328 42.1819L81.4457 49.8934L98.5995 84.9477C108.027 104.237 115.771 119.982 115.824 119.942C115.86 119.881 115.7 119.056 115.452 118.069C115.204 117.103 115.027 116.277 115.062 116.237C115.098 116.197 115.505 116.942 115.966 117.888C116.427 118.854 116.834 119.579 116.888 119.539C116.923 119.478 116.445 117.324 115.807 114.727C114.743 110.418 114.105 107.8 110.543 93.0619C109.87 90.2833 108.771 85.6927 108.098 82.894C106.361 75.7462 104.199 66.8064 102.764 60.907C102.091 58.1284 100.903 53.1955 100.106 49.9337C98.8299 44.6785 96.5085 35.1348 96.2781 34.1683C96.1541 33.7253 95.9769 33.7253 95.587 34.2287Z" fill="#FFFBFB"/>
<path d="M78.5748 53.7591C78.3976 53.9806 78.2026 54.1014 78.1318 54.0612C77.9545 53.9404 65.6385 68.0144 65.6385 68.3567C65.6385 68.4977 67.2866 70.6521 69.289 73.1286C71.2915 75.6052 77.1039 82.7731 82.2076 89.0954C87.3112 95.3975 93.6907 103.29 96.3666 106.592C99.0601 109.915 103.207 115.029 105.599 117.989C107.991 120.928 111.447 125.217 113.29 127.512C115.151 129.787 116.692 131.64 116.728 131.579C116.763 131.539 116.391 130.714 115.895 129.727L114.991 127.955L116.444 129.667C117.242 130.613 117.827 131.197 117.756 130.995C117.685 130.774 116.444 128.237 115.009 125.358C113.574 122.458 110.455 116.197 108.08 111.445C105.723 106.673 103.295 101.78 102.675 100.572C100.602 96.4244 98.4576 92.1156 97.3412 89.8403C96.721 88.6121 95.6932 86.5584 95.0729 85.3101C94.4527 84.0819 93.2654 81.6858 92.4502 80.0348C91.6174 78.3636 90.2174 75.5649 89.3314 73.7931C88.463 72.0212 85.8226 66.7258 83.4835 62.0143C81.1266 57.323 79.1418 53.437 79.0532 53.3967C78.9824 53.3766 78.752 53.5377 78.5748 53.7591Z" fill="#FFFBFB"/>
<path d="M64.0437 70.2698C63.8665 70.4913 63.6361 70.6725 63.5298 70.6725C63.4234 70.6725 60.4818 73.9142 56.9907 77.8807L50.6466 85.0889L74.4458 103.492C87.5416 113.62 100.354 123.526 102.941 125.519C105.528 127.512 109.994 130.976 112.865 133.21C115.736 135.445 118.128 137.237 118.163 137.197C118.217 137.137 117.738 136.513 117.118 135.808C116.48 135.083 116.037 134.499 116.125 134.499C116.196 134.499 116.905 135.002 117.685 135.606C118.465 136.231 119.138 136.694 119.173 136.653C119.209 136.613 112.209 128.036 103.615 117.566C95.0198 107.116 83.0937 92.5789 77.104 85.2701C63.1399 68.2363 64.4512 69.7463 64.0437 70.2698Z" fill="#FFFBFB"/>
<path d="M49.4948 87.0015C49.3176 87.223 49.0872 87.3639 48.9809 87.3035C48.8568 87.2632 46.2696 90.0821 43.2039 93.5855C40.1381 97.109 29.1512 109.633 18.7844 121.452C8.39997 133.271 -0.0529134 142.996 0.000249401 143.036C0.0534122 143.096 13.9998 143.197 30.9941 143.257C48.0062 143.318 75.3496 143.398 91.7592 143.459C118.535 143.559 121.583 143.539 121.495 143.257C121.406 143.016 121.513 142.955 121.991 142.955C122.328 142.955 122.611 142.895 122.611 142.794C122.611 142.714 120.751 141.224 118.482 139.492C116.214 137.761 111.057 133.774 107.017 130.653C102.977 127.532 97.7488 123.505 95.4097 121.713C91.5288 118.713 83.5367 112.572 64.3626 97.7533C56.9021 91.9948 50.3454 86.9612 50.0264 86.7196C49.9201 86.6592 49.672 86.78 49.4948 87.0015Z" fill="#FFFBFB"/>
<path d="M20.4679 145.996C19.3515 146.298 17.0832 147.747 16.144 148.774C14.9921 150.023 14.4959 151.17 14.3719 152.761C14.301 153.868 14.2478 154.029 13.982 153.929C13.7871 153.868 13.6276 153.949 13.5567 154.13C13.5036 154.311 13.3795 154.412 13.2732 154.331C13.1846 154.271 12.9542 154.392 12.7416 154.633C12.5466 154.855 12.3163 155.036 12.2277 155.036C12.1391 155.036 11.9618 155.338 11.8555 155.721C11.7492 156.103 11.5011 156.647 11.3062 156.929C10.9695 157.412 10.8277 157.452 9.6404 157.452C8.93156 157.452 8.22272 157.392 8.06323 157.331C7.81514 157.231 7.7797 156.607 7.7797 152.6V147.989H8.22272C8.47081 147.989 8.66574 147.888 8.66574 147.788C8.66574 147.667 8.91384 147.586 9.19737 147.586C9.55179 147.586 9.729 147.486 9.729 147.284C9.729 147.123 9.85305 146.982 10.0125 146.982C10.1897 146.982 10.2606 146.841 10.2252 146.519C10.172 146.076 10.1543 146.076 6.37974 146.016C3.11909 145.976 2.49885 146.016 1.91406 146.318C1.5242 146.499 1.22294 146.781 1.22294 146.922C1.22294 147.063 1.0989 147.184 0.957129 147.184C0.815361 147.184 0.691315 147.365 0.691315 147.586C0.691315 147.908 0.815361 147.989 1.27611 147.989C2.44569 147.989 2.44569 148.009 2.48113 152.882C2.48113 157.291 2.41025 157.855 1.84318 157.855C1.47104 157.855 0.655873 158.862 0.762199 159.164C0.903966 159.627 12.2454 159.607 12.5644 159.164C12.6884 159.003 12.9365 158.862 13.1314 158.862C13.7517 158.862 14.1061 158.237 14.2124 156.929C14.3896 155.016 14.4782 154.895 14.9921 156.043C15.5415 157.291 16.3921 158.137 17.8806 158.942C18.9439 159.526 19.1743 159.566 20.8932 159.566C22.7893 159.546 23.7817 159.264 25.8019 158.117C26.5993 157.674 28.2828 155.62 28.6727 154.633L28.9917 153.808L29.1157 154.633C29.2752 155.801 29.7891 156.868 30.5511 157.613C32.6954 159.768 36.0623 160.231 39.447 158.862C40.2976 158.499 41.2723 158.117 41.609 157.996C41.928 157.855 42.4773 157.472 42.814 157.15C43.3811 156.586 43.3988 156.526 43.1507 156.123L42.8672 155.68L41.5027 156.305C40.2976 156.868 39.9078 156.949 38.4015 156.949C36.7889 156.949 36.6471 156.909 35.9206 156.345C34.7687 155.439 34.2725 154.15 34.2725 152.117C34.2725 150.304 34.5383 149.278 35.194 148.392C35.5839 147.848 35.7434 147.788 36.6294 147.788C38.3129 147.808 39.5356 148.653 40.1204 150.264C40.3508 150.929 40.4571 151.009 41.0065 151.009C41.4318 151.009 41.6267 150.908 41.6267 150.707C41.6267 150.526 41.7862 150.405 42.0697 150.405C42.9203 150.405 43.133 149.882 43.0798 147.949L43.0267 146.197L41.8394 146.036C39.6065 145.734 35.9737 145.835 34.8928 146.257C32.6422 147.123 29.7714 149.559 29.4879 150.868C29.3461 151.472 29.0448 151.593 29.0448 151.049C29.0271 149.841 27.4677 147.526 26.1209 146.741C24.5969 145.835 22.2223 145.533 20.4679 145.996ZM22.2932 148.049C23.002 148.432 23.3741 149.419 23.5868 151.392C23.7286 152.741 23.7286 153.707 23.5868 155.036C23.321 157.432 23.2146 157.654 22.2046 157.654C21.0704 157.654 20.3084 156.788 20.0072 155.157C19.7059 153.506 19.8477 149.338 20.2375 148.311C20.5211 147.566 20.5565 147.546 21.1945 147.687C21.5666 147.747 22.0628 147.929 22.2932 148.049Z" fill="#FFFBFB"/>
<path d="M85.3975 146.077C83.3241 146.741 80.9318 148.734 80.1166 150.486C79.709 151.372 79.6382 151.754 79.6382 153.224C79.6382 154.694 79.709 155.077 80.1166 155.942C81.7469 159.446 85.5924 160.593 89.6505 158.741C91.0682 158.097 91.5112 157.795 92.4149 156.768C92.9997 156.083 93.6022 155.197 93.7263 154.775C94.0098 153.929 94.2579 153.788 94.2579 154.493C94.2579 155.238 95.1085 156.969 95.8174 157.674C96.1718 158.036 96.9869 158.6 97.6249 158.942C98.6882 159.526 98.9185 159.567 100.637 159.567C102.232 159.546 102.658 159.486 103.65 159.023C104.288 158.741 104.979 158.439 105.209 158.359C105.971 158.117 108.009 155.721 108.435 154.573C109.002 153.124 109.002 151.03 108.452 149.741C107.495 147.486 105.369 145.996 102.87 145.835C101.098 145.694 99.9463 145.976 98.2629 146.922C96.8275 147.748 95.0554 149.56 94.6123 150.687L94.2934 151.452L93.9921 150.305C93.6022 148.714 92.1491 147.043 90.6251 146.379C89.2429 145.795 86.7797 145.654 85.3975 146.077ZM87.5417 148.09C88.4809 148.654 88.6758 149.54 88.6758 153.224C88.6581 157.231 88.5518 157.654 87.5417 157.654C85.6987 157.654 85.1848 156.647 85.0785 152.902C85.0076 150.265 85.2025 148.392 85.6101 147.828C85.8405 147.526 86.762 147.647 87.5417 148.09ZM102.197 148.13C102.427 148.291 102.782 148.855 102.994 149.358C103.331 150.184 103.384 150.667 103.366 153.224C103.366 155.54 103.313 156.305 103.065 156.929L102.764 157.714L101.842 157.614C101.063 157.513 100.832 157.392 100.425 156.828C99.7691 155.942 99.6628 155.258 99.6628 151.916C99.6628 149.701 99.7337 148.936 99.9818 148.332C100.283 147.567 100.283 147.546 101.027 147.687C101.453 147.768 101.984 147.969 102.197 148.13Z" fill="#FFFBFB"/>
<path d="M44.5152 146.338C44.1962 146.519 43.9304 146.781 43.9304 146.922C43.9304 147.063 43.8064 147.184 43.6646 147.184C43.5228 147.184 43.3988 147.365 43.3988 147.586C43.3988 147.888 43.5228 147.989 43.8241 147.989C44.0722 147.989 44.462 148.07 44.7278 148.19L45.1709 148.392L45.1354 152.962L45.0823 157.553L44.5684 157.815C43.9304 158.177 43.3988 158.781 43.3988 159.164C43.3988 159.607 50.2036 159.607 50.5935 159.164C50.753 159.003 51.0188 158.862 51.2137 158.862C51.6745 158.862 52.082 158.399 52.082 157.875C52.082 157.533 51.9757 157.452 51.5681 157.452C50.5935 157.452 50.4872 157.311 50.4872 156.023V154.835L51.8694 156.466C52.6137 157.372 53.4288 158.419 53.6592 158.781L54.0845 159.466H56.3528C58.178 159.466 58.6211 159.405 58.7097 159.164C58.7628 159.003 59.0109 158.862 59.259 158.862C59.5071 158.862 59.702 158.761 59.702 158.66C59.702 158.54 59.8261 158.459 59.9679 158.459C60.1274 158.459 60.2337 158.278 60.2337 157.956C60.2337 157.573 60.1451 157.452 59.8615 157.452C59.6134 157.452 58.5147 156.385 56.654 154.271L53.8187 151.09L55.6085 149.64C57.6641 147.969 58.6034 147.405 58.7806 147.707C58.8514 147.828 59.1173 147.989 59.3831 148.07C59.6666 148.13 59.9856 148.432 60.1274 148.774C60.34 149.217 63.4235 159.385 63.4235 159.607C63.4235 159.647 63.8665 159.667 64.3981 159.667C64.9297 159.667 65.3728 159.567 65.3728 159.466C65.3728 159.345 65.5677 159.265 65.8158 159.265C66.5246 159.265 66.879 158.681 68.1372 155.338L69.3245 152.177L70.2815 155.258C70.8131 156.969 71.327 158.66 71.4333 159.003C71.6283 159.667 71.646 159.667 72.7447 159.667C73.3649 159.667 73.9143 159.567 73.9674 159.466C74.0206 159.345 74.251 159.265 74.4636 159.265C75.3142 159.244 75.3851 159.083 78.3445 149.539C78.6635 148.533 79.0179 147.707 79.1774 147.627C79.6381 147.445 80.0811 146.821 80.0811 146.378C80.0811 145.996 79.9748 145.976 78.0432 145.976C76.9268 145.976 76.0053 146.056 76.0053 146.157C76.0053 146.257 75.775 146.378 75.4737 146.459C75.1547 146.519 74.9421 146.7 74.9421 146.882C74.9421 147.043 74.818 147.184 74.6763 147.184C74.5345 147.184 74.4104 147.345 74.4104 147.546C74.4104 147.808 74.6231 147.969 75.1547 148.11C75.6863 148.231 75.9344 148.412 75.9876 148.674C76.0408 149.076 75.1193 152.62 74.9421 152.62C74.8889 152.62 74.4636 151.432 74.0029 149.982C72.5675 145.613 72.7801 145.976 71.6814 145.976C70.7068 145.976 69.7676 146.378 69.2182 147.023C68.8815 147.405 67.5524 150.667 67.1449 152.076C67.0208 152.519 66.879 152.781 66.7904 152.68C66.7195 152.6 66.3651 151.533 66.0107 150.345C65.4436 148.452 65.3905 148.13 65.6208 147.888C65.7626 147.727 66.0462 147.586 66.2411 147.586C66.7195 147.586 67.3575 146.862 67.2866 146.419C67.2335 146.117 66.8613 146.076 63.8133 146.016C61.5805 145.996 60.4109 146.036 60.4109 146.177C60.4109 146.278 60.216 146.378 59.9679 146.378C59.7198 146.378 59.5248 146.278 59.5248 146.177C59.5248 146.056 58.6565 145.976 57.2566 145.976C55.4845 145.976 54.8465 146.056 54.3858 146.298C53.2162 146.982 52.72 147.989 53.5706 147.989C54.1731 147.989 54.563 148.19 54.563 148.513C54.563 148.654 53.7655 149.419 52.8086 150.204C51.8339 150.969 50.9833 151.714 50.9302 151.815C50.6112 152.399 50.4872 151.815 50.4872 149.801V147.586H51.0188C51.3732 147.586 51.5504 147.486 51.5504 147.284C51.5504 147.123 51.6745 146.982 51.8162 146.982C51.9757 146.982 52.082 146.801 52.082 146.479V145.976L48.591 145.996C45.8265 146.016 44.9582 146.096 44.5152 146.338Z" fill="#FFFBFB"/>
<path d="M109.746 146.358C108.612 147.023 108.204 147.989 109.037 147.989C109.285 147.989 109.675 148.07 109.923 148.191L110.384 148.392V152.822C110.384 157.432 110.313 157.855 109.64 157.855C109.321 157.855 108.612 158.761 108.612 159.164C108.612 159.426 109.108 159.466 112.032 159.466C116.09 159.466 118.323 159.224 119.67 158.661C120.219 158.419 120.697 158.238 120.751 158.258C121.016 158.298 122.062 157.513 122.842 156.687C124.171 155.258 124.472 154.473 124.472 152.318C124.472 150.687 124.419 150.405 123.94 149.439C123.338 148.17 122.682 147.486 121.459 146.862C120.095 146.157 118.624 145.976 114.282 145.996C110.951 146.016 110.207 146.076 109.746 146.358ZM116.746 148.191C117.614 148.472 118.305 149.298 118.642 150.446C119.067 151.936 118.925 155.419 118.394 156.587L118.004 157.453H116.976C116.409 157.453 115.86 157.352 115.736 157.211C115.576 157.03 115.523 155.701 115.523 152.479C115.523 147.486 115.434 147.768 116.746 148.191Z" fill="#FFFBFB"/>
<path d="M9.72901 160.976C9.60497 161.137 9.35687 161.278 9.16194 161.278C8.94929 161.278 8.61259 161.681 8.16957 162.486C6.22027 166.13 3.3672 171.245 2.87101 172.05C2.55204 172.553 2.16218 172.956 2.00269 172.956C1.86092 172.956 1.61283 173.097 1.47106 173.258C1.31157 173.419 1.04576 173.56 0.850827 173.56C0.638176 173.56 0.51413 173.701 0.51413 173.963C0.51413 174.345 0.638176 174.365 3.26087 174.365C4.83804 174.365 6.00762 174.285 6.00762 174.184C6.00762 174.084 6.22027 173.963 6.5038 173.923C6.8405 173.882 6.98227 173.741 6.98227 173.459C6.98227 173.178 6.80506 173.037 6.27343 172.916C5.88357 172.815 5.49371 172.654 5.42283 172.573C5.33422 172.473 5.47599 171.99 5.7418 171.466L6.22027 170.54H8.54171H10.8809L11.4125 171.587C12.1213 172.996 12.1036 172.956 11.7138 172.956C11.5188 172.956 11.3239 173.077 11.2707 173.238C11.2176 173.399 10.9872 173.56 10.7568 173.6C10.5442 173.641 10.3315 173.822 10.2961 174.003C10.2429 174.345 10.5087 174.365 14.1415 174.365C16.4452 174.365 18.0579 174.285 18.0579 174.184C18.0579 174.084 18.2705 173.963 18.554 173.923C18.8907 173.882 19.0325 173.741 19.0325 173.459C19.0325 173.178 18.8376 173.016 18.3059 172.855C17.8984 172.755 17.4199 172.513 17.2604 172.352C16.8883 172.01 15.1339 168.989 12.9188 164.902C10.6682 160.734 10.6328 160.674 10.2784 160.674C10.1012 160.674 9.85306 160.815 9.72901 160.976ZM9.39232 167.56L10.048 168.828L9.26827 168.889C8.82525 168.929 8.16957 168.929 7.79743 168.889L7.10632 168.828L7.81515 167.459C8.22273 166.714 8.57715 166.15 8.63032 166.191C8.68348 166.251 9.02018 166.875 9.39232 167.56Z" fill="#FFFBFB"/>
<path d="M43.576 160.875C40.1204 161.359 36.8243 163.734 36.0623 166.251C35.4775 168.204 35.8319 170.419 36.9483 171.929C37.799 173.057 38.8091 173.681 40.5812 174.184C41.8394 174.547 42.3887 174.607 44.2849 174.506C46.8013 174.386 48.0063 174.064 50.0974 172.936C51.1429 172.392 51.5328 172.09 51.4442 171.909C51.0898 171.184 51.0189 171.164 50.0442 171.547C47.8645 172.392 45.1886 172.473 43.452 171.728C42.5305 171.345 41.609 170.48 41.1305 169.553C40.7229 168.768 40.652 168.406 40.652 167.016C40.652 165.325 40.9001 164.52 41.6976 163.533C42.4064 162.627 43.0267 162.406 44.8165 162.406C46.3582 162.406 46.5886 162.466 47.4569 163.01C48.2367 163.473 48.4848 163.775 48.8392 164.6C49.0518 165.144 49.2468 165.728 49.2468 165.849C49.2468 166.01 49.5126 166.11 49.9556 166.11C50.4695 166.11 50.6645 166.03 50.6645 165.808C50.6645 165.627 50.8239 165.506 51.1075 165.506C51.5505 165.506 51.5505 165.506 51.5505 163.594C51.5505 161.781 51.5328 161.661 51.1429 161.5C49.9024 160.956 45.5962 160.614 43.576 160.875Z" fill="#FFFBFB"/>
<path d="M84.1215 160.875C82.6152 161.077 81.9064 161.338 80.3824 162.244C78.823 163.151 77.5648 164.459 77.0332 165.667C76.537 166.835 76.4838 169.392 76.9268 170.56C77.9192 173.157 80.5951 174.567 84.5114 174.567C87.8074 174.567 90.4478 173.48 92.3085 171.365C93.4958 170.037 93.9034 168.889 93.9034 166.916C93.9034 163.614 91.706 161.439 87.8429 160.875C86.2303 160.654 85.8759 160.654 84.1215 160.875ZM86.9568 162.929C87.896 163.432 88.4808 164.399 88.853 166.01C89.3669 168.265 89.0302 170.862 88.0555 172.171C87.5948 172.815 87.4885 172.855 86.2126 172.916C84.5114 173.017 83.5367 172.634 82.6684 171.547C80.7014 169.05 81.3216 163.13 83.6253 162.486C84.5114 162.224 86.0708 162.426 86.9568 162.929Z" fill="#FFFBFB"/>
<path d="M117.756 160.895C117.171 160.996 116.179 161.358 115.541 161.681C113.68 162.667 112.865 163.775 112.865 165.265C112.865 166.896 113.857 167.802 117.171 169.151C119.12 169.936 119.847 170.601 119.847 171.607C119.847 172.755 119.528 173.017 118.181 172.916C116.675 172.836 116.055 172.332 115.505 170.842C115.133 169.815 115.062 169.735 114.513 169.735C114.194 169.735 113.928 169.815 113.928 169.936C113.928 170.037 113.733 170.137 113.485 170.137C113.095 170.137 113.042 170.238 113.042 170.782C113.042 171.144 112.989 172.05 112.936 172.775L112.812 174.104L114.07 174.326C115.612 174.628 118.341 174.628 119.616 174.366C120.981 174.084 123.107 172.815 123.745 171.909C124.419 170.923 124.543 169.533 124.064 168.527C123.657 167.661 122.381 166.755 120.538 166.01C117.756 164.902 116.958 164.218 117.189 163.171C117.348 162.486 117.986 162.204 118.943 162.365C120.095 162.567 120.857 163.231 121.211 164.298C121.459 165.083 121.583 165.204 122.062 165.265C122.363 165.305 122.611 165.245 122.611 165.124C122.611 165.003 122.859 164.902 123.143 164.902H123.675V163.11V161.318L123.196 161.197C122.31 160.976 120.059 160.694 119.421 160.714C119.085 160.714 118.323 160.795 117.756 160.895Z" fill="#FFFBFB"/>
<path d="M18.306 161.178C18.2351 161.339 18.0048 161.48 17.7744 161.48C17.3491 161.48 17.0124 161.963 17.2428 162.224C17.2959 162.285 17.7567 162.426 18.2706 162.506C18.8199 162.607 19.2984 162.829 19.4224 163.03C19.5819 163.271 19.6528 164.48 19.6528 167.319C19.6528 171.003 19.6705 171.325 20.0604 172.151C20.7692 173.762 22.7717 174.567 26.0146 174.567C29.5765 174.567 32.3764 173.137 33.1916 170.923C33.3688 170.419 33.4929 169.03 33.5815 166.352L33.7055 162.486H34.184C34.4498 162.486 34.7688 162.365 34.8928 162.204C34.9991 162.043 35.265 161.882 35.4776 161.842C35.7257 161.802 35.8675 161.641 35.8675 161.379C35.8675 160.996 35.7257 160.976 32.7309 160.916C30.0018 160.875 29.5765 160.916 29.5765 161.178C29.5765 161.359 29.417 161.48 29.1335 161.48C28.6373 161.48 28.3361 162.023 28.6905 162.285C28.8145 162.365 29.293 162.506 29.7715 162.567C30.4094 162.667 30.6398 162.788 30.7284 163.11C30.7993 163.332 30.8524 165.023 30.8702 166.876C30.8879 169.775 30.8524 170.339 30.5689 171.003C30.3917 171.426 30.0727 171.869 29.8601 171.99C29.6651 172.11 28.7614 172.231 27.8753 172.231C26.0855 172.231 25.1995 171.869 24.5438 170.862C24.2071 170.359 24.1716 169.976 24.1185 166.392L24.0653 162.486H24.6856C25.04 162.486 25.3767 162.365 25.4476 162.204C25.5184 162.043 25.7843 161.882 26.0323 161.842C26.3336 161.802 26.4754 161.661 26.4754 161.379C26.4754 160.996 26.3336 160.976 22.435 160.916C18.9617 160.875 18.3946 160.916 18.306 161.178Z" fill="#FFFBFB"/>
<path d="M53.7477 161.177C53.6769 161.338 53.4465 161.479 53.2338 161.479C52.8617 161.479 52.7908 161.6 52.7199 162.385C52.6668 162.889 52.5604 163.694 52.5073 164.197C52.4187 165.104 52.4187 165.104 52.9503 165.104C53.2338 165.104 53.5351 165.003 53.5883 164.902C53.6414 164.781 53.8541 164.701 54.049 164.701C54.2794 164.701 54.5275 164.379 54.8642 163.593L55.3426 162.486H56.5477H57.7527V167.6C57.7527 173.137 57.7881 172.956 56.778 172.956C56.5654 172.956 56.335 173.077 56.2818 173.238C56.2287 173.399 55.9983 173.56 55.7679 173.6C55.5553 173.641 55.3426 173.822 55.3072 174.003C55.254 174.345 55.5376 174.365 59.4184 174.365C62.0943 174.365 63.6006 174.285 63.6006 174.164C63.6006 174.043 63.8487 173.963 64.1322 173.963C64.5752 173.963 64.6639 173.882 64.6639 173.48C64.6639 173.037 64.5752 172.976 63.5829 172.855C62.6614 172.735 62.4842 172.634 62.3424 172.211C62.2538 171.949 62.1829 169.634 62.1829 167.097V162.486H62.7854C64.1854 162.486 64.4689 162.667 65.036 163.916C65.4967 164.963 65.6208 165.104 66.0815 165.104C66.3828 165.104 66.6132 165.003 66.6132 164.902C66.6132 164.781 66.8613 164.701 67.1625 164.701C67.6764 164.701 67.6941 164.661 67.6055 164.097C67.5524 163.755 67.446 163.211 67.3929 162.889C67.3397 162.546 67.322 162.285 67.3752 162.285C67.8713 162.285 69.3776 162.748 69.484 162.949C69.5548 163.07 69.6257 165.325 69.6257 167.943C69.6257 173.097 69.6612 172.956 68.6511 172.956C68.4384 172.956 68.208 173.077 68.1549 173.238C68.1017 173.399 67.8713 173.56 67.641 173.6C67.4283 173.641 67.2157 173.822 67.1802 174.003C67.1271 174.345 67.4106 174.365 71.2915 174.365C73.9674 174.365 75.4736 174.285 75.4736 174.164C75.4736 174.043 75.7217 173.963 76.0053 173.963C76.4483 173.963 76.5369 173.882 76.5369 173.459C76.5369 173.037 76.4483 172.956 76.0584 172.956C75.7749 172.956 75.261 172.855 74.9066 172.755C74.056 172.473 74.0205 172.332 74.0914 166.916L74.1446 162.587L74.818 162.405C75.1724 162.305 75.4736 162.144 75.4736 162.043C75.4736 161.963 75.7217 161.882 76.023 161.882C76.4837 161.882 76.5546 161.822 76.5015 161.419L76.4483 160.976L72.337 160.916C68.7397 160.875 68.208 160.916 68.208 161.177C68.208 161.58 67.3929 161.58 67.2511 161.177C67.1625 160.916 66.2587 160.875 60.4994 160.875C54.7401 160.875 53.8363 160.916 53.7477 161.177Z" fill="#FFFBFB"/>
<path d="M94.7894 161.177C94.7894 161.358 94.6299 161.479 94.3464 161.479C93.8502 161.479 93.549 162.023 93.9034 162.285C94.0274 162.365 94.5059 162.506 94.9844 162.567C96.4729 162.788 96.4375 162.708 96.2957 168.003C96.2248 170.56 96.1362 172.714 96.0831 172.795C96.0476 172.896 95.7641 172.956 95.4806 172.956C95.1793 172.956 94.9135 173.077 94.8603 173.258C94.7894 173.419 94.5591 173.56 94.3287 173.56C94.0274 173.56 93.9034 173.681 93.9034 173.963C93.9034 174.345 94.0274 174.366 97.0932 174.366C98.9539 174.366 100.283 174.285 100.283 174.184C100.283 174.084 100.496 173.963 100.779 173.923C101.116 173.882 101.258 173.741 101.258 173.459C101.258 173.137 101.098 173.037 100.283 172.896C99.7159 172.815 99.2197 172.614 99.0956 172.412C98.9361 172.171 98.8653 171.084 98.8653 168.688C98.8653 166.835 98.9184 165.305 98.9716 165.305C99.0779 165.305 103.863 170.097 106.574 172.896C107.442 173.822 108.293 174.567 108.435 174.567C108.576 174.567 109.055 174.366 109.462 174.104L110.242 173.661L110.224 168.406C110.207 165.526 110.242 163.01 110.313 162.828C110.366 162.627 110.579 162.486 110.774 162.486C110.969 162.486 111.341 162.365 111.589 162.204C111.855 162.043 112.209 161.862 112.386 161.801C112.581 161.721 112.688 161.54 112.652 161.338C112.599 161.016 112.28 160.976 109.445 160.916C106.769 160.875 106.29 160.916 106.202 161.177C106.131 161.338 105.9 161.479 105.67 161.479C105.369 161.479 105.245 161.6 105.245 161.862C105.245 162.305 105.581 162.486 106.379 162.486C107.442 162.486 107.531 162.728 107.673 165.506C107.779 167.963 107.779 168.023 107.442 167.721C106.893 167.238 102.764 163.09 101.665 161.942L100.655 160.875H97.7311C95.2325 160.875 94.7894 160.916 94.7894 161.177Z" fill="#FFFBFB"/>
</svg>
