<svg width="74" height="22" viewBox="0 0 74 22" fill="none" xmlns="http://www.w3.org/2000/svg">
<mask id="path-1-inside-1" fill="white">
<path fill-rule="evenodd" clip-rule="evenodd" d="M7.59999 21.9909C7.50049 21.9969 7.40048 22 7.29999 22C3.26831 22 -7.62939e-06 17.0751 -7.62939e-06 11C-7.62939e-06 4.92487 3.26831 0 7.29999 0C7.40048 0 7.50049 0.00305946 7.59999 0.00911992V0H66V0.00912009C66.0995 0.00305951 66.1995 0 66.3 0C70.3317 0 73.6 4.92487 73.6 11C73.6 17.0751 70.3317 22 66.3 22C66.1995 22 66.0995 21.9969 66 21.9909V22H7.59999V21.9909Z"/>
</mask>
<path fill-rule="evenodd" clip-rule="evenodd" d="M7.59999 21.9909C7.50049 21.9969 7.40048 22 7.29999 22C3.26831 22 -7.62939e-06 17.0751 -7.62939e-06 11C-7.62939e-06 4.92487 3.26831 0 7.29999 0C7.40048 0 7.50049 0.00305946 7.59999 0.00911992V0H66V0.00912009C66.0995 0.00305951 66.1995 0 66.3 0C70.3317 0 73.6 4.92487 73.6 11C73.6 17.0751 70.3317 22 66.3 22C66.1995 22 66.0995 21.9969 66 21.9909V22H7.59999V21.9909Z" fill="white"/>
<path d="M7.59999 21.9909H8.59999V20.9281L7.5392 20.9927L7.59999 21.9909ZM7.59999 0.00911992L7.5392 1.00727L8.59999 1.07188V0.00911992H7.59999ZM7.59999 0V-1H6.59999V0H7.59999ZM66 0H67V-1H66V0ZM66 0.00912009H65V1.07188L66.0608 1.00727L66 0.00912009ZM66 21.9909L66.0608 20.9927L65 20.9281V21.9909H66ZM66 22V23H67V22H66ZM7.59999 22H6.59999V23H7.59999V22ZM7.5392 20.9927C7.45991 20.9976 7.38017 21 7.29999 21V23C7.42079 23 7.54107 22.9963 7.66078 22.989L7.5392 20.9927ZM7.29999 21C5.72467 21 4.17413 20.0377 2.97133 18.2252C1.77344 16.4202 0.999992 13.8686 0.999992 11H-1.00001C-1.00001 14.2065 -0.139297 17.1549 1.3049 19.3311C2.74418 21.4999 4.84363 23 7.29999 23V21ZM0.999992 11C0.999992 8.13141 1.77344 5.57981 2.97133 3.77478C4.17413 1.96233 5.72467 1 7.29999 1V-1C4.84363 -1 2.74418 0.500102 1.3049 2.66887C-0.139297 4.84506 -1.00001 7.79346 -1.00001 11H0.999992ZM7.29999 1C7.38017 1 7.45991 1.00244 7.5392 1.00727L7.66079 -0.98903C7.54108 -0.996322 7.42079 -1 7.29999 -1V1ZM6.59999 0V0.00911992H8.59999V0H6.59999ZM66 -1H7.59999V1H66V-1ZM67 0.00912009V0H65V0.00912009H67ZM66.3 -1C66.1792 -1 66.0589 -0.996322 65.9392 -0.98903L66.0608 1.00727C66.1401 1.00244 66.2198 1 66.3 1V-1ZM74.6 11C74.6 7.79346 73.7393 4.84506 72.2951 2.66887C70.8558 0.500102 68.7564 -1 66.3 -1V1C67.8753 1 69.4259 1.96233 70.6287 3.77478C71.8265 5.57981 72.6 8.13141 72.6 11H74.6ZM66.3 23C68.7564 23 70.8558 21.4999 72.2951 19.3311C73.7393 17.1549 74.6 14.2065 74.6 11H72.6C72.6 13.8686 71.8265 16.4202 70.6287 18.2252C69.4259 20.0377 67.8753 21 66.3 21V23ZM65.9392 22.989C66.0589 22.9963 66.1792 23 66.3 23V21C66.2198 21 66.1401 20.9976 66.0608 20.9927L65.9392 22.989ZM67 22V21.9909H65V22H67ZM7.59999 23H66V21H7.59999V23ZM6.59999 21.9909V22H8.59999V21.9909H6.59999Z" fill="#E68D09" mask="url(#path-1-inside-1)"/>
<mask id="path-3-inside-2" fill="white">
<path fill-rule="evenodd" clip-rule="evenodd" d="M52.274 3.00663C52.3489 3.00222 52.4243 3 52.5 3C55.5376 3 58 6.58172 58 11C58 15.4183 55.5376 19 52.5 19C52.4243 19 52.3489 18.9978 52.274 18.9934V19H8.27398V18.9934C8.19901 18.9978 8.12366 19 8.04794 19C5.01038 19 2.54795 15.4183 2.54795 11C2.54795 6.58172 5.01038 3 8.04794 3C8.12366 3 8.19901 3.00222 8.27398 3.00663V3H52.274V3.00663Z"/>
</mask>
<path fill-rule="evenodd" clip-rule="evenodd" d="M52.274 3.00663C52.3489 3.00222 52.4243 3 52.5 3C55.5376 3 58 6.58172 58 11C58 15.4183 55.5376 19 52.5 19C52.4243 19 52.3489 18.9978 52.274 18.9934V19H8.27398V18.9934C8.19901 18.9978 8.12366 19 8.04794 19C5.01038 19 2.54795 15.4183 2.54795 11C2.54795 6.58172 5.01038 3 8.04794 3C8.12366 3 8.19901 3.00222 8.27398 3.00663V3H52.274V3.00663Z" fill="#E68D09"/>
<path d="M52.274 3.00663H51.274V4.06716L52.3327 4.00491L52.274 3.00663ZM52.274 18.9934L52.3327 17.9951L51.274 17.9328V18.9934H52.274ZM52.274 19V20H53.274V19H52.274ZM8.27398 19H7.27398V20H8.27398V19ZM8.27398 18.9934H9.27398V17.9328L8.21529 17.9951L8.27398 18.9934ZM8.27398 3.00663L8.21529 4.00491L9.27398 4.06715V3.00663H8.27398ZM8.27398 3V2H7.27398V3H8.27398ZM52.274 3H53.274V2H52.274V3ZM52.3327 4.00491C52.3881 4.00165 52.4439 4 52.5 4V2C52.4047 2 52.3098 2.0028 52.2153 2.00836L52.3327 4.00491ZM52.5 4C53.5947 4 54.6952 4.64451 55.565 5.90967C56.4318 7.17041 57 8.96706 57 11H59C59 8.61466 58.337 6.41131 57.2131 4.77662C56.0923 3.14635 54.4429 2 52.5 2V4ZM57 11C57 13.0329 56.4318 14.8296 55.565 16.0903C54.6952 17.3555 53.5947 18 52.5 18V20C54.4429 20 56.0923 18.8536 57.2131 17.2234C58.337 15.5887 59 13.3853 59 11H57ZM52.5 18C52.4439 18 52.3881 17.9984 52.3327 17.9951L52.2153 19.9916C52.3098 19.9972 52.4047 20 52.5 20V18ZM53.274 19V18.9934H51.274V19H53.274ZM8.27398 20H52.274V18H8.27398V20ZM7.27398 18.9934V19H9.27398V18.9934H7.27398ZM8.04794 20C8.14326 20 8.23819 19.9972 8.33267 19.9916L8.21529 17.9951C8.15983 17.9984 8.10405 18 8.04794 18V20ZM1.54795 11C1.54795 13.3853 2.21096 15.5887 3.33482 17.2234C4.45562 18.8536 6.10506 20 8.04794 20V18C6.95327 18 5.8527 17.3555 4.9829 16.0903C4.11615 14.8296 3.54795 13.0329 3.54795 11H1.54795ZM8.04794 2C6.10506 2 4.45562 3.14635 3.33482 4.77662C2.21096 6.41131 1.54795 8.61466 1.54795 11H3.54795C3.54795 8.96706 4.11615 7.17041 4.9829 5.90967C5.8527 4.64451 6.95327 4 8.04794 4V2ZM8.33267 2.00836C8.23818 2.0028 8.14326 2 8.04794 2V4C8.10406 4 8.15984 4.00165 8.21529 4.00491L8.33267 2.00836ZM7.27398 3V3.00663H9.27398V3H7.27398ZM52.274 2H8.27398V4H52.274V2ZM53.274 3.00663V3H51.274V3.00663H53.274Z" fill="#E68D09" mask="url(#path-3-inside-2)"/>
</svg>
