<svg width="74" height="22" viewBox="0 0 74 22" fill="none" xmlns="http://www.w3.org/2000/svg">
<mask id="path-1-inside-1" fill="white">
<path fill-rule="evenodd" clip-rule="evenodd" d="M7.6 21.9909C7.5005 21.9969 7.40049 22 7.3 22C3.26832 22 0 17.0751 0 11C0 4.92487 3.26832 0 7.3 0C7.40049 0 7.5005 0.00305946 7.6 0.00911992V0H66V0.00912009C66.0995 0.00305951 66.1995 0 66.3 0C70.3317 0 73.6 4.92487 73.6 11C73.6 17.0751 70.3317 22 66.3 22C66.1995 22 66.0995 21.9969 66 21.9909V22H7.6V21.9909Z"/>
</mask>
<path fill-rule="evenodd" clip-rule="evenodd" d="M7.6 21.9909C7.5005 21.9969 7.40049 22 7.3 22C3.26832 22 0 17.0751 0 11C0 4.92487 3.26832 0 7.3 0C7.40049 0 7.5005 0.00305946 7.6 0.00911992V0H66V0.00912009C66.0995 0.00305951 66.1995 0 66.3 0C70.3317 0 73.6 4.92487 73.6 11C73.6 17.0751 70.3317 22 66.3 22C66.1995 22 66.0995 21.9969 66 21.9909V22H7.6V21.9909Z" fill="white"/>
<path d="M7.6 21.9909H8.6V20.9281L7.53921 20.9927L7.6 21.9909ZM7.6 0.00911992L7.5392 1.00727L8.6 1.07188V0.00911992H7.6ZM7.6 0V-1H6.6V0H7.6ZM66 0H67V-1H66V0ZM66 0.00912009H65V1.07188L66.0608 1.00727L66 0.00912009ZM66 21.9909L66.0608 20.9927L65 20.9281V21.9909H66ZM66 22V23H67V22H66ZM7.6 22H6.6V23H7.6V22ZM7.53921 20.9927C7.45992 20.9976 7.38018 21 7.3 21V23C7.42079 23 7.54108 22.9963 7.66079 22.989L7.53921 20.9927ZM7.3 21C5.72468 21 4.17414 20.0377 2.97133 18.2252C1.77345 16.4202 1 13.8686 1 11H-1C-1 14.2065 -0.139289 17.1549 1.30491 19.3311C2.74418 21.4999 4.84364 23 7.3 23V21ZM1 11C1 8.13141 1.77345 5.57981 2.97133 3.77478C4.17414 1.96233 5.72468 1 7.3 1V-1C4.84364 -1 2.74418 0.500102 1.30491 2.66887C-0.139289 4.84506 -1 7.79346 -1 11H1ZM7.3 1C7.38018 1 7.45992 1.00244 7.5392 1.00727L7.6608 -0.98903C7.54108 -0.996322 7.42079 -1 7.3 -1V1ZM6.6 0V0.00911992H8.6V0H6.6ZM66 -1H7.6V1H66V-1ZM67 0.00912009V0H65V0.00912009H67ZM66.3 -1C66.1792 -1 66.0589 -0.996322 65.9392 -0.98903L66.0608 1.00727C66.1401 1.00244 66.2198 1 66.3 1V-1ZM74.6 11C74.6 7.79346 73.7393 4.84506 72.2951 2.66887C70.8558 0.500102 68.7564 -1 66.3 -1V1C67.8753 1 69.4259 1.96233 70.6287 3.77478C71.8266 5.57981 72.6 8.13141 72.6 11H74.6ZM66.3 23C68.7564 23 70.8558 21.4999 72.2951 19.3311C73.7393 17.1549 74.6 14.2065 74.6 11H72.6C72.6 13.8686 71.8266 16.4202 70.6287 18.2252C69.4259 20.0377 67.8753 21 66.3 21V23ZM65.9392 22.989C66.0589 22.9963 66.1792 23 66.3 23V21C66.2198 21 66.1401 20.9976 66.0608 20.9927L65.9392 22.989ZM67 22V21.9909H65V22H67ZM7.6 23H66V21H7.6V23ZM6.6 21.9909V22H8.6V21.9909H6.6Z" fill="#E68D09" mask="url(#path-1-inside-1)"/>
<mask id="path-3-inside-2" fill="white">
<path fill-rule="evenodd" clip-rule="evenodd" d="M24.5014 3.00663C24.5341 3.00222 24.567 3 24.6 3C25.9255 3 27 6.58172 27 11C27 15.4183 25.9255 19 24.6 19C24.567 19 24.5341 18.9978 24.5014 18.9934V19H5.30138V18.9934C5.26866 18.9978 5.23578 19 5.20274 19C3.87726 19 2.80274 15.4183 2.80274 11C2.80274 6.58172 3.87726 3 5.20274 3C5.23578 3 5.26866 3.00222 5.30138 3.00663V3H24.5014V3.00663Z"/>
</mask>
<path fill-rule="evenodd" clip-rule="evenodd" d="M24.5014 3.00663C24.5341 3.00222 24.567 3 24.6 3C25.9255 3 27 6.58172 27 11C27 15.4183 25.9255 19 24.6 19C24.567 19 24.5341 18.9978 24.5014 18.9934V19H5.30138V18.9934C5.26866 18.9978 5.23578 19 5.20274 19C3.87726 19 2.80274 15.4183 2.80274 11C2.80274 6.58172 3.87726 3 5.20274 3C5.23578 3 5.26866 3.00222 5.30138 3.00663V3H24.5014V3.00663Z" fill="#E68D09"/>
<path d="M24.5014 3.00663H23.5014V4.15039L24.6349 3.99768L24.5014 3.00663ZM24.5014 18.9934L24.6349 18.0023L23.5014 17.8496V18.9934H24.5014ZM24.5014 19V20H25.5014V19H24.5014ZM5.30138 19H4.30138V20H5.30138V19ZM5.30138 18.9934H6.30138V17.8496L5.16783 18.0023L5.30138 18.9934ZM5.30138 3.00663L5.16782 3.99767L6.30138 4.15044V3.00663H5.30138ZM5.30138 3V2H4.30138V3H5.30138ZM24.5014 3H25.5014V2H24.5014V3ZM24.6349 3.99768C24.6237 3.99918 24.612 4 24.6 4V2C24.5219 2 24.4444 2.00527 24.3679 2.01558L24.6349 3.99768ZM24.6 4C24.4466 4 24.5011 3.90067 24.7185 4.20721C24.9175 4.48778 25.1377 4.95863 25.3392 5.63049C25.7385 6.96148 26 8.86014 26 11H28C28 8.72158 27.7242 6.62024 27.2549 5.0558C27.0221 4.27994 26.7251 3.57922 26.3498 3.05015C25.993 2.54705 25.4162 2 24.6 2V4ZM26 11C26 13.1399 25.7385 15.0385 25.3392 16.3695C25.1377 17.0414 24.9175 17.5122 24.7185 17.7928C24.5011 18.0993 24.4466 18 24.6 18V20C25.4162 20 25.993 19.453 26.3498 18.9499C26.7251 18.4208 27.0221 17.7201 27.2549 16.9442C27.7242 15.3798 28 13.2784 28 11H26ZM24.6 18C24.612 18 24.6237 18.0008 24.6349 18.0023L24.3678 19.9844C24.4444 19.9947 24.5219 20 24.6 20V18ZM25.5014 19V18.9934H23.5014V19H25.5014ZM5.30138 20H24.5014V18H5.30138V20ZM4.30138 18.9934V19H6.30138V18.9934H4.30138ZM5.20274 20C5.28082 20 5.35832 19.9947 5.43492 19.9844L5.16783 18.0023C5.17901 18.0008 5.19073 18 5.20274 18V20ZM1.80274 11C1.80274 13.2784 2.07853 15.3798 2.54786 16.9442C2.78061 17.7201 3.07763 18.4208 3.45289 18.9499C3.80973 19.4529 4.38656 20 5.20274 20V18C5.35618 18 5.30164 18.0993 5.08421 17.7928C4.88521 17.5122 4.66507 17.0414 4.46351 16.3695C4.06422 15.0385 3.80274 13.1399 3.80274 11H1.80274ZM5.20274 2C4.38656 2 3.80973 2.54705 3.45289 3.05015C3.07763 3.57922 2.78061 4.27994 2.54786 5.0558C2.07853 6.62024 1.80274 8.72158 1.80274 11H3.80274C3.80274 8.86014 4.06422 6.96148 4.46351 5.63049C4.66507 4.95863 4.88521 4.48778 5.08421 4.20721C5.30164 3.90067 5.35618 4 5.20274 4V2ZM5.43494 2.01559C5.35832 2.00527 5.28081 2 5.20274 2V4C5.19074 4 5.17901 3.99918 5.16782 3.99767L5.43494 2.01559ZM4.30138 3V3.00663H6.30138V3H4.30138ZM24.5014 2H5.30138V4H24.5014V2ZM25.5014 3.00663V3H23.5014V3.00663H25.5014Z" fill="#E68D09" mask="url(#path-3-inside-2)"/>
</svg>
